<svg xmlns="http://www.w3.org/2000/svg" style="display: none;">

    <symbol id="fa-chevron-down" viewBox="0 0 512 512">
      <path d="m481 231l-212 212c-4 3-8 5-13 5-5 0-9-2-13-5l-212-212c-3-4-5-8-5-13 0-5 2-10 5-13l48-47c3-4 7-6 12-6 5 0 10 2 13 6l152 151 152-151c3-4 8-6 13-6 5 0 9 2 12 6l48 47c3 3 5 8 5 13 0 5-2 9-5 13z"/>
    </symbol>

    <symbol id="fa-pencil" viewBox="0 0 512 512">
      <path d="m140 439l26-26-67-67-26 26 0 30 37 0 0 37z m150-265c0-4-2-7-7-7-1 0-3 1-4 2l-155 155c-2 2-2 3-2 5 0 4 2 6 6 6 2 0 4 0 5-2l155-154c1-2 2-3 2-5z m-16-55l119 119-238 237-118 0 0-118z m195 27c0 10-3 19-10 26l-48 47-118-118 47-48c7-7 15-10 26-10 10 0 18 3 26 10l67 67c7 8 10 16 10 26z"/>
    </symbol>

    <symbol id="fa-chevron-up" viewBox="0 0 512 512">
      <path d="m481 380l-48 47c-3 4-7 6-12 6-5 0-10-2-13-6l-152-151-152 151c-3 4-8 6-13 6-5 0-9-2-12-6l-48-47c-3-3-5-8-5-13 0-5 2-9 5-13l212-211c4-4 8-6 13-6 5 0 9 2 13 6l212 211c3 4 5 8 5 13 0 5-2 10-5 13z"/>
    </symbol>

    <symbol id="fa-graduation-cap" viewBox="0 0 512 512">
      <path d="m434 239l5 90c1 13-7 25-24 37-16 11-38 20-67 26-28 7-59 10-92 10-33 0-64-3-92-10-29-6-51-15-67-26-17-12-25-24-24-37l5-90 164 52c4 1 9 2 14 2 5 0 10-1 14-2z m151-93c0 5-2 8-6 9l-320 101c-1 0-2 0-3 0-1 0-2 0-3 0l-186-59c-8 6-15 17-20 32-6 14-9 31-10 51 12 7 18 17 18 31 0 13-6 23-17 30l17 124c0 3-1 5-2 7-2 2-4 3-7 3l-55 0c-3 0-5-1-7-3-2-2-3-4-2-7l16-124c-11-7-16-17-16-30 0-14 6-25 18-32 2-39 12-71 28-94l-95-30c-4-1-6-4-6-9 0-4 2-7 6-9l320-100c1 0 2 0 3 0 1 0 2 0 3 0l320 100c4 2 6 5 6 9z"/>
    </symbol>

    <symbol id="fa-youtube-play" viewBox="0 0 512 512">
      <path d="m366 256c0-7-3-12-9-15l-146-92c-6-4-12-4-19 0-6 3-9 8-9 16l0 182c0 8 3 13 9 16 3 2 6 3 9 3 4 0 7-1 10-3l146-92c6-3 9-8 9-15z m146 0c0 18 0 33 0 43 0 10-1 23-3 39-1 16-3 30-6 42-3 14-10 26-20 35-10 10-22 15-35 17-43 4-106 7-192 7-86 0-149-3-192-7-13-2-25-7-35-17-10-9-17-21-20-35-3-12-5-26-6-42-2-16-3-29-3-39 0-10 0-25 0-43 0-18 0-33 0-43 0-10 1-23 3-39 1-16 3-30 6-42 3-14 10-26 20-35 10-10 22-15 35-17 43-4 106-7 192-7 86 0 149 3 192 7 13 2 25 7 35 17 10 9 17 21 20 35 3 12 5 26 6 42 2 16 3 29 3 39 0 10 0 25 0 43z"/>
    </symbol>

    <symbol id="fa-globe" viewBox="0 0 512 512">
      <path d="m256 37c40 0 77 9 110 29 34 20 60 46 80 80 20 33 29 70 29 110 0 40-9 77-29 110-20 34-46 60-80 80-33 20-70 29-110 29-40 0-77-9-110-29-34-20-60-46-80-80-20-33-29-70-29-110 0-40 9-77 29-110 20-34 46-60 80-80 33-20 70-29 110-29z m78 148c0 1-1 2-2 3-2 2-3 3-4 3 0 0 1-1 1-2 0-1 1-2 1-3 1-1 1-2 1-2 2-1 4-2 7-4 2-1 7-2 15-3 6-2 11-1 14 3 0-1 1-2 3-4 2-2 3-3 4-3 1-1 2-1 4-2 3 0 4-1 5-2l0-6c-2 0-4-1-5-2-1-2-2-4-2-6 0 0 0 1-1 2 0-1-1-2-2-2-1 0-2 0-3 0-1 1-2 1-3 0-1 0-3-1-4-2-1-1-2-2-2-4-1-3-1-4-1-5-1-1-2-2-3-3-1-1-2-2-3-3 0 0 0-1 0-1-1-1-1-2-1-2-1-1-1-1-1-2-1 0-1 0-2 0-1 0-1 0-2 1-1 1-1 2-2 3-1 1-1 1-1 1-1 0-2 0-2 0-1 0-1 0-1 0-1 0-1 1-2 1 0 0-1 1-1 1-1 0-2 1-3 1-1 0-1 0-2 0 3-1 3-2 0-3-2 0-4-1-5-1 2 0 3-1 2-3 0-2-1-3-2-4l1 0c0-1-1-2-2-2-2-1-3-2-5-3-2-1-3-1-4-2-1-1-5-1-10-2-5-1-8-1-9 0-1 1-1 2-1 3 0 0 0 2 1 4 1 1 1 3 1 3 0 1 0 3-2 4-1 1-2 2-2 3 0 2 2 3 4 5 3 1 4 3 3 6 0 1-2 3-4 4-3 2-4 3-5 4-1 1-1 3 0 5 0 2 1 4 3 5 0 0 0 1 0 1 0 0 0 1-1 1 0 1-1 1-1 1-1 1-2 1-2 1l-1 1c-2 1-4 0-6-2-2-2-3-4-4-7-1-5-3-8-4-9-5-1-8-1-9 1-1-3-5-5-11-8-5-2-11-2-17-1 1 0 1-2 0-4-1-3-3-4-5-4 0-1 1-3 1-5 0-2 0-3 0-4 1-2 2-4 3-6 1 0 1-1 2-3 2-1 2-2 3-3 1-2 1-2 2-2 6 1 11 0 14-3 1-1 2-3 3-5 1-2 2-4 3-5 2-1 3-2 4-2 1 1 2 1 4 2 2 1 3 1 4 1 3 1 5 0 5-3 0-2-1-4-2-5 2 0 2-2 1-5-1-2-2-2-3-3-2-1-5 0-7 2-2 0-2 1 0 2 0 0-1 1-3 3-1 2-3 4-4 5-2 1-3 1-5-2 0 0-1-1-1-3-1-3-2-4-3-4-2 0-3 1-5 4 1-2 0-3-3-4-3-2-5-2-7-3 4-2 3-4-2-7-1-1-3-2-6-2-2 0-4 0-5 1-1 2-2 3-2 4 0 1 0 1 1 2 1 1 2 1 3 2 1 0 2 0 4 1 1 0 2 0 2 1 3 1 4 3 2 4 0 0-1 0-2 1-1 0-2 0-3 1-1 0-2 1-2 1-1 1-1 2 0 4 1 2 0 3-1 4-1-1-1-3-2-5-1-2-2-4-2-5 1 2-1 3-7 2l-3 0c-1 0-2 0-5 0-2 1-4 1-6 1-1-1-2-1-3-3-1-1-1-3 0-5 0-1 0-1 1-1-1-1-2-1-3-3-2-1-3-2-3-2-9 3-18 7-27 12 1 0 2 0 3-1 1 0 2-1 4-2 2 0 2-1 3-1 6-3 10-3 12-2l1-2c3 3 5 6 6 8-1-1-4-1-9-1-3 1-5 3-6 4 1 2 2 4 2 5-1-1-2-2-4-3-1-1-3-2-4-3-1-1-3-1-4-2-3 0-5 1-6 1-28 15-51 36-68 63 2 1 3 2 4 2 1 1 1 1 1 3 0 2 1 3 1 3 0 1 1 0 3-1 2 2 2 4 1 6 0 0 5 2 13 7 3 4 5 6 6 6 0 3-1 4-3 6 0-1-1-2-3-3-1-1-2-2-2-1-1 1-1 3 0 5 1 3 2 4 3 4-1 0-2 1-3 4 0 3-1 7-1 10 0 4 0 6 0 7l1 0c-1 3 0 6 1 10 2 5 4 6 6 6-2 0 0 5 6 12 1 2 2 3 2 3 1 0 2 1 4 2 2 1 3 2 4 3 1 1 2 2 3 3 1 1 2 3 3 6 1 3 2 6 4 7-1 1 0 3 3 6 2 2 3 4 3 6-1 0-1 0-1 0 0 1-1 1-1 1 1 1 2 2 5 4 2 1 3 2 4 3 0 1 0 2 1 3 0 2 0 3 0 3 1 1 2 1 3 1 0-4-2-10-7-18-3-4-5-7-5-8-1-1-1-2-2-4 0-2 0-4-1-5 1 0 1 1 2 1 1 0 1 0 2 1 1 0 2 1 2 1 1 0 1 1 1 1-1 1 0 3 1 5 1 2 2 4 3 5 1 2 3 3 5 6 2 2 3 3 3 3 1 1 3 3 4 6 2 2 2 4 0 4 2 0 4 1 6 3 2 1 4 3 5 5 1 2 2 4 2 8 1 3 1 5 2 7 0 1 1 2 2 3 1 2 2 3 4 3l4 2 4 2c1 1 3 2 5 3 3 2 5 3 6 4 2 0 4 1 5 1 1 0 2 0 4-1 2 0 3-1 4-1 3 0 5 1 8 4 3 4 5 6 6 6 7 4 12 5 16 4-1 0 0 0 0 2 0 1 1 2 2 4 1 2 2 3 3 4 1 1 1 2 1 3 1 1 3 2 6 4 2 2 4 3 5 4 1 0 2-1 2-2-1 1 0 3 2 5 2 3 3 4 5 3 3 0 4-3 4-9-6 3-11 1-14-5 0 0 0-1-1-2 0 0-1-1-1-2 0-1-1-2-1-2 0-1 0-2 0-3 0 0 1 0 2 0 1 0 2-1 3-1 0-1 0-2-1-4-1-2-1-3-1-4 0-1-1-3-3-5-2-3-3-4-4-5-1 2-2 3-4 3-2-1-4-1-5-3 0 0 0 1 0 2-1 0-1 1-1 1-2 0-4 0-4 0 0 0 0-2 1-5 0-3 0-5 1-6 0-1 0-2 1-4 1-1 2-3 2-4 1-1 1-2 2-3 0-2-1-2-2-3-1-1-2-1-5-1-3 0-6 2-7 6 0 0-1 1-1 3 0 1-1 2-1 3-1 1-2 2-3 2-1 1-4 1-7 1-3 0-5-1-7-2-2-1-4-4-6-8-2-4-3-8-3-11 0-1 0-4 1-7 0-3 1-6 1-7 0-2-1-4-2-7 1-1 2-2 3-3 1-1 2-2 3-3 0 0 0 0 1 0 0-1 1-1 1 0 1 0 1 0 1-1 1 0 1-1 1-2 0 0 0 0-1 0-1-1-1-1-1-1 1 0 4 0 8-1 4-1 7 0 8 1 3 2 5 2 6-1 0 0 0-1-1-3 0-1 0-2 0-3 1 5 4 6 9 2 0 1 2 1 4 2 2 0 4 0 5 1 1 0 1 1 2 2 1 0 1 1 2 1 0 0 0 0 1 0 1-1 1-1 2-2 2 3 3 5 4 7 2 7 4 12 5 12 2 1 3 1 3 1 1 0 2-1 2-3 0-1 0-3 0-4 0-1-1-2-1-3l0-3 0-5 0-2c-3-1-5-2-6-4 0-1 0-3 1-5 1-2 2-3 4-5 0 0 1-1 2-1 2-1 3-1 5-2 1-1 3-2 3-2 4-4 6-7 5-10 1 0 2-1 3-3 0 0-1 0-2-1 0 0-1-1-2-1 0-1-1-1-1-1 2-1 2-2 1-4 1-1 1-2 2-3 0-2 1-3 2-3 2 2 4 2 6 0 1-1 1-3 0-4 1-2 3-3 6-3 3-1 5-2 5-3 2 0 2 0 3-1 0 0 0-1 0-3 0-2 0-3 1-3 0-1 2-2 4-3 2-1 3-1 4-1l5-4c0 0 0-1 0-1 3 1 6 0 8-3 2-2 2-4-1-6 0-1 0-2-1-2-1-1-3-1-4-2 0 0 1 0 3 0 1 0 2 0 3 0 3-2 2-4-2-5-3-1-7 0-12 3z m-46 251c39-7 72-25 100-54-1-1-2-1-4-1-1-1-3-1-3-1-4-2-6-2-7-3 0-1 0-2-1-3 0-1-1-2-2-3-1 0-2-1-4-2-1-1-2-2-3-2 0-1-1-1-2-2-1-1-1-1-2-1 0-1-1-1-2-2-1 0-2 0-2 0-1 0-2 0-3 0l-1 0c-1 0-1 1-2 1 0 0-1 1-1 1-1 0-1 0-1 1 0 0 0 0 0 0-4-3-8-5-11-6-1 0-2-1-3-1-1-1-2-2-3-2-1-1-2-1-3-1-1 0-2 1-3 2-1 1-1 3-2 4 0 2 0 4 0 4-1-1-1-2 0-5 1-2 1-4 0-5 0-1-1-2-3-1-1 0-2 0-3 1-1 0-2 1-3 2-2 1-2 2-3 2 0 0-1 1-2 2-2 1-2 1-3 2 0 1-1 2-1 3-1 2-1 3-2 3 0 0-1-1-3-1-2-1-3-1-3-2 1 2 1 5 1 10 1 5 1 8 2 11 1 6 0 10-4 14-5 4-8 8-8 11-1 4 0 7 3 7 0 2 0 4-2 6-1 3-2 5-2 6 0 2 0 3 1 5z"/>
    </symbol>

    <symbol id="fa-file-text" viewBox="0 0 512 512">
      <path d="m456 136c3 3 5 6 8 10l-135 0 0-135c4 3 8 6 10 8z m-136 47l155 0 0 302c0 7-2 14-8 19-5 5-11 8-19 8l-384 0c-8 0-14-3-19-8-6-5-8-12-8-19l0-458c0-7 2-14 8-19 5-5 11-8 19-8l229 0 0 155c0 8 2 15 8 20 5 5 11 8 19 8z m46 210l0-18c0-3-1-5-3-7-2-1-4-2-6-2l-202 0c-2 0-4 1-6 2-2 2-3 4-3 7l0 18c0 3 1 5 3 7 2 1 4 2 6 2l202 0c2 0 4-1 6-2 2-2 3-4 3-7z m0-73l0-18c0-3-1-5-3-7-2-2-4-2-6-2l-202 0c-2 0-4 0-6 2-2 2-3 4-3 7l0 18c0 3 1 5 3 7 2 1 4 2 6 2l202 0c2 0 4-1 6-2 2-2 3-4 3-7z m0-73l0-18c0-3-1-5-3-7-2-2-4-3-6-3l-202 0c-2 0-4 1-6 3-2 2-3 4-3 7l0 18c0 3 1 5 3 6 2 2 4 3 6 3l202 0c2 0 4-1 6-3 2-1 3-3 3-6z"/>
    </symbol>

    <symbol id="fa-caret-down" viewBox="0 0 512 512">
      <path d="m402 201c0 5-2 9-5 13l-128 128c-4 4-8 5-13 5-5 0-9-1-13-5l-128-128c-3-4-5-8-5-13 0-5 2-9 5-13 4-3 8-5 13-5l256 0c5 0 9 2 13 5 3 4 5 8 5 13z"/>
    </symbol>

    <symbol id="fa-caret-up" viewBox="0 0 512 512">
      <path d="m402 347c0 5-2 10-5 13-4 4-8 6-13 6l-256 0c-5 0-9-2-13-6-3-3-5-8-5-13 0-5 2-9 5-12l128-128c4-4 8-6 13-6 5 0 9 2 13 6l128 128c3 3 5 7 5 12z"/>
    </symbol>

    <symbol id="fa-search-plus" viewBox="0 0 512 512">
      <path d="m311 229l0 18c0 2-1 4-3 6-2 2-4 3-6 3l-64 0 0 64c0 2-1 5-3 6-2 2-4 3-6 3l-19 0c-2 0-4-1-6-3-2-1-3-4-3-6l0-64-64 0c-2 0-4-1-6-3-2-2-3-4-3-6l0-18c0-3 1-5 3-7 2-2 4-3 6-3l64 0 0-64c0-2 1-4 3-6 2-2 4-3 6-3l19 0c2 0 4 1 6 3 2 2 3 4 3 6l0 64 64 0c2 0 4 1 6 3 2 2 3 4 3 7z m36 9c0-36-12-66-37-91-25-25-55-37-91-37-35 0-65 12-90 37-25 25-38 55-38 91 0 35 13 65 38 90 25 25 55 38 90 38 36 0 66-13 91-38 25-25 37-55 37-90z m147 237c0 11-4 19-11 26-7 7-16 11-26 11-10 0-19-4-26-11l-98-98c-34 24-72 36-114 36-27 0-53-5-78-16-25-11-46-25-64-43-18-18-32-39-43-64-10-25-16-51-16-78 0-28 6-54 16-78 11-25 25-47 43-65 18-18 39-32 64-43 25-10 51-15 78-15 28 0 54 5 79 15 24 11 46 25 64 43 18 18 32 40 43 65 10 24 16 50 16 78 0 42-12 80-36 114l98 98c7 7 11 15 11 25z"/>
    </symbol>

    <symbol id="fa-align-left" viewBox="0 0 512 512">
      <path d="m512 384l0 37c0 5-2 9-5 12-4 4-8 6-13 6l-476 0c-5 0-9-2-13-6-3-3-5-7-5-12l0-37c0-5 2-9 5-13 4-3 8-5 13-5l476 0c5 0 9 2 13 5 3 4 5 8 5 13z m-110-110l0 37c0 5-2 9-5 13-4 3-8 5-13 5l-366 0c-5 0-9-2-13-5-3-4-5-8-5-13l0-37c0-5 2-9 5-13 4-3 8-5 13-5l366 0c5 0 9 2 13 5 3 4 5 8 5 13z m73-109l0 36c0 5-1 9-5 13-4 4-8 5-13 5l-439 0c-5 0-9-1-13-5-3-4-5-8-5-13l0-36c0-5 2-10 5-13 4-4 8-6 13-6l439 0c5 0 9 2 13 6 4 3 5 8 5 13z m-109-110l0 36c0 5-2 10-6 13-3 4-8 6-13 6l-329 0c-5 0-9-2-13-6-3-3-5-8-5-13l0-36c0-5 2-9 5-13 4-4 8-5 13-5l329 0c5 0 10 1 13 5 4 4 6 8 6 13z"/>
    </symbol>

    <symbol id="fa-info" viewBox="0 0 512 512">
      <path d="m347 384l0 37c0 5-1 9-5 12-4 4-8 6-13 6l-146 0c-5 0-9-2-13-6-4-3-5-7-5-12l0-37c0-5 1-9 5-13 4-3 8-5 13-5l18 0 0-110-18 0c-5 0-9-2-13-5-4-4-5-8-5-13l0-37c0-5 1-9 5-13 4-3 8-5 13-5l110 0c5 0 9 2 12 5 4 4 6 8 6 13l0 165 18 0c5 0 9 2 13 5 4 4 5 8 5 13z m-36-329l0 55c0 5-2 9-6 13-3 3-7 5-12 5l-74 0c-5 0-9-2-12-5-4-4-6-8-6-13l0-55c0-5 2-9 6-13 3-4 7-5 12-5l74 0c5 0 9 1 12 5 4 4 6 8 6 13z"/>
    </symbol>

    <symbol id="fa-flag" viewBox="0 0 512 512">
      <path d="m91 73c0 14-6 24-18 32l0 361c0 3-1 5-3 7-1 2-4 2-6 2l-18 0c-3 0-5 0-7-2-2-2-2-4-2-7l0-361c-13-8-19-18-19-32 0-10 4-19 11-26 7-7 16-10 26-10 10 0 19 3 26 10 7 7 10 16 10 26z m421 18l0 218c0 5-1 9-4 11-2 3-6 6-11 8-41 22-76 33-105 33-12 0-24-2-36-6-11-4-22-9-31-14-8-5-19-9-33-13-13-4-26-7-40-7-37 0-81 14-133 42-3 2-6 3-9 3-5 0-10-2-13-6-4-3-6-8-6-13l0-212c0-6 3-11 9-15 4-3 12-7 23-13 45-22 85-34 120-34 21 0 40 3 57 8 18 6 39 14 63 26 7 3 15 5 25 5 10 0 21-2 34-6 12-4 22-8 31-13 9-5 17-10 25-14 8-4 13-6 16-6 5 0 9 2 13 6 3 3 5 7 5 12z"/>
    </symbol>

    <symbol id="fa-angle-left" viewBox="0 0 512 512">
      <path d="m344 155c0 3-1 5-3 7l-112 112 112 113c2 1 3 4 3 6 0 3-1 5-3 7l-14 14c-2 2-5 3-7 3-2 0-5-1-7-3l-133-133c-2-2-3-4-3-7 0-2 1-4 3-6l133-133c2-2 5-3 7-3 2 0 5 1 7 3l14 14c2 2 3 4 3 6z"/>
    </symbol>

    <symbol id="fa-volume-up" viewBox="0 0 512 512">
      <path d="m238 101l0 310c0 5-2 10-6 13-3 4-8 6-13 6-5 0-9-2-12-6l-96-95-74 0c-5 0-10-2-13-5-4-4-6-8-6-13l0-110c0-5 2-9 6-13 3-3 8-5 13-5l74 0 96-95c3-4 7-6 12-6 5 0 10 2 13 6 4 3 6 8 6 13z m109 155c0 14-4 28-12 40-8 13-19 22-32 27-2 1-4 2-7 2-5 0-9-2-13-6-3-3-5-8-5-13 0-4 1-7 3-10 2-3 5-5 8-7 4-2 7-4 10-7 3-2 6-5 8-10 3-4 4-10 4-16 0-6-1-12-4-16-2-5-5-8-8-10-3-3-6-5-10-7-3-2-6-4-8-7-2-3-3-6-3-10 0-5 2-10 5-13 4-4 8-6 13-6 3 0 5 1 7 2 13 5 24 14 32 26 8 13 12 27 12 41z m74 0c0 29-9 56-25 81-16 24-37 42-64 54-2 1-5 1-7 1-5 0-10-2-13-5-4-4-6-8-6-13 0-8 4-13 11-17 11-6 18-10 22-13 14-10 25-23 33-38 8-16 12-32 12-50 0-18-4-34-12-50-8-15-19-28-33-38-4-3-11-7-22-13-7-4-11-9-11-17 0-5 2-9 6-13 3-3 8-5 13-5 2 0 5 0 7 1 27 12 48 30 64 54 16 25 25 52 25 81z m73 0c0 44-12 84-37 121-24 36-56 63-96 81-3 1-5 1-8 1-5 0-9-2-12-5-4-4-6-8-6-13 0-7 4-13 11-17 2-1 4-2 7-3 3-1 5-2 6-3 9-5 17-10 24-15 23-17 41-39 54-64 14-26 20-54 20-83 0-29-6-57-20-83-13-25-31-47-54-64-7-5-15-10-24-15-1-1-3-2-6-3-3-1-5-2-7-3-7-4-11-10-11-17 0-5 2-9 6-13 3-3 7-5 12-5 3 0 5 0 8 1 40 18 72 45 96 81 25 37 37 77 37 121z"/>
    </symbol>

    <symbol id="fa-envelope-o" viewBox="0 0 512 512">
      <path d="m475 430l0-220c-6 7-12 13-19 19-51 39-92 72-122 97-10 8-18 14-24 19-6 4-14 9-24 14-11 4-21 7-30 7l0 0c-9 0-19-3-30-7-10-5-18-10-24-14-6-5-14-11-24-19-30-25-71-58-122-97-7-6-13-12-19-19l0 220c0 2 0 4 2 6 2 2 4 3 7 3l420 0c3 0 5-1 7-3 2-2 2-4 2-6z m0-301l0-7 0-3-1-4-1-2-3-3-4 0-420 0c-3 0-5 1-7 2-2 2-2 4-2 7 0 32 14 59 42 81 36 29 75 59 114 91 1 1 5 3 10 8 6 5 10 8 13 11 4 2 8 5 13 9 5 3 10 6 14 8 5 1 9 2 13 2l0 0c4 0 8-1 13-2 4-2 9-5 14-8 5-4 9-7 13-9 3-3 7-6 13-11 5-5 9-7 10-8 39-32 78-62 114-91 11-8 20-19 29-33 9-14 13-26 13-38z m37-10l0 311c0 12-4 23-13 32-9 9-20 13-33 13l-420 0c-13 0-24-4-33-13-9-9-13-20-13-32l0-311c0-13 4-23 13-32 9-9 20-14 33-14l420 0c13 0 24 5 33 14 9 9 13 19 13 32z"/>
    </symbol>

    <symbol id="fa-check" viewBox="0 0 512 512">
      <path d="m477 162c0 7-2 14-8 19l-206 207-39 39c-6 5-12 8-20 8-7 0-14-3-19-8l-142-142c-6-6-8-12-8-20 0-7 2-14 8-19l38-39c6-5 12-8 20-8 7 0 14 3 19 8l84 84 188-188c5-5 12-8 19-8 8 0 14 3 20 8l38 39c6 6 8 12 8 20z"/>
    </symbol>

    <symbol id="fa-times" viewBox="0 0 384 512">
      <path d="M342.6 150.6c12.5-12.5 12.5-32.8 0-45.3s-32.8-12.5-45.3 0L192 210.7 86.6 105.4c-12.5-12.5-32.8-12.5-45.3 0s-12.5 32.8 0 45.3L146.7 256 41.4 361.4c-12.5 12.5-12.5 32.8 0 45.3s32.8 12.5 45.3 0L192 301.3 297.4 406.6c12.5 12.5 32.8 12.5 45.3 0s12.5-32.8 0-45.3L237.3 256 342.6 150.6z"/>
    </symbol>

    <symbol id="fa-lock" viewBox="0 0 512 512">
      <path d="m183 219l146 0 0-54c0-21-7-38-21-52-15-14-32-22-52-22-20 0-37 8-52 22-14 14-21 31-21 52z m238 28l0 164c0 8-3 15-8 20-6 5-12 8-20 8l-274 0c-8 0-14-3-20-8-5-5-8-12-8-20l0-164c0-8 3-14 8-20 6-5 12-8 20-8l9 0 0-54c0-35 13-66 38-91 25-25 55-37 90-37 35 0 65 12 90 37 25 25 38 56 38 91l0 54 9 0c8 0 14 3 20 8 5 6 8 12 8 20z"/>
    </symbol>

    <symbol id="fa-angle-down" viewBox="0 0 512 512">
      <path d="m399 210c0 3-1 5-3 7l-133 133c-2 2-5 3-7 3-2 0-5-1-7-3l-133-133c-2-2-3-4-3-7 0-2 1-4 3-6l15-15c1-1 4-2 6-2 3 0 5 1 7 2l112 113 112-113c2-1 4-2 7-2 2 0 5 1 6 2l15 15c2 2 3 4 3 6z"/>
    </symbol>

    <symbol id="fa-credit-card" viewBox="0 0 512 512">
      <path d="m485 37c12 0 23 4 32 13 9 9 13 20 13 32l0 348c0 12-4 23-13 32-9 9-20 13-32 13l-458 0c-12 0-23-4-32-13-9-9-13-20-13-32l0-348c0-12 4-23 13-32 9-9 20-13 32-13z m-458 36c-2 0-4 1-6 3-2 2-3 4-3 6l0 64 476 0 0-64c0-2-1-4-3-6-2-2-4-3-6-3z m458 366c2 0 4-1 6-3 2-2 3-4 3-6l0-174-476 0 0 174c0 2 1 4 3 6 2 2 4 3 6 3z m-430-37l0-36 73 0 0 36z m110 0l0-36 109 0 0 36z"/>
    </symbol>

    <symbol id="fa-cc-paypal" viewBox="0 0 512 512">
      <path d="m140 259c0 7-3 13-8 17-4 5-10 7-17 7-6 0-10-1-14-4-3-3-5-7-5-13 0-7 3-13 7-18 5-4 11-7 18-7 5 0 10 2 13 5 4 3 6 7 6 13z m224-43c0 8-2 14-6 17-4 2-11 4-19 4l-9 0 5-30c0-3 1-4 3-4l5 0c5 0 8 1 10 1 3 0 5 2 8 4 2 2 3 4 3 8z m100 43c0 7-2 13-7 17-5 5-11 7-18 7-5 0-10-1-13-4-3-3-5-7-5-13 0-7 2-13 7-18 5-4 11-7 18-7 5 0 9 2 13 5 4 3 5 7 5 13z m-391-49c0-11-3-19-11-24-7-5-16-8-28-8l-46 0c-4 0-6 2-6 5l-19 117c0 1 1 2 1 3 1 1 2 2 3 2l22 0c4 0 6-2 6-6l5-31c0-2 1-3 2-4 1-1 3-2 5-2 1 0 3 0 4 0 2 0 4 0 6 0 2 0 3 0 4 0 16 0 29-4 38-14 10-9 14-22 14-38z m89 89l11-74c1-2 0-3 0-4-1-1-2-1-3-1l-22 0c-3 0-4 3-5 9-5-7-14-11-27-11-14 0-25 5-35 15-10 11-14 23-14 37 0 11 3 20 9 27 7 6 16 10 27 10 5 0 11-2 16-4 6-2 11-5 14-9-1 2-1 4-1 6 0 3 1 5 4 5l19 0c4 0 6-2 7-6z m127-75c0-1 0-2-1-3 0-1-1-1-2-1l-22 0c-2 0-4 1-5 3l-31 44-12-42c-1-3-3-5-7-5l-21 0c-1 0-2 0-3 1 0 1-1 2-1 3 0 0 2 6 6 17 4 11 8 22 12 35 4 13 6 19 7 20-16 21-24 33-24 34 0 3 1 4 4 4l22 0c2 0 4-1 5-3l73-105c0 0 0-1 0-2z m109-14c0-11-4-19-11-24-7-5-17-8-29-8l-45 0c-4 0-6 2-6 5l-19 117c0 1 0 2 1 3 1 1 2 2 3 2l23 0c2 0 4-2 5-4l5-33c0-2 1-3 2-4 1-1 2-2 4-2 2 0 3 0 5 0 2 0 3 0 5 0 3 0 4 0 4 0 17 0 30-4 39-14 9-9 14-22 14-38z m88 89l12-74c0-2 0-3-1-4-1-1-2-1-3-1l-21 0c-3 0-5 3-5 9-5-7-14-11-27-11-14 0-26 5-35 15-10 11-15 23-15 37 0 11 3 20 10 27 7 6 15 10 26 10 6 0 12-2 17-4 6-2 10-5 14-9 0 0 0 1-1 3 0 1 0 2 0 3 0 3 1 5 3 5l20 0c4 0 6-2 6-6z m63-117l0 0c0-3-2-4-4-4l-21 0c-2 0-4 1-4 3l-19 119 0 1c0 1 1 1 1 2 1 1 2 2 3 2l19 0c4 0 6-2 6-6z m-510 39c-1 6-4 11-8 13-4 2-9 3-17 3l-9 0 5-30c0-3 1-4 3-4l6 0c7 0 13 2 16 4 4 2 5 7 4 14z m546-148l0 366c0 10-3 18-11 26-7 7-16 10-25 10l-586 0c-9 0-18-3-25-10-8-8-11-16-11-26l0-366c0-10 3-18 11-26 7-7 16-10 25-10l586 0c9 0 18 3 25 10 8 8 11 16 11 26z"/>
    </symbol>

    <symbol id="fa-trophy" viewBox="0 0 512 512">
      <path d="m149 252c-14-31-21-66-21-106l-73 0 0 28c0 15 9 30 27 46 18 16 40 27 67 32z m308-78l0-28-73 0c0 40-7 75-21 106 27-5 49-16 67-32 18-16 27-31 27-46z m37-37l0 37c0 13-4 27-12 41-8 13-19 26-32 37-14 11-30 20-50 28-19 7-40 11-61 12-8 11-17 20-27 27-8 7-13 14-15 21-3 7-4 16-4 26 0 10 2 19 8 26 6 7 15 10 28 10 14 0 27 5 38 13 11 9 17 20 17 33l0 18c0 3-1 5-3 7-1 2-3 2-6 2l-238 0c-3 0-5 0-6-2-2-2-3-4-3-7l0-18c0-13 6-24 17-33 11-8 24-13 38-13 13 0 22-3 28-10 6-7 8-16 8-26 0-10-1-19-4-26-2-7-7-14-15-21-10-7-19-16-27-27-21-1-42-5-61-12-20-8-36-17-50-28-13-11-24-24-32-37-8-14-12-28-12-41l0-37c0-7 3-14 8-19 6-6 12-8 20-8l82 0 0-28c0-12 4-23 13-32 9-9 20-13 33-13l164 0c13 0 24 4 33 13 9 9 13 20 13 32l0 28 82 0c8 0 14 2 20 8 5 5 8 12 8 19z"/>
    </symbol>

    <symbol id="fa-pinterest" viewBox="0 0 512 512">
      <path d="m475 256c0 40-9 77-29 110-20 34-46 60-80 80-33 20-70 29-110 29-21 0-42-3-62-9 11-17 18-33 22-47 2-6 7-26 15-60 4 8 11 14 21 19 10 6 21 9 33 9 23 0 43-7 62-20 18-13 32-31 42-54 9-23 14-48 14-77 0-22-5-42-17-61-11-19-27-35-49-47-21-12-46-18-73-18-20 0-38 3-56 9-17 5-32 12-44 22-12 9-22 19-31 31-9 12-15 24-19 37-4 13-6 26-6 38 0 20 4 38 11 53 8 15 19 25 34 31 5 3 9 1 10-5 1-2 2-5 3-9 1-5 2-8 2-9 1-4 0-8-3-12-10-12-15-26-15-43 0-29 10-54 30-74 20-21 46-31 78-31 29 0 51 8 68 23 16 16 24 36 24 61 0 32-7 60-20 83-13 22-30 34-50 34-12 0-21-5-28-13-7-8-9-18-7-30 2-6 4-15 8-26 4-12 6-21 9-30 2-8 3-16 3-21 0-10-3-18-8-24-5-6-12-10-22-10-12 0-22 6-30 17-8 11-12 24-12 40 0 14 2 26 7 35l-28 120c-4 13-5 30-4 50-39-17-71-44-95-80-24-36-36-77-36-121 0-40 9-77 29-110 20-34 46-60 80-80 33-20 70-29 110-29 40 0 77 9 110 29 34 20 60 46 80 80 20 33 29 70 29 110z"/>
    </symbol>

    <symbol id="fa-x-twitter" viewBox="0 0 512 512">
      <path d="M389.2 48h70.6L305.6 224.2 487 464H345L233.7 318.6 106.5 464H35.8L200.7 275.5 26.8 48H172.4L272.9 180.9 389.2 48zM364.4 421.8h39.1L151.1 88h-42L364.4 421.8z"/>
    </symbol>

    <symbol id="fa-tiktok" viewBox="0 0 512 512">
      <path d="M448 209.9a210.1 210.1 0 0 1 -122.8-39.3V349.4A162.6 162.6 0 1 1 185 188.3V278.2a74.6 74.6 0 1 0 52.2 71.2V0l88 0a121.2 121.2 0 0 0 1.9 22.2h0A122.2 122.2 0 0 0 381 102.4a121.4 121.4 0 0 0 67 20.1z"/>
    </symbol>

    <symbol id="fa-user" viewBox="0 0 512 512">
      <path d="m457 401c0 23-7 41-21 55-14 13-32 19-55 19l-250 0c-23 0-41-6-55-19-14-14-21-32-21-55 0-10 0-20 1-29 1-10 2-20 4-31 2-11 4-22 7-31 3-10 8-19 13-28 5-9 11-17 17-23 7-7 15-12 25-16 9-3 20-5 32-5 1 0 5 2 12 6 6 4 13 9 21 14 8 5 18 9 31 13 13 4 25 6 38 6 13 0 25-2 38-6 13-4 23-8 31-13 8-5 15-10 21-14 7-4 11-6 12-6 12 0 23 2 32 5 10 4 18 9 25 16 6 6 12 14 17 23 5 9 10 18 13 28 3 9 5 20 7 31 2 11 3 21 4 31 1 9 1 19 1 29z m-91-255c0 31-11 56-32 78-22 21-48 32-78 32-30 0-56-11-78-32-21-22-32-47-32-78 0-30 11-56 32-77 22-22 48-32 78-32 30 0 56 10 78 32 21 21 32 47 32 77z"/>
    </symbol>

    <symbol id="fa-retweet" viewBox="0 0 512 512">
      <path d="m347 430c0 2 0 4-2 6-2 2-4 3-7 3l-274 0c-2 0-3 0-4-1-1 0-2-1-2-2-1-1-2-1-2-2 0-1-1-2-1-3 0-2 0-3 0-4l0-171-55 0c-5 0-9-2-13-5-3-4-5-8-5-13 0-5 1-9 4-12l91-110c4-4 9-6 14-6 6 0 11 2 14 6l92 110c3 3 4 7 4 12 0 5-2 9-5 13-4 3-8 5-13 5l-55 0 0 110 165 0c3 0 5 1 7 3l45 55c2 2 2 4 2 6z m183-119c0 4-1 8-4 12l-91 109c-4 5-9 7-14 7-6 0-11-2-14-7l-92-109c-3-4-4-8-4-12 0-5 2-9 5-13 4-4 8-5 13-5l55 0 0-110-165 0c-3 0-5-1-7-4l-45-54c-2-2-2-4-2-6 0-3 0-5 2-7 2-1 4-2 7-2l274 0c2 0 3 0 4 0 1 1 2 1 2 2 1 1 2 2 2 3 0 0 1 1 1 3 0 1 0 3 0 3l0 172 55 0c5 0 9 1 13 5 3 4 5 8 5 13z"/>
    </symbol>

    <symbol id="fa-sign-out" viewBox="0 0 512 512">
      <path d="m201 411c0 1 0 3 0 6 1 3 1 6 1 8-1 2-1 4-1 6-1 3-2 5-3 6-2 1-4 2-6 2l-91 0c-23 0-42-8-59-24-16-16-24-36-24-58l0-202c0-22 8-42 24-58 17-16 36-24 59-24l91 0c2 0 5 1 6 3 2 2 3 4 3 6 0 1 0 3 0 6 1 3 1 6 1 8-1 2-1 4-1 6-1 3-2 5-3 6-2 1-4 2-6 2l-91 0c-13 0-24 4-33 13-9 9-13 20-13 32l0 202c0 12 4 23 13 32 9 9 20 13 33 13l89 0 3 1 3 0 3 2 2 3z m265-155c0 5-2 9-5 13l-156 155c-3 4-7 6-12 6-5 0-10-2-13-6-4-3-6-8-6-13l0-82-128 0c-5 0-9-2-13-5-3-4-5-8-5-13l0-110c0-5 2-9 5-13 4-3 8-5 13-5l128 0 0-82c0-5 2-10 6-13 3-4 8-6 13-6 5 0 9 2 12 6l156 155c3 4 5 8 5 13z"/>
    </symbol>

    <symbol id="fa-folder" viewBox="0 0 512 512">
      <path d="m494 174l0 201c0 17-7 32-19 45-13 13-28 19-45 19l-348 0c-17 0-32-6-45-19-12-13-19-28-19-45l0-274c0-18 7-33 19-46 13-12 28-18 45-18l92 0c17 0 32 6 45 18 12 13 19 28 19 46l0 9 192 0c17 0 32 6 45 19 12 12 19 27 19 45z"/>
    </symbol>

    <symbol id="fa-bars" viewBox="0 0 512 512">
      <path d="m475 384l0 37c0 5-1 9-5 12-4 4-8 6-13 6l-402 0c-5 0-9-2-13-6-4-3-5-7-5-12l0-37c0-5 1-9 5-13 4-3 8-5 13-5l402 0c5 0 9 2 13 5 4 4 5 8 5 13z m0-146l0 36c0 5-1 10-5 13-4 4-8 6-13 6l-402 0c-5 0-9-2-13-6-4-3-5-8-5-13l0-36c0-5 1-10 5-13 4-4 8-6 13-6l402 0c5 0 9 2 13 6 4 3 5 8 5 13z m0-147l0 37c0 5-1 9-5 13-4 3-8 5-13 5l-402 0c-5 0-9-2-13-5-4-4-5-8-5-13l0-37c0-5 1-9 5-12 4-4 8-6 13-6l402 0c5 0 9 2 13 6 4 3 5 7 5 12z"/>
    </symbol>

    <symbol id="fa-clipboard" viewBox="0 0 512 512">
      <path d="m219 475l256 0 0-182-118 0c-8 0-15-3-20-8-5-6-8-12-8-20l0-119-110 0z m74-411l0-18c0-3-1-5-3-7-2-2-4-2-7-2l-201 0c-2 0-4 0-6 2-2 2-3 4-3 7l0 18c0 2 1 5 3 6 2 2 4 3 6 3l201 0c3 0 5-1 7-3 2-1 3-4 3-6z m73 192l85 0-85-85z m146 37l0 192c0 7-3 14-8 19-5 5-12 8-19 8l-275 0c-7 0-14-3-19-8-5-5-8-12-8-19l0-46-156 0c-7 0-14-3-19-8-5-5-8-12-8-20l0-384c0-7 3-14 8-19 5-5 12-8 19-8l311 0c8 0 14 3 20 8 5 5 8 12 8 19l0 94c4 3 7 5 10 8l117 117c5 5 9 12 13 21 4 10 6 18 6 26z"/>
    </symbol>

    <symbol id="fa-clipboard-regular" viewBox="0 0 384 512">
      <path d="M152 96l80 0c13.3 0 24-10.7 24-24s-10.7-24-24-24l-80 0c-13.3 0-24 10.7-24 24s10.7 24 24 24zm0 48c-37.1 0-67.6-28-71.6-64L64 80c-8.8 0-16 7.2-16 16l0 352c0 8.8 7.2 16 16 16l256 0c8.8 0 16-7.2 16-16l0-352c0-8.8-7.2-16-16-16l-16.4 0c-4 36-34.5 64-71.6 64l-80 0zM232 0c25 0 47 12.7 59.9 32L320 32c35.3 0 64 28.7 64 64l0 352c0 35.3-28.7 64-64 64L64 512c-35.3 0-64-28.7-64-64L0 96C0 60.7 28.7 32 64 32l28.1 0C105 12.7 127 0 152 0l80 0zM80 256a32 32 0 1 1 64 0 32 32 0 1 1 -64 0zm96 0c0-13.3 10.7-24 24-24l80 0c13.3 0 24 10.7 24 24s-10.7 24-24 24l-80 0c-13.3 0-24-10.7-24-24zm0 96c0-13.3 10.7-24 24-24l80 0c13.3 0 24 10.7 24 24s-10.7 24-24 24l-80 0c-13.3 0-24-10.7-24-24zm-64-32a32 32 0 1 1 0 64 32 32 0 1 1 0-64z"/>
    </symbol>

    <symbol id="fa-picture-o" viewBox="0 0 512 512">
      <path d="m165 165c0 15-6 28-16 38-11 11-24 16-39 16-16 0-28-5-39-16-11-10-16-23-16-38 0-16 5-29 16-39 11-11 23-16 39-16 15 0 28 5 39 16 10 10 16 23 16 39z m292 109l0 128-402 0 0-55 91-91 46 46 146-147z m28-201l-458 0c-2 0-4 1-6 3-2 2-3 4-3 6l0 348c0 2 1 4 3 6 2 2 4 3 6 3l458 0c2 0 4-1 6-3 2-2 3-4 3-6l0-348c0-2-1-4-3-6-2-2-4-3-6-3z m45 9l0 348c0 12-4 23-13 32-9 9-20 13-32 13l-458 0c-12 0-23-4-32-13-9-9-13-20-13-32l0-348c0-12 4-23 13-32 9-9 20-13 32-13l458 0c12 0 23 4 32 13 9 9 13 20 13 32z"/>
    </symbol>

    <symbol id="fa-caret-right" viewBox="0 0 512 512">
      <path d="m329 256c0 5-2 9-5 13l-128 128c-4 3-8 5-13 5-5 0-9-2-13-5-4-4-5-8-5-13l0-256c0-5 1-9 5-13 4-3 8-5 13-5 5 0 9 2 13 5l128 128c3 4 5 8 5 13z"/>
    </symbol>

    <symbol id="fa-cc-visa" viewBox="0 0 512 512">
      <path d="m491 283l-39 0c2-7 9-24 19-51l0-3c1-2 2-4 3-7 1-3 2-6 3-8l3 16z m-412-19l-17-84c-2-10-9-15-21-15l-77 0-1 3c60 15 98 47 116 96z m51-99l-47 125-4-26c-5-13-13-25-25-37-11-11-23-19-37-25l38 146 50 0 75-183z m39 183l48 0 30-183-48 0z m220-179c-13-5-27-8-43-8-23 0-42 6-57 17-15 12-23 26-23 44 0 19 14 36 42 50 9 4 15 8 19 11 3 4 5 8 5 12 0 5-3 10-8 13-6 3-13 4-20 4-16 0-31-3-45-9l-6-3-6 41c14 6 31 10 52 10 25 0 45-6 60-17 15-12 23-27 23-46 0-20-13-37-40-50-9-4-16-8-20-12-4-3-7-7-7-11 0-4 3-7 7-11 5-3 12-4 21-4 13 0 25 2 35 7l4 2z m121-4l-36 0c-13 0-21 5-25 15l-70 168 49 0 10-27 61 0c1 4 3 13 6 27l44 0z m75-92l0 366c0 10-3 18-11 26-7 7-16 10-25 10l-586 0c-9 0-18-3-25-10-8-8-11-16-11-26l0-366c0-10 3-18 11-26 7-7 16-10 25-10l586 0c9 0 18 3 25 10 8 8 11 16 11 26z"/>
    </symbol>

    <symbol id="fa-cc-mastercard" viewBox="0 0 512 512">
      <path d="m119 267l-4 0c-9 0-14 3-14 9 0 4 2 6 6 6 3 0 6-1 8-4 2-3 3-7 4-11z m112-11l18 0 0-1c0 0 0-1 0-1 0-1 0-2 0-2 0-1 0-2-1-3 0 0-1-1-1-2-1 0-1-1-2-1-1 0-2-1-4-1-5 0-8 4-10 11z m155 11l-4 0c-9 0-13 3-13 9 0 4 1 6 5 6 4 0 6-1 8-4 2-3 4-7 4-11z m91-8c0-8-3-12-9-12-3 0-6 2-9 6-2 4-3 9-3 15 0 8 3 12 8 12 4 0 7-2 9-6 3-4 4-9 4-15z m-413-40l25 0-13 75-16 0 9-58-20 58-11 0-1-57-10 57-15 0 13-75 23 0 0 46z m72 30c0 2 0 6-1 12-3 20-5 30-5 33l-13 0 0-7c-4 5-9 8-16 8-5 0-8-2-11-5-3-3-4-7-4-12 0-7 2-13 7-17 5-4 12-6 21-6 3 0 5 0 7 0 0 0 0-1-1-1 0-1 0-1 1-2 0 0 0 0 1-1 0-3-3-5-10-5-6 0-11 1-17 3 0-1 1-6 2-14 7-2 14-3 19-3 14 0 21 6 21 17z m45-16l-2 14c-5-1-9-1-12-1-5 0-8 2-8 5 0 1 1 3 1 3 1 1 3 2 7 3 7 4 11 10 11 18 0 13-8 20-25 20-6 0-12-1-16-2 0 0 0-5 2-14 5 2 10 2 14 2 6 0 9-1 9-5 0-1 0-2-1-3-1-1-3-2-6-4-8-4-12-9-12-17 0-13 8-20 24-20 5 0 10 0 14 1z m25 0l8 0-2 15-8 0c-1 3-1 7-2 11-1 5-2 8-2 11-1 3-1 5-1 5 0 3 2 5 6 5 1 0 3 0 4-1l-2 14c-4 1-8 2-12 2-8 0-12-5-12-14 0-2 0-7 2-16 0-3 3-17 7-41l16 0z m58 21c0 4-1 9-2 15l-32 0c0 4 1 7 3 9 3 2 6 3 11 3 6 0 11-1 17-4l-3 16c-6 1-11 2-16 2-18 0-27-9-27-27 0-11 2-19 7-26 6-7 12-10 20-10 7 0 12 2 16 6 4 4 6 9 6 16z m40-21c-3 4-5 10-7 17-4 0-7 2-8 7-2 5-5 17-8 37l-16 0 1-4c4-25 7-44 9-57l14 0-1 9c3-4 5-7 8-8 2-2 4-2 8-1z m53-12l-2 16c-6-3-11-4-15-4-6 0-10 3-14 8-4 5-6 12-6 20 0 6 1 10 4 14 2 3 6 4 11 4 4 0 8-1 14-3l-3 17c-6 1-10 2-15 2-8 0-15-3-20-9-5-6-8-14-8-23 0-14 4-25 11-33 6-9 15-13 26-13 5 0 10 1 17 4z m46 28c0 4 0 8-1 12-2 15-4 26-5 33l-13 0 1-7c-4 5-10 8-17 8-5 0-8-2-11-5-3-3-4-7-4-12 0-7 3-13 7-17 5-4 12-6 21-6 3 0 5 0 7 0 0-1 0-2 0-4 0-3-3-5-10-5-6 0-11 1-17 3 0-1 1-6 2-14 8-2 14-3 20-3 13 0 20 6 20 17z m41-16c-3 4-5 10-6 17-5 0-8 2-9 7-2 5-4 17-8 37l-16 0 1-4c4-20 7-39 9-57l14 0c0 2 0 5-1 9 3-4 6-7 8-8 2-2 5-2 8-1z m40-14l16 0-12 75-15 0 0-6c-4 5-9 7-14 7-6 0-11-2-15-7-3-5-5-11-5-18 0-10 3-19 8-27 5-7 11-11 18-11 6 0 11 3 16 9z m32 37c0-28-7-54-21-78-14-24-33-43-57-57-23-13-50-20-78-20-34 0-65 10-93 31 24 22 40 49 48 81l-14 0c-8-28-23-53-45-72-22 19-37 44-45 72l-14 0c8-32 24-59 48-81-28-21-59-31-93-31-28 0-55 7-78 20-24 14-43 33-57 57-14 24-21 50-21 78 0 28 7 54 21 78 14 24 33 43 57 57 23 13 50 20 78 20 34 0 65-10 93-31-22-21-38-46-47-75l15 0c8 26 23 48 43 66 20-18 35-40 43-66l15 0c-9 29-25 54-47 75 28 21 59 31 93 31 28 0 55-7 78-20 24-14 43-33 57-57 14-24 21-50 21-78z m69-183l0 366c0 10-3 18-11 26-7 7-16 10-25 10l-586 0c-9 0-18-3-25-10-8-8-11-16-11-26l0-366c0-10 3-18 11-26 7-7 16-10 25-10l586 0c9 0 18 3 25 10 8 8 11 16 11 26z"/>
    </symbol>

    <symbol id="fa-cc-amex" viewBox="0 0 512 512">
      <path d="m-39 195l25 0-13-31z m177 150l21-22-20-23-46 0 0 14 40 0 0 16-40 0 0 15z m45-22l29 31 0-62z m83-14c0-6-4-9-12-9l-24 0 0 20 24 0c8 0 12-4 12-11z m82-1c0-5-4-8-12-8l-23 0 0 17 23 0c8 0 12-3 12-9z m-79-133c0-5-4-8-12-8l-24 0 0 17 24 0c8 0 12-3 12-9z m131 20l25 0-12-31z m-273-44l0 77-19 0 0-61-27 61-16 0-27-61 0 61-38 0-7-17-39 0-7 17-20 0 33-77 28 0 31 73 0-73 30 0 25 52 22-52z m158 158c0 4 0 8-1 10-1 3-3 6-4 8-2 1-4 3-7 4-2 2-5 2-7 3-2 1-5 1-9 1-4 1-7 1-9 1-2 0-5 0-9 0-4-1-7-1-9-1l0 26-36 0-23-25-23 25-73 0 0-77 74 0 23 25 23-25 59 0c21 0 31 8 31 25z m-83-97l0 16-62 0 0-77 62 0 0 16-43 0 0 14 42 0 0 16-42 0 0 15z m383 160l0 65c0 11-4 20-11 27-7 8-16 11-27 11l-582 0c-11 0-20-3-27-11-7-7-11-16-11-27l0-194 32 0 7-17 15 0 8 17 62 0 0-13 5 13 33 0 5-13 0 13 155 0 0-28 3 0c2 0 3 1 3 4l0 24 79 0 0-6c5 2 10 4 16 5 6 1 11 2 15 2 4 0 10 0 18 0 8 0 13-1 15-1l7-17 16 0 7 17 65 0 0-16 10 16 52 0 0-108-52 0 0 13-7-13-53 0 0 13-6-13-72 0c-13 0-23 3-31 7l0-7-49 0 0 7c-4-4-11-7-21-7l-179 0-12 28-13-28-56 0 0 13-7-13-48 0-22 52 0-112c0-11 4-20 11-27 7-8 16-11 27-11l582 0c11 0 20 3 27 11 7 7 11 16 11 27l0 194-34 0c-10 0-18 2-23 6l0-6-51 0c-10 0-18 2-22 6l0-6-90 0 0 6c-6-4-15-6-25-6l-60 0 0 6c-4-4-13-6-26-6l-67 0-15 16-15-16-99 0 0 108 98 0 15-17 15 17 61 0 0-26 6 0c11 0 19-1 25-4l0 30 50 0 0-29 2 0c2 0 3 0 3 1 1 0 1 1 1 3l0 25 151 0c11 0 19-3 25-7l0 7 48 0c11 0 20-2 27-5z m-216-67c0 4-2 8-4 12-2 4-5 7-10 8 5 2 8 5 10 8 2 3 3 7 3 13l0 15-19 0 0-12c0-7-1-11-3-13-3-2-7-3-13-3l-20 0 0 28-19 0 0-77 44 0c9 0 17 1 22 4 6 3 9 9 9 17z m-80-134c0 5-1 9-3 13-3 4-6 7-10 8 5 2 9 4 10 8 2 3 3 7 3 13l0 15-19 0c0-2 0-4 0-8 0-3 0-5 0-7 0-1 0-3-1-5-1-2-1-4-2-5-1-1-3-1-5-2-3-1-6-1-9-1l-20 0 0 28-18 0 0-77 44 0c9 0 16 1 22 4 5 3 8 8 8 16z m152 174l0 16-62 0 0-77 62 0 0 16-44 0 0 14 43 0 0 16-43 0 0 15z m-122-194l0 77-19 0 0-77z m198 186c0 16-10 24-29 24l-36 0 0-16 36 0c6 0 9-3 9-7 0-3-1-5-4-6-4-1-8-2-12-2-5 0-10 0-14-1-5 0-9-3-12-6-4-4-5-9-5-16 0-7 2-13 7-17 5-4 11-6 19-6l37 0 0 16-34 0c-7 0-10 3-10 7 0 3 2 5 5 6 3 1 7 2 12 1 5 0 9 1 14 1 5 1 9 3 12 6 3 4 5 9 5 16z m68-14l0 28c-4 7-13 10-25 10l-36 0 0-16 36 0c6 0 9-3 9-7 0-3-1-5-3-6-3-1-5-1-9-1-4 0-7 0-11-1-5 0-8-1-12-2-3-1-6-3-9-7-2-4-3-8-3-14 0-7 2-13 7-17 5-4 12-6 19-6l37 0 0 16-34 0c-6 0-10 3-10 7 0 4 3 6 8 7 6 0 12 1 20 1 8 1 13 3 16 8z m-47-172l0 77-26 0-35-58 0 58-38 0-7-17-39 0-7 17-21 0c-25 0-37-13-37-38 0-26 13-39 38-39l18 0 0 16c-1 0-4 0-8 0-4 0-7 0-8 0-2 0-4 0-7 1-3 0-5 0-6 1-1 1-2 3-4 4-2 2-3 4-3 7-1 3-1 6-1 9 0 8 1 13 4 17 2 4 7 6 14 6l8 0 26-61 28 0 31 73 0-73 29 0 32 54 0-54z"/>
    </symbol>

    <symbol id="fa-external-link" viewBox="0 0 512 512">
      <path d="m402 265l0 92c0 22-8 42-24 58-16 16-35 24-58 24l-238 0c-22 0-42-8-58-24-16-16-24-36-24-58l0-238c0-23 8-42 24-58 16-16 36-24 58-24l201 0c3 0 5 0 7 2 2 2 3 4 3 7l0 18c0 3-1 5-3 7-2 1-4 2-7 2l-201 0c-12 0-23 5-32 14-9 9-13 19-13 32l0 238c0 12 4 23 13 32 9 9 20 13 32 13l238 0c13 0 23-4 32-13 9-9 14-20 14-32l0-92c0-3 1-5 2-6 2-2 4-3 7-3l18 0c3 0 5 1 7 3 1 1 2 3 2 6z m110-247l0 147c0 5-2 9-5 12-4 4-8 6-13 6-5 0-10-2-13-6l-50-50-187 186c-2 2-4 3-6 3-3 0-5-1-7-3l-32-32c-2-2-3-4-3-7 0-2 1-4 3-6l186-187-50-50c-4-3-6-8-6-13 0-5 2-9 6-13 3-3 7-5 12-5l147 0c5 0 9 2 13 5 3 4 5 8 5 13z"/>
    </symbol>

    <symbol id="fa-expand" viewBox="0 0 512 512">
      <path d="m252 302c0 2-1 4-3 6l-94 95 41 41c3 4 5 8 5 13 0 5-2 9-5 13-4 4-8 5-13 5l-128 0c-5 0-9-1-13-5-4-4-5-8-5-13l0-128c0-5 1-9 5-13 4-3 8-5 13-5 5 0 9 2 13 5l41 41 95-94c2-2 4-3 6-3 3 0 5 1 7 3l32 32c2 2 3 4 3 7z m223-247l0 128c0 5-1 9-5 13-4 3-8 5-13 5-5 0-9-2-13-5l-41-41-95 94c-2 2-4 3-6 3-3 0-5-1-7-3l-32-32c-2-2-3-4-3-7 0-2 1-4 3-6l94-95-41-41c-3-4-5-8-5-13 0-5 2-9 5-13 4-4 8-5 13-5l128 0c5 0 9 1 13 5 4 4 5 8 5 13z"/>
    </symbol>

    <symbol id="fa-compress" viewBox="0 0 512 512">
      <path d="m256 274l0 128c0 5-2 10-5 13-4 4-8 6-13 6-5 0-10-2-13-6l-41-41-95 95c-2 2-4 3-7 3-2 0-4-1-6-3l-33-33c-2-2-3-4-3-6 0-3 1-5 3-7l95-95-41-41c-4-3-6-8-6-13 0-5 2-9 6-13 3-3 8-5 13-5l128 0c5 0 9 2 13 5 3 4 5 8 5 13z m216-192c0 3-1 5-3 7l-95 95 41 41c4 3 6 8 6 13 0 5-2 9-6 13-3 3-8 5-13 5l-128 0c-5 0-9-2-13-5-3-4-5-8-5-13l0-128c0-5 2-10 5-13 4-4 8-6 13-6 5 0 10 2 13 6l41 41 95-95c2-2 4-3 7-3 2 0 4 1 6 3l33 33c2 2 3 4 3 6z"/>
    </symbol>

    <symbol id="fa-search" viewBox="0 0 512 512">
      <path d="m347 238c0-36-12-66-37-91-25-25-55-37-91-37-35 0-65 12-90 37-25 25-38 55-38 91 0 35 13 65 38 90 25 25 55 38 90 38 36 0 66-13 91-38 25-25 37-55 37-90z m147 237c0 10-4 19-11 26-7 7-16 11-26 11-10 0-19-4-26-11l-98-98c-34 24-72 36-114 36-27 0-53-5-78-16-25-11-46-25-64-43-18-18-32-39-43-64-10-25-16-51-16-78 0-28 6-54 16-78 11-25 25-47 43-65 18-18 39-32 64-43 25-10 51-15 78-15 28 0 54 5 79 15 24 11 46 25 64 43 18 18 32 40 43 65 10 24 16 50 16 78 0 42-12 80-36 114l98 98c7 7 11 15 11 25z"/>
    </symbol>

    <symbol id="fa-forward-10" viewBox="0 0 512 512">
      <path d="m85 277c0 94 77 171 171 171 94 0 171-77 171-171l-43 0c0 71-58 128-128 128-70 0-128-57-128-128 0-70 58-128 128-128l0 86 107-107-107-107 0 86c-94 0-171 76-171 170z m145 64l-17 0 0-70-21 6 0-15 38-12 3 0 0 91z m92-38c0 6 0 13-2 17l-6 13c0 0-7 6-11 6-4 0-9 2-13 2-4 0-8 0-13-2-4-2-6-4-10-6-5-2-5-7-7-13-2-6-2-11-2-17l0-15c0-6 0-13 2-17l7-13c0 0 6-6 10-6 5 0 9-2 13-2 4 0 9 0 13 2 4 2 6 4 11 6 4 2 4 7 6 13 2 6 2 11 2 17z m-17-17l0-11c0 0-2-4-2-6 0-2-2-2-4-4-2-3-5-3-7-3-2 0-4 0-6 3l-4 4c0 0-3 4-3 6l0 43c0 0 3 4 3 6 0 2 2 2 4 5 2 2 4 2 6 2 2 0 5 0 7-2l4-5c0 0 2-4 2-6z"/>
    </symbol>

    <symbol id="fa-replay-10" viewBox="0 0 512 512">
      <path d="m256 107l0-86-107 107 107 107 0-86c70 0 128 58 128 128 0 71-58 128-128 128-70 0-128-57-128-128l-43 0c0 94 77 171 171 171 94 0 171-77 171-171 0-94-77-170-171-170z m-23 234l-20 0 0-70-21 6 0-15 38-12 3 0z m91-38c0 6 0 13-2 17l-6 13c0 0-7 6-11 6-4 0-8 2-13 2-4 0-8 0-13-2-4-2-6-4-10-6-4-2-4-7-7-13-2-6-2-11-2-17l0-15c0-6 0-13 2-17l7-13c0 0 6-6 10-6 5 0 9-2 13-2 5 0 9 0 13 2 4 2 6 4 11 6 4 2 4 7 6 13 2 6 2 11 2 17z m-19-17l0-11c0 0-2-4-2-6 0-2-2-2-4-4-2-3-5-3-7-3-2 0-4 0-6 3l-4 4c0 0-3 4-3 6l0 43c0 0 3 4 3 6 0 2 2 2 4 5 2 2 4 2 6 2 2 0 5 0 7-2l4-5c0 0 2-4 2-6z"/>
    </symbol>

    <symbol id="fa-plus" viewBox="0 0 512 512">
      <path d="m457 210l0 55c0 8-3 14-8 20-5 5-12 8-19 8l-119 0 0 118c0 8-3 15-8 20-5 5-12 8-20 8l-54 0c-8 0-15-3-20-8-5-5-8-12-8-20l0-118-119 0c-7 0-14-3-19-8-5-6-8-12-8-20l0-55c0-7 3-14 8-19 5-5 12-8 19-8l119 0 0-119c0-8 3-14 8-19 5-6 12-8 20-8l54 0c8 0 15 2 20 8 5 5 8 11 8 19l0 119 119 0c7 0 14 3 19 8 5 5 8 12 8 19z"/>
    </symbol>

    <symbol id="fa-facebook" viewBox="0 0 512 512">
      <path d="m384 3l0 76-45 0c-17 0-28 3-33 10-6 7-9 17-9 31l0 54 84 0-11 85-73 0 0 216-87 0 0-216-73 0 0-85 73 0 0-62c0-36 10-63 29-83 20-19 47-29 80-29 28 0 49 1 65 3z"/>
    </symbol>

    <symbol id="fa-trash" viewBox="0 0 512 512">
      <path d="m201 393l0-201c0-3-1-5-2-7-2-1-4-2-7-2l-18 0c-3 0-5 1-7 2-2 2-2 4-2 7l0 201c0 3 0 5 2 7 2 1 4 2 7 2l18 0c3 0 5-1 7-2 1-2 2-4 2-7z m73 0l0-201c0-3-1-5-2-7-2-1-4-2-7-2l-18 0c-3 0-5 1-7 2-1 2-2 4-2 7l0 201c0 3 1 5 2 7 2 1 4 2 7 2l18 0c3 0 5-1 7-2 1-2 2-4 2-7z m73 0l0-201c0-3 0-5-2-7-2-1-4-2-7-2l-18 0c-3 0-5 1-7 2-1 2-2 4-2 7l0 201c0 3 1 5 2 7 2 1 4 2 7 2l18 0c3 0 5-1 7-2 2-2 2-4 2-7z m-155-283l128 0-14-34c-1-1-3-2-5-3l-90 0c-2 1-4 2-5 3z m265 9l0 18c0 3-1 5-2 7-2 1-4 2-7 2l-27 0 0 271c0 16-5 30-14 41-9 12-20 17-32 17l-238 0c-12 0-23-5-32-16-9-11-14-25-14-41l0-272-27 0c-3 0-5-1-7-2-1-2-2-4-2-7l0-18c0-3 1-5 2-7 2-1 4-2 7-2l88 0 20-48c3-7 8-13 16-18 7-5 15-7 22-7l92 0c7 0 15 2 22 7 8 5 13 11 16 18l20 48 88 0c3 0 5 1 7 2 1 2 2 4 2 7z"/>
    </symbol>

    <symbol id="fa-lightbulb-o" viewBox="0 0 512 512">
      <path d="m320 165c0 2-1 4-3 6-2 2-4 3-6 3-3 0-5-1-7-3-1-2-2-4-2-6 0-9-5-16-16-21-10-4-20-7-30-7-2 0-5-1-6-3-2-1-3-4-3-6 0-2 1-5 3-6 1-2 4-3 6-3 10 0 19 1 28 4 10 3 18 9 25 16 7 7 11 16 11 26z m46 0c0-14-4-27-10-39-7-12-15-21-26-29-10-7-22-13-35-17-13-5-26-7-39-7-13 0-26 2-39 7-13 4-25 10-35 17-11 8-19 17-26 29-6 12-10 25-10 39 0 19 7 36 20 51 2 2 5 5 8 9 4 5 7 8 9 10 25 29 38 57 40 85l66 0c2-28 15-56 40-85 2-2 5-5 9-10 3-4 6-7 8-9 13-15 20-32 20-51z m36 0c0 29-10 55-29 76-9 9-16 18-21 25-6 7-12 16-17 27-6 11-9 21-10 31 9 5 13 13 13 23 0 7-2 14-7 19 5 5 7 11 7 18 0 10-4 18-13 23 3 5 4 9 4 14 0 8-3 15-9 20-6 5-13 7-22 7-4 8-10 15-17 20-8 5-16 7-25 7-9 0-17-2-25-7-7-5-13-12-17-20-9 0-16-2-22-7-6-5-9-12-9-20 0-5 1-9 4-14-9-5-13-13-13-23 0-7 2-13 7-18-5-5-7-12-7-19 0-10 4-18 13-23-1-10-4-20-10-31-5-11-11-20-17-27-5-7-12-16-21-25-19-21-29-47-29-76 0-19 4-37 12-53 9-16 20-30 34-41 14-10 29-19 47-25 17-6 35-9 53-9 18 0 36 3 53 9 18 6 33 15 47 25 14 11 25 25 34 41 8 16 12 34 12 53z"/>
    </symbol>

    <symbol id="fa-instagram" viewBox="0 0 512 512">
      <path d="m426 407l0-185-39 0c4 12 6 25 6 38 0 24-6 46-18 66-13 20-29 36-50 48-21 12-44 18-69 18-37 0-69-13-96-39-27-26-40-57-40-93 0-13 2-26 6-38l-41 0 0 185c0 5 2 10 5 13 4 3 8 5 13 5l305 0c5 0 9-2 13-5 3-3 5-8 5-13z m-81-152c0-23-9-44-26-60-18-17-38-25-63-25-24 0-45 8-62 25-17 16-26 37-26 60 0 24 9 44 26 61 17 16 38 25 62 25 25 0 45-9 63-25 17-17 26-37 26-61z m81-103l0-47c0-5-2-10-6-14-4-4-8-6-14-6l-50 0c-5 0-10 2-14 6-4 4-5 9-5 14l0 47c0 6 1 10 5 14 4 4 9 6 14 6l50 0c6 0 10-2 14-6 4-4 6-8 6-14z m49-59l0 326c0 16-5 29-16 40-11 11-24 16-40 16l-326 0c-16 0-29-5-40-16-11-11-16-24-16-40l0-326c0-16 5-29 16-40 11-11 24-16 40-16l326 0c16 0 29 5 40 16 11 11 16 24 16 40z"/>
    </symbol>

    <symbol id="fa-bookmark" viewBox="0 0 512 512">
      <path d="m406 37c4 0 8 0 12 2 7 3 12 7 15 12 4 5 6 11 6 18l0 368c0 6-2 12-6 18-3 5-8 9-15 11-3 2-8 3-12 3-9 0-17-3-24-10l-126-121-126 121c-7 7-15 10-24 10-4 0-8-1-12-3-7-2-12-6-15-11-4-6-6-12-6-18l0-368c0-7 2-13 6-18 3-5 8-9 15-12 4-2 8-2 12-2z"/>
    </symbol>

    <symbol id="fa-bookmark-o" viewBox="0 0 512 512">
      <path d="m402 73l-292 0 0 355 121-116 25-24 25 24 121 116z m4-36c4 0 8 0 12 2 7 3 12 7 15 12 4 5 6 11 6 18l0 368c0 6-2 12-6 18-3 5-8 9-15 11-3 2-8 3-12 3-9 0-17-3-24-10l-126-121-126 121c-7 7-15 10-24 10-4 0-8-1-12-3-7-2-12-6-15-11-4-6-6-12-6-18l0-368c0-7 2-13 6-18 3-5 8-9 15-12 4-2 8-2 12-2z"/>
    </symbol>

    <symbol id="fa-exclamation" viewBox="0 0 512 512">
      <path d="m311 357l0 64c0 5-2 9-6 12-3 4-7 6-12 6l-74 0c-5 0-9-2-12-6-4-3-6-7-6-12l0-64c0-5 2-10 6-13 3-4 7-6 12-6l74 0c5 0 9 2 12 6 4 3 6 8 6 13z m8-302l-8 219c0 5-2 10-5 13-4 4-8 6-13 6l-74 0c-5 0-9-2-13-6-3-3-5-8-5-13l-8-219c-1-5 1-9 5-13 3-4 7-5 12-5l92 0c5 0 9 1 12 5 4 4 6 8 5 13z"/>
    </symbol>

    <symbol id="fa-cog" viewBox="0 0 512 512">
      <path d="m329 256c0-20-7-37-21-52-15-14-32-21-52-21-20 0-37 7-52 21-14 15-21 32-21 52 0 20 7 37 21 52 15 14 32 21 52 21 20 0 37-7 52-21 14-15 21-32 21-52z m146-31l0 63c0 3 0 5-2 7-1 2-3 3-6 4l-52 8c-4 10-8 19-12 26 7 9 17 22 31 39 2 2 3 5 3 7 0 3-1 5-3 7-5 7-14 17-28 31-14 13-23 20-27 20-2 0-5-1-7-3l-40-31c-8 5-17 8-26 11-3 26-6 44-8 53-1 6-5 8-10 8l-64 0c-2 0-5 0-7-2-2-2-3-4-3-6l-8-53c-9-3-18-6-26-10l-40 30c-2 2-4 3-7 3-3 0-5-1-7-3-24-22-40-38-47-48-2-2-2-4-2-7 0-2 0-4 2-6 3-4 8-11 14-19 7-9 12-16 16-21-5-9-9-19-12-28l-52-8c-3 0-5-1-6-3-2-2-2-4-2-7l0-63c0-3 0-5 2-7 1-2 3-3 5-4l53-8c3-8 7-17 12-26-8-11-18-24-31-39-2-3-3-5-3-7 0-2 1-4 3-7 5-7 14-17 28-30 14-14 23-21 27-21 2 0 5 1 7 3l40 31c8-5 17-8 26-11 3-26 6-44 8-53 1-6 5-8 10-8l64 0c2 0 5 0 7 2 2 2 3 4 3 6l8 53c9 3 18 6 26 10l40-30c2-2 4-3 7-3 3 0 5 1 7 3 25 23 41 39 47 49 2 1 2 3 2 6 0 2 0 4-2 6-3 4-8 11-14 19-7 9-12 16-16 21 5 9 9 18 12 28l52 8c3 0 5 1 6 3 2 2 2 4 2 7z"/>
    </symbol>

    <symbol id="fa-file-arrow-down" viewBox="0 0 512 512">
      <path d="M64 0C28.7 0 0 28.7 0 64L0 448c0 35.3 28.7 64 64 64l256 0c35.3 0 64-28.7 64-64l0-288-128 0c-17.7 0-32-14.3-32-32L224 0 64 0zM256 0l0 128 128 0L256 0zM216 232l0 102.1 31-31c9.4-9.4 24.6-9.4 33.9 0s9.4 24.6 0 33.9l-72 72c-9.4 9.4-24.6 9.4-33.9 0l-72-72c-9.4-9.4-9.4-24.6 0-33.9s24.6-9.4 33.9 0l31 31L168 232c0-13.3 10.7-24 24-24s24 10.7 24 24z"/>
    </symbol>

    <symbol id="fa-apple" viewBox="0 0 512 512">
      <path d="m453 347c-8 24-19 48-35 72-25 37-49 56-74 56-9 0-22-3-40-10-16-6-30-9-43-9-11 0-25 3-40 10-16 6-28 9-38 9-29 0-58-24-86-74-28-49-42-97-42-143 0-44 11-79 32-107 21-28 49-41 81-41 14 0 31 3 51 8 20 6 33 9 39 9 9 0 22-3 41-10 20-6 36-10 50-10 22 0 43 7 60 19 10 7 20 16 30 29-15 12-26 24-32 33-13 18-19 38-19 59 0 24 7 45 20 64 13 19 28 31 45 36z m-108-335c0 12-2 25-8 39-6 14-14 27-26 39-11 11-21 17-31 21-7 2-17 4-30 5 1-29 8-53 22-74 14-20 38-34 72-42 0 1 0 2 0 3 1 2 1 3 1 3 0 1 0 2 0 3 0 1 0 2 0 3z"/>
    </symbol>

    <symbol id="fa-angle-left-1" viewBox="0 0 512 512">
      <path d="m344 155c0 3-1 5-3 7l-112 112l112 113c2 1 3 4 3 6c0 3-1 5-3 7l-14 14c-2 2-5 3-7 3c-2 0-5-1-7-3l-133-133c-2-2-3-4-3-7c0-2 1-4 3-6l133-133c2-2 5-3 7-3c2 0 5 1 7 3l14 14c2 2 3 4 3 6z"/>
    </symbol>

    <symbol id="fa-angle-right-1" viewBox="0 0 512 512">
      <path d="m335 274c0 3-1 5-3 7l-133 133c-2 2-5 3-7 3c-2 0-5-1-7-3l-14-14c-2-2-3-4-3-7c0-2 1-5 3-6l112-113l-112-112c-2-2-3-4-3-7c0-2 1-4 3-6l14-14c2-2 5-3 7-3c2 0 5 1 7 3l133 133c2 2 3 4 3 6z"/>
    </symbol>

    <symbol id="fa-exclamation-triangle" viewBox="0 0 512 512">
      <path d="m293 393l0-54c0-3-1-5-3-7-2-2-4-3-7-3l-54 0c-3 0-5 1-7 3-2 2-3 4-3 7l0 54c0 3 1 5 3 7 2 1 4 2 7 2l54 0c3 0 5-1 7-2 2-2 3-4 3-7z m-1-107l5-131c0-2-1-4-3-6-2-2-4-3-7-3l-62 0c-3 0-5 1-7 3-2 2-3 4-3 6l5 131c0 2 1 3 3 5 1 1 4 2 6 2l53 0c3 0 5-1 7-2 2-2 3-3 3-5z m-4-267l219 402c7 12 7 24 0 36-3 6-8 10-13 14-6 3-12 4-19 4l-438 0c-7 0-13-1-19-4-5-4-10-8-13-14-7-12-7-24 0-36l219-402c3-6 8-10 13-14 6-3 12-5 19-5 7 0 13 2 19 5 5 4 10 8 13 14z"/>
    </symbol>

    <symbol id="fa-volume-off" viewBox="0 0 512 512">
      <path d="m366 101l0 310c0 5-2 10-6 13-3 4-8 6-13 6-5 0-9-2-12-6l-96-95-74 0c-5 0-10-2-13-5-4-4-6-8-6-13l0-110c0-5 2-9 6-13 3-3 8-5 13-5l74 0 96-95c3-4 7-6 12-6 5 0 10 2 13 6 4 3 6 8 6 13z"/>
    </symbol>

    <symbol id="fa-clock-o" viewBox="0 0 512 512">
      <path d="m293 155l0 128c0 3-1 5-3 7-2 2-4 3-7 3l-91 0c-3 0-5-1-7-3-1-2-2-4-2-7l0-18c0-3 1-5 2-6 2-2 4-3 7-3l64 0 0-101c0-2 1-4 3-6 1-2 3-3 6-3l18 0c3 0 5 1 7 3 2 2 3 4 3 6z m118 101c0-28-7-54-20-78-14-24-33-43-57-57-24-13-50-20-78-20-28 0-54 7-78 20-24 14-43 33-57 57-13 24-20 50-20 78 0 28 7 54 20 78 14 24 33 43 57 57 24 13 50 20 78 20 28 0 54-7 78-20 24-14 43-33 57-57 13-24 20-50 20-78z m64 0c0 40-9 77-29 110-20 34-46 60-80 80-33 20-70 29-110 29-40 0-77-9-110-29-34-20-60-46-80-80-20-33-29-70-29-110 0-40 9-77 29-110 20-34 46-60 80-80 33-20 70-29 110-29 40 0 77 9 110 29 34 20 60 46 80 80 20 33 29 70 29 110z"/>
    </symbol>

    <symbol id="fa-unlock-alt" viewBox="0 0 512 512">
      <path d="m393 219c8 0 14 3 20 8 5 6 8 12 8 20l0 164c0 8-3 15-8 20-6 5-12 8-20 8l-274 0c-8 0-14-3-20-8-5-5-8-12-8-20l0-164c0-8 3-14 8-20 6-5 12-8 20-8l9 0 0-91c0-35 13-65 38-90 25-25 55-38 90-38 35 0 65 13 90 38 25 25 38 55 38 90 0 5-2 9-5 13-4 3-8 5-13 5l-19 0c-5 0-9-2-12-5-4-4-6-8-6-13 0-20-7-37-21-52-15-14-32-21-52-21-20 0-37 7-52 21-14 15-21 32-21 52l0 91z"/>
    </symbol>

    <symbol id="fa-undo" viewBox="0 0 512 512">
      <path d="m475 256c0 30-5 58-17 85-12 27-27 51-47 70-19 20-43 35-70 47-27 12-55 17-85 17-33 0-64-6-93-20-30-14-55-34-76-59-1-2-2-4-2-6 0-3 1-4 3-6l39-39c2-2 4-3 7-3 3 0 5 2 7 3 13 19 31 33 51 42 20 10 41 15 64 15 20 0 39-4 57-11 18-8 33-18 46-32 14-13 24-28 32-46 7-18 11-37 11-57 0-20-4-39-11-57-8-18-18-33-32-46-13-14-28-24-46-32-18-7-37-11-57-11-19 0-37 3-54 10-17 7-32 16-45 29l39 39c6 6 7 13 4 20-4 8-9 11-17 11l-128 0c-5 0-9-1-13-5-4-4-5-8-5-13l0-128c0-8 3-13 11-17 7-3 14-2 20 4l37 37c20-19 44-34 70-45 26-10 53-15 81-15 30 0 58 5 85 17 27 12 51 27 70 47 20 19 35 43 47 70 12 27 17 55 17 85z"/>
    </symbol>

    <symbol id="fa-th-list" viewBox="0 0 512 512">
      <path d="m146 357l0 54c0 8-2 15-8 20-5 5-12 8-19 8l-92 0c-7 0-14-3-19-8-5-5-8-12-8-20l0-54c0-8 3-15 8-20 5-5 12-8 19-8l92 0c7 0 14 3 19 8 6 5 8 12 8 20z m0-147l0 55c0 8-2 14-8 20-5 5-12 8-19 8l-92 0c-7 0-14-3-19-8-5-6-8-12-8-20l0-55c0-7 3-14 8-19 5-5 12-8 19-8l92 0c7 0 14 3 19 8 6 5 8 12 8 19z m366 147l0 54c0 8-3 15-8 20-5 5-12 8-19 8l-275 0c-7 0-14-3-19-8-5-5-8-12-8-20l0-54c0-8 3-15 8-20 5-5 12-8 19-8l275 0c7 0 14 3 19 8 5 5 8 12 8 20z m-366-293l0 55c0 7-2 14-8 19-5 6-12 8-19 8l-92 0c-7 0-14-2-19-8-5-5-8-12-8-19l0-55c0-8 3-14 8-19 5-6 12-8 19-8l92 0c7 0 14 2 19 8 6 5 8 11 8 19z m366 146l0 55c0 8-3 14-8 20-5 5-12 8-19 8l-275 0c-7 0-14-3-19-8-5-6-8-12-8-20l0-55c0-7 3-14 8-19 5-5 12-8 19-8l275 0c7 0 14 3 19 8 5 5 8 12 8 19z m0-146l0 55c0 7-3 14-8 19-5 6-12 8-19 8l-275 0c-7 0-14-2-19-8-5-5-8-12-8-19l0-55c0-8 3-14 8-19 5-6 12-8 19-8l275 0c7 0 14 2 19 8 5 5 8 11 8 19z"/>
    </symbol>

    <symbol id="fa-google-brands" viewBox="0 0 512 512">
      <path d="m500 262c0 141-97 242-240 242-137 0-248-111-248-248 0-137 111-248 248-248 67 0 123 25 166 65l-67 65c-88-85-253-21-253 118 0 87 69 157 154 157 98 0 135-71 141-107l-141 0 0-86 236 0c2 13 4 25 4 42z"/>
    </symbol>

    <symbol id="fa-angle-right" viewBox="0 0 512 512">
      <path d="m335 274c0 3-1 5-3 7l-133 133c-2 2-5 3-7 3-2 0-5-1-7-3l-14-14c-2-2-3-4-3-7 0-2 1-5 3-6l112-113-112-112c-2-2-3-4-3-7 0-2 1-4 3-6l14-14c2-2 5-3 7-3 2 0 5 1 7 3l133 133c2 2 3 4 3 6z"/>
    </symbol>

    <symbol id="fa-sliders" viewBox="0 0 512 512">
      <path d="m137 402l0 37-100 0 0-37z m101-36c5 0 9 2 13 5 3 4 5 8 5 13l0 73c0 5-2 9-5 13-4 4-8 5-13 5l-73 0c-5 0-10-1-13-5-4-4-6-8-6-13l0-73c0-5 2-9 6-13 3-3 8-5 13-5z m45-110l0 37-246 0 0-37z m-182-146l0 36-64 0 0-36z m374 292l0 37-210 0 0-37z m-274-329c5 0 9 2 13 6 4 3 5 7 5 12l0 74c0 5-1 9-5 12-4 4-8 6-13 6l-73 0c-5 0-9-2-13-6-3-3-5-7-5-12l0-74c0-5 2-9 5-12 4-4 8-6 13-6z m183 146c5 0 9 2 13 6 3 3 5 8 5 13l0 73c0 5-2 9-5 13-4 3-8 5-13 5l-73 0c-5 0-9-2-13-5-4-4-5-8-5-13l0-73c0-5 1-10 5-13 4-4 8-6 13-6z m91 37l0 37-64 0 0-37z m0-146l0 36-246 0 0-36z"/>
    </symbol>

    <symbol id="fa-stop" viewBox="0 0 512 512">
      <path d="m475 55l0 402c0 5-1 9-5 13-4 4-8 5-13 5l-402 0c-5 0-9-1-13-5-4-4-5-8-5-13l0-402c0-5 1-9 5-13 4-4 8-5 13-5l402 0c5 0 9 1 13 5 4 4 5 8 5 13z"/>
    </symbol>

    <symbol id="fa-world" viewBox="0 0 512 512">
      <path d="m248 0c-137 0-248 111-248 248c0 137 111 248 248 248c137 0 248-111 248-248c0-137-111-248-248-248z m216 240l-96 0c-1-35-8-69-19-100c22-9 42-21 60-35c32 36 53 83 55 135z m-225 224c-26-23-49-51-65-85c21-6 43-10 66-11l0 96c0 0-1 0-1 0z m18-432c30 26 55 59 71 98c-23 8-47 13-72 14l0-112c0 0 1 0 1 0z m26 3c45 8 84 28 115 58c-17 13-35 24-55 32c-14-35-35-65-60-90z m-43-3l0 112c-25-1-49-6-72-14c16-39 41-72 71-98c0 0 1 0 1 0z m-87 93c-20-8-38-19-55-32c31-30 70-50 115-58c-25 25-46 55-60 90z m9 20c24 9 51 14 78 15l0 80l-96 0c1-34 7-66 18-95z m78 111l0 96c-25 1-50 5-73 13c-13-33-22-70-23-109z m-27 205c-40-7-76-24-105-49c16-11 33-20 51-27c14 29 32 54 54 76z m43 3l0-96c23 1 45 5 66 11c-16 34-39 62-65 85c0 0-1 0-1 0z m81-79c18 7 35 16 51 27c-29 25-65 42-105 49c22-22 40-47 54-76z m-8-20c-23-8-48-12-73-13l0-96l96 0c-1 39-10 76-23 109z m-73-125l0-80c27-1 54-6 78-15c11 29 17 62 18 95l-96 0z m-169-135c18 14 38 26 60 35c-11 31-18 65-19 100l-96 0c2-52 23-99 55-135z m-55 151l96 0c1 41 10 79 24 114c-20 8-39 19-56 31c-38-37-62-88-64-145z m368 145c-17-12-36-23-56-31c14-35 23-73 24-114l96 0c-2 57-26 108-64 145z"/>
    </symbol>

    <symbol id="fa-info-circle" viewBox="0 0 512 512">
      <path d="m329 393l0-46c0-2-1-4-2-6-2-2-4-3-7-3l-27 0 0-146c0-3-1-5-3-7-2-1-4-2-7-2l-91 0c-3 0-5 1-7 2-1 2-2 4-2 7l0 46c0 2 1 5 2 6 2 2 4 3 7 3l27 0 0 91-27 0c-3 0-5 1-7 3-1 2-2 4-2 6l0 46c0 3 1 5 2 7 2 1 4 2 7 2l128 0c3 0 5-1 7-2 1-2 2-4 2-7z m-36-256l0-46c0-2-1-4-3-6-2-2-4-3-7-3l-54 0c-3 0-5 1-7 3-2 2-3 4-3 6l0 46c0 3 1 5 3 7 2 1 4 2 7 2l54 0c3 0 5-1 7-2 2-2 3-4 3-7z m182 119c0 40-9 77-29 110-20 34-46 60-80 80-33 20-70 29-110 29-40 0-77-9-110-29-34-20-60-46-80-80-20-33-29-70-29-110 0-40 9-77 29-110 20-34 46-60 80-80 33-20 70-29 110-29 40 0 77 9 110 29 34 20 60 46 80 80 20 33 29 70 29 110z"/>
    </symbol>

    <symbol id="fa-circle-info" viewBox="0 0 512 512">
      <path d="M256 48a208 208 0 1 1 0 416 208 208 0 1 1 0-416zm0 464a256 256 0 1 0 0-512 256 256 0 1 0 0 512zM216 336c-13.3 0-24 10.7-24 24s10.7 24 24 24l80 0c13.3 0 24-10.7 24-24s-10.7-24-24-24l-8 0 0-88c0-13.3-10.7-24-24-24l-48 0c-13.3 0-24 10.7-24 24s10.7 24 24 24l24 0 0 64-24 0zm40-144a32 32 0 1 0 0-64 32 32 0 1 0 0 64z"/>
    </symbol>

    <symbol id="fa-lines-leaning" viewBox="0 0 512 512">
      <path d="M190.4 74.1c5.6-16.8-3.5-34.9-20.2-40.5s-34.9 3.5-40.5 20.2l-128 384c-5.6 16.8 3.5 34.9 20.2 40.5s34.9-3.5 40.5-20.2l128-384zm70.9-41.7c-17.4-2.9-33.9 8.9-36.8 26.3l-64 384c-2.9 17.4 8.9 33.9 26.3 36.8s33.9-8.9 36.8-26.3l64-384c2.9-17.4-8.9-33.9-26.3-36.8zM352 32c-17.7 0-32 14.3-32 32V448c0 17.7 14.3 32 32 32s32-14.3 32-32V64c0-17.7-14.3-32-32-32z"/>
    </symbol>

    <symbol id="fa-arrow-right" viewBox="0 0 512 512">
      <path d="m494 255c0 3-1 5-3 7l-110 101c-3 3-6 3-10 2c-3-2-5-5-5-8l0-64l-357 0c-3 0-5-1-6-3c-2-2-3-4-3-7l0-54c0-3 1-5 3-7c1-2 3-3 6-3l357 0l0-64c0-4 2-6 5-8c4-1 7-1 10 2l110 100c2 1 3 4 3 6z"/>
    </symbol>

    <symbol id="fa-arrow-right-long" viewBox="0 0 576 512">
      <path d="M566.6 278.6c12.5-12.5 12.5-32.8 0-45.3l-128-128c-12.5-12.5-32.8-12.5-45.3 0s-12.5 32.8 0 45.3L466.7 224 32 224c-17.7 0-32 14.3-32 32s14.3 32 32 32l434.7 0-73.4 73.4c-12.5 12.5-12.5 32.8 0 45.3s32.8 12.5 45.3 0l128-128z"/>
    </symbol>

    <symbol id="fa-arrow-down" viewBox="0 0 384 512">
      <path d="M169.4 502.6c12.5 12.5 32.8 12.5 45.3 0l160-160c12.5-12.5 12.5-32.8 0-45.3s-32.8-12.5-45.3 0L224 402.7 224 32c0-17.7-14.3-32-32-32s-32 14.3-32 32l0 370.7-105.4-105.4c-12.5-12.5-32.8-12.5-45.3 0s-12.5 32.8 0 45.3l160 160z"/>
    </symbol>

    <symbol id="fa-minus" viewBox="0 0 512 512">
      <path d="m457 210l0 55c0 8-3 14-8 20-5 5-12 8-19 8l-348 0c-7 0-14-3-19-8-5-6-8-12-8-20l0-55c0-7 3-14 8-19 5-5 12-8 19-8l348 0c7 0 14 3 19 8 5 5 8 12 8 19z"/>
    </symbol>

    <symbol id="fa-donut" viewBox="0 0 22 22" fill="none">
      <circle cx="11" cy="11" r="9.75" stroke="#D8D8D8" stroke-width="2.5"/>
    </symbol>

    <symbol id="fa-crooked-arrow" viewBox="0 0 22 13">
      <path d="M14.375 2.875C13.7422 2.875 13.25 2.38281 13.25 1.75C13.25 1.15234 13.7422 0.625 14.375 0.625H20C20.5977 0.625 21.125 1.15234 21.125 1.75V7.375C21.125 8.00781 20.5977 8.5 20 8.5C19.3672 8.5 18.875 8.00781 18.875 7.375V4.49219L12.8984 10.4336C12.4766 10.8906 11.7383 10.8906 11.3164 10.4336L7.58984 6.74219L2.77344 11.5586C2.35156 12.0156 1.61328 12.0156 1.19141 11.5586C0.734375 11.1367 0.734375 10.3984 1.19141 9.97656L6.81641 4.35156C7.23828 3.89453 7.97656 3.89453 8.39844 4.35156L12.125 8.04297L17.2578 2.875H14.375Z"/>
    </symbol>

    <symbol id="fa-star" viewBox="0 0 512 512">
      <path d="m494 185c0 4-3 9-8 14l-103 101 24 143c0 1 0 3 0 5 0 4-1 8-3 10-2 3-4 5-8 5-4 0-8-2-12-4l-128-67-128 67c-4 2-8 4-12 4-4 0-7-2-9-5-2-2-3-6-3-10 0-1 0-3 1-5l24-143-104-101c-4-6-7-10-7-14 0-7 6-12 16-13l144-21 64-130c4-8 8-12 14-12 6 0 10 4 14 12l64 130 144 21c10 1 16 6 16 13z"/>
    </symbol>

    <symbol id="fa-star-empty" viewBox="0 0 576 512">
      <path d="M288.1-32c9 0 17.3 5.1 21.4 13.1L383 125.3 542.9 150.7c8.9 1.4 16.3 7.7 19.1 16.3s.5 18-5.8 24.4L441.7 305.9 467 465.8c1.4 8.9-2.3 17.9-9.6 23.2s-17 6.1-25 2L288.1 417.6 143.8 491c-8 4.1-17.7 3.3-25-2s-11-14.2-9.6-23.2L134.4 305.9 20 191.4c-6.4-6.4-8.6-15.8-5.8-24.4s10.1-14.9 19.1-16.3l159.9-25.4 73.6-144.2c4.1-8 12.4-13.1 21.4-13.1zm0 76.8L230.3 158c-3.5 6.8-10 11.6-17.6 12.8l-125.5 20 89.8 89.9c5.4 5.4 7.9 13.1 6.7 20.7l-19.8 125.5 113.3-57.6c6.8-3.5 14.9-3.5 21.8 0l113.3 57.6-19.8-125.5c-1.2-7.6 1.3-15.3 6.7-20.7l89.8-89.9-125.5-20c-7.6-1.2-14.1-6-17.6-12.8L288.1 44.8z"/>
    </symbol>

    <symbol id="fa-graduation-cap-circle" viewBox="0 0 30 31" fill="none">
      <path d="M30 15.8125C30 24.0968 23.2843 30.8125 15 30.8125C6.71573 30.8125 0 24.0968 0 15.8125C0 7.52823 6.71573 0.8125 15 0.8125C23.2843 0.8125 30 7.52823 30 15.8125ZM3.75 15.8125C3.75 22.0257 8.7868 27.0625 15 27.0625C21.2132 27.0625 26.25 22.0257 26.25 15.8125C26.25 9.5993 21.2132 4.5625 15 4.5625C8.7868 4.5625 3.75 9.5993 3.75 15.8125Z" fill="#FFC026"/>
      <path d="M22.3281 13.6094C22.8672 13.7734 22.8672 14.5 22.3281 14.6641L15.7891 16.6797C15.3203 16.8203 14.8984 16.75 14.6875 16.6797L10.1172 15.2734C9.8125 15.4609 9.64844 15.7891 9.625 16.1406C9.83594 16.2578 10 16.4922 10 16.75C10 17.0078 9.85938 17.2188 9.67188 17.3594L10.2578 20.0547C10.3047 20.2891 10.1406 20.5 9.90625 20.5H8.57031C8.33594 20.5 8.17188 20.2891 8.21875 20.0547L8.80469 17.3594C8.61719 17.2188 8.5 17.0078 8.5 16.75C8.5 16.4922 8.64062 16.2578 8.875 16.1172C8.89844 15.7188 9.03906 15.3203 9.29688 15.0156L8.14844 14.6641C7.60938 14.5 7.60938 13.7734 8.14844 13.6094L14.6875 11.5938C15.0391 11.4766 15.4375 11.4766 15.7891 11.5938L22.3281 13.6094ZM16 17.4062L19.3984 16.3516L19.75 19C19.75 19.8438 17.7344 20.5 15.25 20.5C12.7422 20.5 10.75 19.8438 10.75 19L11.0781 16.3516L14.4766 17.4062C14.7578 17.5 15.3438 17.5938 16 17.4062Z" fill="#FFC026"/>
    </symbol>

    <symbol id="fa-sort" viewBox="0 0 320 512">
      <path d="M137.4 41.4c12.5-12.5 32.8-12.5 45.3 0l128 128c9.2 9.2 11.9 22.9 6.9 34.9s-16.6 19.8-29.6 19.8H32c-12.9 0-24.6-7.8-29.6-19.8s-2.2-25.7 6.9-34.9l128-128zm0 429.3l-128-128c-9.2-9.2-11.9-22.9-6.9-34.9s16.6-19.8 29.6-19.8H288c12.9 0 24.6 7.8 29.6 19.8s2.2 25.7-6.9 34.9l-128 128c-12.5 12.5-32.8 12.5-45.3 0z"/>
    </symbol>

    <symbol id="fa-sort-up" viewBox="0 0 320 512">
      <path d="M182.6 41.4c-12.5-12.5-32.8-12.5-45.3 0l-128 128c-9.2 9.2-11.9 22.9-6.9 34.9s16.6 19.8 29.6 19.8H288c12.9 0 24.6-7.8 29.6-19.8s2.2-25.7-6.9-34.9l-128-128z"/>
    </symbol>

    <symbol id="fa-sort-down" viewBox="0 0 320 512">
      <path d="M41 288h238c21.4 0 32.1 25.9 17 41L177 448c-9.4 9.4-24.6 9.4-33.9 0L24 329c-15.1-15.1-4.4-41 17-41z"/>
    </symbol>

    <symbol id="fa-download" viewBox="0 0 512 512">
      <path d="M288 32c0-17.7-14.3-32-32-32s-32 14.3-32 32V274.7l-73.4-73.4c-12.5-12.5-32.8-12.5-45.3 0s-12.5 32.8 0 45.3l128 128c12.5 12.5 32.8 12.5 45.3 0l128-128c12.5-12.5 12.5-32.8 0-45.3s-32.8-12.5-45.3 0L288 274.7V32zM64 352c-35.3 0-64 28.7-64 64v32c0 35.3 28.7 64 64 64H448c35.3 0 64-28.7 64-64V416c0-35.3-28.7-64-64-64H346.5l-45.3 45.3c-25 25-65.5 25-90.5 0L165.5 352H64zm368 56a24 24 0 1 1 0 48 24 24 0 1 1 0-48z"/>
    </symbol>

    <symbol id="fa-hourglass" viewBox="0 0 14 19">
      <path d="M12.9062 0.75C13.3633 0.75 13.75 1.13672 13.75 1.59375V2.15625C13.75 2.64844 13.3633 3 12.9062 3C12.9062 6.19922 11.0781 8.90625 8.65234 9.75C11.0781 10.6289 12.9062 13.3359 12.9062 16.5C13.3633 16.5 13.75 16.8867 13.75 17.3438V17.9062C13.75 18.3984 13.3633 18.75 12.9062 18.75H1.09375C0.601562 18.75 0.25 18.3984 0.25 17.9062V17.3438C0.25 16.8867 0.601562 16.5 1.09375 16.5C1.09375 13.3359 2.88672 10.6289 5.3125 9.75C2.88672 8.90625 1.09375 6.19922 1.09375 3C0.601562 3 0.25 2.64844 0.25 2.15625V1.59375C0.25 1.13672 0.601562 0.75 1.09375 0.75H12.9062ZM10.2344 14.25C9.63672 12.6328 8.40625 11.4375 7 11.4375C5.55859 11.4375 4.32812 12.6328 3.73047 14.25H10.2344ZM10.2344 5.25C10.5156 4.58203 10.6562 3.80859 10.6562 3H3.34375C3.34375 3.80859 3.44922 4.58203 3.73047 5.25H10.2344Z"/>
    </symbol>

    <symbol id="fa-hourglass-now" viewBox="0 0 18 25">
      <path d="M16.875 3.5C16.875 7.76562 14.4375 11.375 11.2031 12.5C14.4375 13.6719 16.875 17.2812 16.875 21.5C17.4844 21.5 18 22.0156 18 22.625V23.375C18 24.0312 17.4844 24.5 16.875 24.5H1.125C0.46875 24.5 0 24.0312 0 23.375V22.625C0 22.0156 0.46875 21.5 1.125 21.5C1.125 17.2812 3.51562 13.6719 6.75 12.5C3.51562 11.375 1.125 7.76562 1.125 3.5C0.46875 3.5 0 3.03125 0 2.375V1.625C0 1.01562 0.46875 0.5 1.125 0.5H16.875C17.4844 0.5 18 1.01562 18 1.625V2.375C18 3.03125 17.4844 3.5 16.875 3.5ZM9 10.25C11.6719 10.25 13.875 7.15625 13.875 3.5H4.125C4.125 7.15625 6.28125 10.25 9 10.25Z"/>
    </symbol>

    <symbol id="fa-share" viewBox="0 0 512 512">
      <path d="m512 183c0 5-2 9-5 13l-147 146c-3 4-8 5-13 5-5 0-9-1-12-5-4-4-6-8-6-13l0-73-64 0c-19 0-35 1-50 2-15 1-29 3-44 6-15 3-27 7-38 12-11 5-21 12-30 20-9 8-17 18-23 29-6 11-11 24-14 39-3 16-5 33-5 52 0 10 1 22 2 35 0 1 0 4 0 7 1 3 1 6 1 7 0 3-1 6-2 8-2 1-4 2-7 2-3 0-6-1-8-4-1-2-3-4-4-7-1-2-2-5-4-8-1-4-2-6-3-7-24-54-36-97-36-129 0-38 5-70 15-95 31-77 114-115 250-115l64 0 0-73c0-5 2-10 6-13 3-4 7-6 12-6 5 0 10 2 13 6l147 146c3 4 5 8 5 13z"/>
    </symbol>

    <symbol id="fa-floppy-o" viewBox="0 0 512 512">
      <path d="m146 439l220 0 0-110-220 0z m256 0l37 0 0-256c0-3-1-6-3-11-2-5-4-8-6-10l-80-80c-2-2-5-4-10-6-4-2-8-3-11-3l0 119c0 8-3 14-8 19-5 6-12 8-19 8l-165 0c-7 0-14-2-19-8-6-5-8-11-8-19l0-119-37 0 0 366 37 0 0-119c0-8 2-14 8-19 5-6 12-8 19-8l238 0c7 0 14 2 19 8 6 5 8 11 8 19z m-109-265l0-92c0-2-1-4-3-6-2-2-4-3-7-3l-54 0c-3 0-5 1-7 3-2 2-3 4-3 6l0 92c0 2 1 4 3 6 2 2 4 3 7 3l54 0c3 0 5-1 7-3 2-2 3-4 3-6z m182 9l0 265c0 8-2 14-8 19-5 6-11 8-19 8l-384 0c-8 0-14-2-19-8-6-5-8-11-8-19l0-384c0-8 2-14 8-19 5-6 11-8 19-8l265 0c8 0 16 1 25 5 9 4 17 9 22 14l80 80c5 5 10 13 14 22 4 9 5 17 5 25z"/>
    </symbol>

    <symbol id="fa-files" viewBox="0 0 512 512">
      <path d="m485 110c7 0 14 2 19 8c5 5 8 12 8 19l0 348c0 7-3 14-8 19c-5 5-12 8-19 8l-275 0c-7 0-14-3-19-8c-5-5-8-12-8-19l0-83l-156 0c-7 0-14-2-19-8c-5-5-8-12-8-19l0-192c0-8 2-16 6-25c4-9 8-17 13-22l117-117c5-5 13-9 22-13c9-4 17-6 25-6l119 0c7 0 14 3 19 8c5 5 8 12 8 19l0 94c13-7 25-11 37-11z m-156 61l-85 85l85 0z m-183-110l-85 85l85 0z m56 185l91-91l0-118l-110 0l0 118c0 8-3 15-8 20c-5 5-12 8-20 8l-118 0l0 183l146 0l0-73c0-8 2-16 6-26c3-9 8-16 13-21z m273 229l0-329l-109 0l0 119c0 8-3 14-8 20c-6 5-12 8-20 8l-119 0l0 182z"/>
    </symbol>

    <symbol id="fa-close" viewBox="0 0 512 512">
      <path d="M400 112c-9.4-9.4-24.6-9.4-33.9 0L256 222.1 145.9 112c-9.4-9.4-24.6-9.4-33.9 0L112 112c-9.4 9.4-9.4 24.6 0 33.9L222.1 256 112 366.1c-9.4 9.4-9.4 24.6 0 33.9l.1 .1c9.4 9.4 24.6 9.4 33.9 0L256 289.9 366.1 400c9.4 9.4 24.6 9.4 33.9 0l.1-.1c9.4-9.4 9.4-24.6 0-33.9L289.9 256 400 145.9c9.4-9.4 9.4-24.6 0-33.9l-.1-.1z"/>
    </symbol>
    <symbol id="fa-pause"  viewBox="0 0 320 512">
      <path d="M48 64C21.5 64 0 85.5 0 112L0 400c0 26.5 21.5 48 48 48l32 0c26.5 0 48-21.5 48-48l0-288c0-26.5-21.5-48-48-48L48 64zm192 0c-26.5 0-48 21.5-48 48l0 288c0 26.5 21.5 48 48 48l32 0c26.5 0 48-21.5 48-48l0-288c0-26.5-21.5-48-48-48l-32 0z"/>
    </symbol>

    <symbol id="fa-play" viewBox="0 0 384 512">
      <path d="M73 39c-14.8-9.1-33.4-9.4-48.5-.9S0 62.6 0 80L0 432c0 17.4 9.4 33.4 24.5 41.9s33.7 8.1 48.5-.9L361 297c14.3-8.7 23-24.2 23-41s-8.7-32.2-23-41L73 39z"/>
    </symbol>

    <symbol id="fa-play-regular" viewBox="0 0 640 640">
      <path d="M147.6 101.6C135.5 108.8 128 121.9 128 136L128 504C128 518.1 135.5 531.2 147.6 538.4C159.7 545.6 174.8 545.9 187.2 539.1L523.2 355.1C536 348.1 544 334.6 544 320C544 305.4 536 291.9 523.2 284.9L187.2 100.9C174.8 94.1 159.8 94.4 147.6 101.6zM176 490.5L176 149.5L487.3 320L176 490.5z"/>
    </symbol>

    <symbol id="fa-crown" viewBox="0 0 576 512">
      <path d="M309 106c11.4-7 19-19.7 19-34c0-22.1-17.9-40-40-40s-40 17.9-40 40c0 14.4 7.6 27 19 34l-5.8 11.6L209.7 220.6c-9.1 18.2-32.7 23.4-48.6 10.7l-72-57.6L72 160c5-6.7 8-15 8-24c0-22.1-17.9-40-40-40S0 113.9 0 136s17.9 40 40 40c.2 0 .5 0 .7 0l4.4 23.9L86.4 427.4c5.5 30.4 32 52.6 63 52.6l277.2 0c30.9 0 57.4-22.1 63-52.6l41.4-227.5 4.4-23.9c.2 0 .5 0 .7 0c22.1 0 40-17.9 40-40s-17.9-40-40-40s-40 17.9-40 40c0 9 3 17.3 8 24l-17.1 13.7-72 57.6c-15.9 12.7-39.5 7.5-48.6-10.7L314.8 117.7 309 106zM133.7 418.9L102.2 245.6l28.9 23.1c39.8 31.8 98.8 18.9 121.5-26.7L288 171.3l35.4 70.7c22.8 45.6 81.8 58.5 121.5 26.7l28.9-23.1L442.3 418.9c-1.4 7.6-8 13.1-15.7 13.1l-277.2 0c-7.7 0-14.4-5.5-15.7-13.1z"/>
    </symbol>

    <symbol id="fa-reddit" viewBox="0 0 512 512">
      <path d="M373 138.6c-25.2 0-46.3-17.5-51.9-41l0 0c-30.6 4.3-54.2 30.7-54.2 62.4l0 .2c47.4 1.8 90.6 15.1 124.9 36.3c12.6-9.7 28.4-15.5 45.5-15.5c41.3 0 74.7 33.4 74.7 74.7c0 29.8-17.4 55.5-42.7 67.5c-2.4 86.8-97 156.6-213.2 156.6S45.5 410.1 43 323.4C17.6 311.5 0 285.7 0 255.7c0-41.3 33.4-74.7 74.7-74.7c17.2 0 33 5.8 45.7 15.6c34-21.1 76.8-34.4 123.7-36.4l0-.3c0-44.3 33.7-80.9 76.8-85.5C325.8 50.2 347.2 32 373 32c29.4 0 53.3 23.9 53.3 53.3s-23.9 53.3-53.3 53.3zM157.5 255.3c-20.9 0-38.9 20.8-40.2 47.9s17.1 38.1 38 38.1s36.6-9.8 37.8-36.9s-14.7-49.1-35.7-49.1zM395 303.1c-1.2-27.1-19.2-47.9-40.2-47.9s-36.9 22-35.7 49.1c1.2 27.1 16.9 36.9 37.8 36.9s39.3-11 38-38.1zm-60.1 70.8c1.5-3.6-1-7.7-4.9-8.1c-23-2.3-47.9-3.6-73.8-3.6s-50.8 1.3-73.8 3.6c-3.9 .4-6.4 4.5-4.9 8.1c12.9 30.8 43.3 52.4 78.7 52.4s65.8-21.6 78.7-52.4z"/>
    </symbol>

    <symbol id="fa-telegram" viewBox="80 120 340 300">
      <path d="M362.952,176.66c-3.732,39.215-19.881,134.378-28.1,178.3-3.476,18.584-10.322,24.816-16.948,25.425-14.4,1.326-25.338-9.517-39.287-18.661-21.827-14.308-34.158-23.215-55.346-37.177-24.485-16.135-8.612-25,5.342-39.5,3.652-3.793,67.107-61.51,68.335-66.746.153-.655.3-3.1-1.154-4.384s-3.59-.849-5.135-.5q-3.283.746-104.608,69.142-14.845,10.194-26.894,9.934c-8.855-.191-25.888-5.006-38.551-9.123-15.531-5.048-27.875-7.717-26.8-16.291q.84-6.7,18.45-13.7,108.446-47.248,144.628-62.3c68.872-28.647,83.183-33.623,92.511-33.789,2.052-.034,6.639.474,9.61,2.885a10.452,10.452,0,0,1,3.53,6.716A43.765,43.765,0,0,1,362.952,176.66Z"/>
    </symbol>

    <symbol id="fa-arrow-rotate-left" viewBox="0 0 640 640">
      <path d="M320 128C263.2 128 212.1 152.7 176.9 192L224 192C241.7 192 256 206.3 256 224C256 241.7 241.7 256 224 256L96 256C78.3 256 64 241.7 64 224L64 96C64 78.3 78.3 64 96 64C113.7 64 128 78.3 128 96L128 150.7C174.9 97.6 243.5 64 320 64C461.4 64 576 178.6 576 320C576 461.4 461.4 576 320 576C233 576 156.1 532.6 109.9 466.3C99.8 451.8 103.3 431.9 117.8 421.7C132.3 411.5 152.2 415.1 162.4 429.6C197.2 479.4 254.8 511.9 320 511.9C426 511.9 512 425.9 512 319.9C512 213.9 426 128 320 128z"/>
    </symbol>

    <symbol id="fa-shield-check-o" viewBox="70 54 500 524">
      <path d="M320.1 64C324.7 64 329.3 65 333.4 66.9L521.8 146.8C543.8 156.1 560.2 177.8 560.1 204C559.6 303.2 518.8 484.7 346.5 567.2C329.8 575.2 310.4 575.2 293.7 567.2C121.3 484.7 80.5 303.3 80 204C79.9 177.8 96.3 156.1 118.3 146.8L306.7 66.9C310.8 65 315.4 64 320.1 64zM137.1 191C131.2 193.5 128 198.7 128.1 203.7C128.6 295.1 166.5 453 314.5 523.8C318.1 525.5 322.3 525.5 325.8 523.8C473.8 453 511.7 295.1 512.1 203.7C512.1 198.7 509 193.5 503.1 191L320.1 113.4L137.1 191zM377.4 225.9C385.2 215.2 400.2 212.8 410.9 220.6C421.6 228.4 424 243.4 416.2 254.1L313.8 394.9C309.6 400.6 303.1 404.2 296 404.7C288.9 405.2 282 402.5 277.1 397.4L230.7 349.4C221.5 339.9 221.7 324.7 231.3 315.5C240.8 306.3 256 306.6 265.2 316.1L291.7 343.5L377.3 225.8z"/>
    </symbol>

    <symbol id="fa-shield-check" viewBox="0 0 512 512">
      <path d="M256.1 0c4.6 0 9.2 1 13.3 2.9L457.8 82.8c22 9.3 38.4 31 38.3 57.2-.5 99.2-41.3 280.7-213.7 363.2-16.7 8-36.1 8-52.7 0-172.4-82.5-213.1-263.9-213.6-363.2-.1-26.2 16.3-47.9 38.3-57.2L242.7 2.9C246.8 1 251.4 0 256.1 0zm90.9 164.6c-10.7-7.8-25.7-5.4-33.5 5.3l-85.6 117.7-26.5-27.4c-9.2-9.5-24.4-9.8-33.9-.6-9.5 9.2-9.8 24.4-.6 33.9l46.4 48c4.9 5.1 11.8 7.8 18.9 7.3s13.6-4.1 17.8-9.8L352.3 198.1c7.8-10.7 5.4-25.7-5.3-33.5z"/>
    </symbol>

    <symbol id="fa-bolt" viewBox="0 0 448 512">
      <path d="M360-9.9c11.9 8.6 16.3 24.2 10.9 37.8L290 224 390 224c13.5 0 25.5 8.4 30.1 21.1s.7 26.9-9.6 35.5l-308 240c-11.3 9.4-27.4 9.9-39.3 1.3s-16.3-24.2-10.9-37.8L170 288 70 288c-13.5 0-25.5-8.4-30.1-21.1s-.7-26.9 9.6-35.5l308-240c11.3-9.4 27.4-9.9 39.3-1.3z"/>
    </symbol>

    <symbol id="fa-gear" viewBox="0 0 512 512">
      <path d="M195.1 9.5C198.1-5.3 211.2-16 226.4-16l59.8 0c15.2 0 28.3 10.7 31.3 25.5L332 79.5c14.1 6 27.3 13.7 39.3 22.8l67.8-22.5c14.4-4.8 30.2 1.2 37.8 14.4l29.9 51.8c7.6 13.2 4.9 29.8-6.5 39.9L447 233.3c.9 7.4 1.3 15 1.3 22.7s-.5 15.3-1.3 22.7l53.4 47.5c11.4 10.1 14 26.8 6.5 39.9l-29.9 51.8c-7.6 13.1-23.4 19.2-37.8 14.4l-67.8-22.5c-12.1 9.1-25.3 16.7-39.3 22.8l-14.4 69.9c-3.1 14.9-16.2 25.5-31.3 25.5l-59.8 0c-15.2 0-28.3-10.7-31.3-25.5l-14.4-69.9c-14.1-6-27.2-13.7-39.3-22.8L73.5 432.3c-14.4 4.8-30.2-1.2-37.8-14.4L5.8 366.1c-7.6-13.2-4.9-29.8 6.5-39.9l53.4-47.5c-.9-7.4-1.3-15-1.3-22.7s.5-15.3 1.3-22.7L12.3 185.8c-11.4-10.1-14-26.8-6.5-39.9L35.7 94.1c7.6-13.2 23.4-19.2 37.8-14.4l67.8 22.5c12.1-9.1 25.3-16.7 39.3-22.8L195.1 9.5zM256.3 336a80 80 0 1 0 -.6-160 80 80 0 1 0 .6 160z"/>
    </symbol>
</svg>
