<svg width="120" height="41" viewBox="0 0 120 41" fill="none" xmlns="http://www.w3.org/2000/svg">
<g clip-path="url(#clip0_2016_338)">
<path d="M31.1426 6.25034H14.7739V18.9631H7.50537V0.78125H31.1426V6.25034Z" fill="#495354"/>
<path d="M29.3109 24.432H14.7739V18.9629H29.3109V24.432Z" fill="#495354"/>
<path d="M7.50532 40.7808H0.236816V26.2354H7.50532V40.7808Z" fill="#495354"/>
<path d="M40.2136 0.78125H45.9412V2.49761H42.2488V4.59216H45.3888V6.30852H42.2488V9.85761H40.1846V0.78125H40.2136Z" fill="#495354"/>
<path d="M54.8088 9.88691L52.7445 6.25055C53.704 5.81418 54.3727 4.97055 54.3727 3.63237C54.3727 1.47964 52.8027 0.810547 50.8547 0.810547H47.5693V9.916H49.6336V6.59964H50.7675L52.5119 9.85782H54.8088V9.88691ZM49.6336 2.41055H50.6803C51.756 2.41055 52.3375 2.70146 52.3375 3.60327C52.3375 4.50509 51.756 4.97055 50.6803 4.97055H49.6336V2.41055Z" fill="#495354"/>
<path d="M56.2046 0.78125H61.9031V2.49761H58.2688V4.33034H61.3798V6.0467H58.2688V8.14125H62.0485V9.85761H56.2046V0.78125Z" fill="#495354"/>
<path d="M63.9092 0.78125H65.9734V9.8867H63.9092V0.78125Z" fill="#495354"/>
<path d="M68.0376 0.78125H73.7361V2.49761H70.1018V4.33034H73.2128V6.0467H70.1018V8.14125H73.8815V9.85761H68.0376V0.78125Z" fill="#495354"/>
<path d="M110.078 14.6579C110.66 14.6579 111.067 14.2506 111.067 13.6688C111.067 13.1161 110.66 12.6797 110.078 12.6797C109.497 12.6797 109.09 13.087 109.09 13.6688C109.09 14.2506 109.497 14.6579 110.078 14.6579Z" fill="#495354"/>
<path d="M106.996 14.6579C107.578 14.6579 107.985 14.2506 107.985 13.6688C107.985 13.1161 107.578 12.6797 106.996 12.6797C106.415 12.6797 106.008 13.087 106.008 13.6688C106.008 14.2506 106.415 14.6579 106.996 14.6579Z" fill="#495354"/>
<path d="M40.2134 20.2144V15.3271H42.2776V20.4181C42.2776 22.1926 42.83 22.8035 43.8476 22.8035C44.8652 22.8035 45.4467 22.1926 45.4467 20.4181V15.3271H47.4237V20.2144C47.4237 23.269 46.1736 24.6072 43.8476 24.6072C41.4926 24.6072 40.2134 23.269 40.2134 20.2144Z" fill="#495354"/>
<path d="M49.3135 15.3271H51.4068L53.7909 19.8362L54.6922 21.8435H54.7503C54.6631 20.8835 54.4887 19.6035 54.4887 18.5271V15.3271H56.4366V24.4326H54.3433L51.9883 19.8944L51.087 17.9162H51.0288C51.1161 18.9053 51.2905 20.1271 51.2905 21.2035V24.4326H49.3425V15.3271H49.3135Z" fill="#495354"/>
<path d="M58.501 15.3271H60.5652V24.4326H58.501V15.3271Z" fill="#495354"/>
<path d="M61.583 15.3271H63.7636L64.8684 19.5744C65.13 20.5635 65.3336 21.4944 65.5952 22.4835H65.6534C65.915 21.4944 66.1186 20.5635 66.3802 19.5744L67.456 15.3271H69.5493L66.8163 24.4326H64.345L61.583 15.3271Z" fill="#495354"/>
<path d="M70.5669 15.3271H76.2654V17.0726H72.6312V18.9053H75.7421V20.6217H72.6312V22.7162H76.4108V24.4326H70.5669V15.3271Z" fill="#495354"/>
<path d="M85.3651 24.4328L83.3009 20.7964C84.2603 20.3601 84.929 19.5164 84.929 18.1783C84.929 16.0255 83.359 15.3564 81.4111 15.3564H78.1548V24.4619H80.219V21.1746H81.3529L83.0974 24.4328H85.3651ZM80.219 16.9855H81.2657C82.3414 16.9855 82.9229 17.2764 82.9229 18.1783C82.9229 19.0801 82.3414 19.5455 81.2657 19.5455H80.219V16.9855Z" fill="#495354"/>
<path d="M85.9761 23.2974L87.1681 21.9011C87.8077 22.4538 88.6509 22.8611 89.4068 22.8611C90.25 22.8611 90.6861 22.512 90.6861 21.9884C90.6861 21.4065 90.1627 21.232 89.3777 20.912L88.1857 20.4174C87.2553 20.0393 86.354 19.2538 86.354 17.9447C86.354 16.432 87.6914 15.2393 89.5813 15.2393C90.6279 15.2393 91.7327 15.6465 92.5177 16.432L91.4711 17.7411C90.8605 17.2756 90.3081 17.0429 89.5813 17.0429C88.8835 17.0429 88.4183 17.3338 88.4183 17.8574C88.4183 18.4102 88.9998 18.6138 89.8139 18.9338L90.9768 19.3993C92.0816 19.8356 92.7794 20.592 92.7794 21.872C92.7794 23.3847 91.5292 24.6938 89.3487 24.6938C88.1566 24.6065 86.9064 24.1411 85.9761 23.2974Z" fill="#495354"/>
<path d="M94.4072 15.3271H96.4715V24.4326H94.4072V15.3271Z" fill="#495354"/>
<path d="M100.368 17.0726H97.8672V15.3271H104.903V17.0726H102.403V24.4326H100.338V17.0726H100.368Z" fill="#495354"/>
<path d="M110.485 24.4326H112.666L109.817 15.3271H107.345L104.496 24.4326H106.589L107.142 22.2799H109.904L110.485 24.4326ZM107.578 20.6799L107.811 19.8362C108.072 18.9344 108.305 17.8581 108.537 16.8981H108.596C108.828 17.8581 109.09 18.9344 109.322 19.8362L109.526 20.6799H107.578Z" fill="#495354"/>
<path d="M114.672 17.0726H112.171V15.3271H119.236V17.0726H116.736V24.4326H114.672V17.0726Z" fill="#495354"/>
<path d="M40.2134 31.6758H42.801C44.6326 31.6758 45.8828 32.3158 45.8828 33.8867C45.8828 34.8176 45.3886 35.574 44.5163 35.8649V35.9231C45.6502 36.1267 46.4061 36.854 46.4061 38.1049C46.4061 39.8794 45.0397 40.7521 43.0045 40.7521H40.2134V31.6758ZM42.5974 35.6031C44.2837 35.6031 44.9524 34.9921 44.9524 34.0031C44.9524 32.8685 44.1674 32.4321 42.6556 32.4321H41.1728V35.6031H42.5974ZM42.83 40.0249C44.4873 40.0249 45.4758 39.414 45.4758 38.1049C45.4758 36.9121 44.5163 36.3594 42.83 36.3594H41.1437V40.0249H42.83Z" fill="#495354"/>
<path d="M48.354 31.6758H53.471V32.4903H49.2844V35.574H52.8023V36.3885H49.2844V39.9667H53.6164V40.7812H48.354V31.6758Z" fill="#495354"/>
<path d="M61.7283 40.7812L59.3443 36.7085C60.6526 36.4467 61.4957 35.6031 61.4957 34.1776C61.4957 32.3449 60.2165 31.6758 58.3848 31.6758H55.6519V40.7812H56.6113V36.7958H58.3557L60.6526 40.7812H61.7283ZM56.5822 32.4612H58.2104C59.6931 32.4612 60.5363 32.9267 60.5363 34.1776C60.5363 35.4285 59.7222 36.0103 58.2104 36.0103H56.5822V32.4612Z" fill="#495354"/>
<path d="M63.4434 31.6758H64.4028V39.9667H68.4441V40.7812H63.4434V31.6758Z" fill="#495354"/>
<path d="M70.1016 31.6758H71.061V40.7812H70.1016V31.6758Z" fill="#495354"/>
<path d="M73.6777 31.6758H74.6662L78.1551 37.6685L79.1436 39.5303H79.2018C79.1437 38.6285 79.0855 37.6685 79.0855 36.7376V31.6758H79.9868V40.7812H79.0274L75.5385 34.7885L74.55 32.9267H74.4918C74.55 33.8285 74.6081 34.7303 74.6081 35.6612V40.7812H73.7068V31.6758H73.6777Z" fill="#495354"/>
</g>
<defs>
<clipPath id="clip0_2016_338">
<rect width="119" height="40" fill="white" transform="translate(0.236816 0.78125)"/>
</clipPath>
</defs>
</svg>
