<svg width="167" height="41" viewBox="0 0 167 41" fill="none" xmlns="http://www.w3.org/2000/svg">
<path d="M135.35 17.8492V16.5166H130.363V17.8492H131.999V27.7578H130.363V29.0904H135.35V27.7578H133.714V17.8492H135.35Z" fill="#495354"/>
<path d="M35.9468 29.0918H37.6751V23.524H43.6254V21.9935H37.6751V18.0617H44.3247V16.5312H35.9468V29.0918Z" fill="#495354"/>
<path d="M59.3927 22.6122C59.8149 22.0448 60.0392 21.2268 60.0392 20.2109C60.0392 18.9311 59.6961 17.9811 59.0233 17.4006C58.3504 16.8201 57.2685 16.5166 55.8172 16.5166H50.8828V29.0904H52.598V23.9052H55.4874L58.7858 29.0772H60.844L57.4532 23.7468C58.324 23.5621 58.9837 23.1795 59.4059 22.6122H59.3927ZM52.5848 18.0603H55.738C56.6616 18.0603 57.3213 18.2186 57.7171 18.5485C58.0997 18.8651 58.2976 19.4324 58.2976 20.2109C58.2976 20.9893 58.0997 21.5567 57.7171 21.8733C57.3213 22.2032 56.6616 22.3615 55.738 22.3615H52.5848V18.0471V18.0603Z" fill="#495354"/>
<path d="M69.1053 23.4712H75.3459V21.9275H69.1053V18.0617H76.375V16.5312H67.3901V29.0918H76.4937V27.5613H69.1053V23.4712Z" fill="#495354"/>
<path d="M88.3939 22.0704L86.9821 21.7538C86.1378 21.5691 85.544 21.3316 85.2274 21.0413C84.9107 20.751 84.7524 20.3684 84.7524 19.8671C84.7524 18.5081 85.6892 17.822 87.5363 17.822C88.9084 17.822 90.0694 18.1519 90.9666 18.7852L91.0194 18.8247V17.07H91.0062C90.2805 16.5422 89.0931 16.2783 87.4835 16.2783C84.5413 16.2783 83.0373 17.5185 83.0373 19.9726C83.0373 20.8566 83.2747 21.5823 83.7497 22.1232C84.2115 22.6642 85.0295 23.06 86.1509 23.3239L87.5231 23.6405C88.473 23.8516 89.1195 24.1155 89.4625 24.3926C89.8056 24.6696 89.9771 25.0786 89.9771 25.6196C89.9771 27.0445 89.0008 27.757 87.0877 27.757C85.4517 27.757 84.04 27.3216 82.8921 26.4772L82.8394 26.4376V28.2056C83.7497 28.9313 85.1614 29.2875 87.0349 29.2875C90.1222 29.2875 91.6791 28.0341 91.6791 25.5536C91.6791 24.6169 91.4284 23.8516 90.9138 23.2843C90.4125 22.7169 89.5549 22.2947 88.3807 22.044L88.3939 22.0704Z" fill="#495354"/>
<path d="M100.188 23.4712H106.429V21.9275H100.188V18.0617H107.458V16.5312H98.46V29.0918H107.577V27.5613H100.188V23.4712Z" fill="#495354"/>
<path d="M122.644 25.9781L116.47 16.5444L116.457 16.5312H114.319V29.0918H115.969V18.8534L122.671 29.0786L122.684 29.0918H124.294V16.5312H122.644V25.9781Z" fill="#495354"/>
<path d="M149.043 24.5913C149.043 25.6995 148.792 26.5044 148.317 27.0057C147.842 27.5071 147.051 27.7578 145.969 27.7578C144.887 27.7578 144.122 27.5071 143.634 27.0057C143.146 26.5044 142.908 25.6995 142.908 24.5913V16.5166H141.193V24.4329C141.193 26.1217 141.575 27.3752 142.328 28.1404C143.08 28.9057 144.307 29.3015 145.943 29.3015C147.579 29.3015 148.806 28.9057 149.544 28.1404C150.296 27.3752 150.679 26.1217 150.679 24.4329V16.5166H149.03V24.5913H149.043Z" fill="#495354"/>
<path d="M165.485 23.3253C164.984 22.758 164.126 22.3358 162.952 22.0851L161.54 21.7684C160.696 21.5837 160.102 21.3462 159.785 21.056C159.469 20.7657 159.311 20.3831 159.311 19.8817C159.311 18.5227 160.247 17.8367 162.094 17.8367C163.467 17.8367 164.628 18.1665 165.525 18.7998L165.577 18.8394V17.0846H165.564C164.839 16.5568 163.651 16.293 162.042 16.293C159.099 16.293 157.595 17.5332 157.595 19.9873C157.595 20.8713 157.833 21.5969 158.308 22.1379C158.77 22.6788 159.588 23.0746 160.709 23.3385L162.081 23.6552C163.031 23.8663 163.678 24.1301 164.021 24.4072C164.364 24.6843 164.535 25.0933 164.535 25.6342C164.535 27.0592 163.559 27.7716 161.646 27.7716C160.01 27.7716 158.598 27.3363 157.45 26.4918L157.397 26.4523V28.2202C158.308 28.9459 159.72 29.3021 161.593 29.3021C164.68 29.3021 166.237 28.0487 166.237 25.5683C166.237 24.6315 165.986 23.8663 165.472 23.2989L165.485 23.3253Z" fill="#495354"/>
<path d="M35.9624 9.54897V1.22363H37.2422V4.79917H41.6356V1.22363H42.7307V9.54897H41.6356V5.8151H37.2422V9.54897H35.9624Z" fill="#495354"/>
<path d="M56.9936 8.62601C56.3999 9.33848 55.4764 9.68152 54.2362 9.68152C52.996 9.68152 52.0724 9.32528 51.4787 8.62601C50.885 7.91354 50.5815 6.83164 50.5815 5.38031C50.5815 3.92898 50.885 2.83389 51.4787 2.13461C52.0724 1.42214 52.996 1.0791 54.2362 1.0791C55.4764 1.0791 56.3999 1.43534 56.9936 2.13461C57.5873 2.84708 57.8908 3.92898 57.8908 5.38031C57.8908 6.83164 57.5873 7.92673 56.9936 8.62601ZM52.3231 7.90034C52.7321 8.44129 53.3654 8.70517 54.2362 8.70517C55.1069 8.70517 55.7534 8.44129 56.1492 7.90034C56.5582 7.35939 56.7561 6.52818 56.7561 5.36711C56.7561 4.20605 56.5582 3.37484 56.1492 2.83389C55.7402 2.29294 55.1069 2.02906 54.2362 2.02906C53.3654 2.02906 52.7189 2.29294 52.3231 2.83389C51.9141 3.37484 51.7162 4.20605 51.7162 5.36711C51.7162 6.52818 51.9141 7.35939 52.3231 7.90034Z" fill="#495354"/>
<path d="M69.0239 9.69616C67.7177 9.69616 66.7546 9.33993 66.1213 8.64065C65.488 7.92818 65.1846 6.84628 65.1846 5.39496C65.1846 3.94363 65.5012 2.84854 66.1213 2.14926C66.7414 1.43679 67.7045 1.09375 68.9975 1.09375C69.8683 1.09375 70.5412 1.23888 71.0557 1.51595V2.59785C70.4752 2.24162 69.8023 2.0701 69.0371 2.0701C68.0872 2.0701 67.3879 2.33398 66.9525 2.86173C66.5171 3.38949 66.306 4.23389 66.306 5.39496C66.306 6.55602 66.5303 7.41362 66.9657 7.94138C67.4011 8.46913 68.1003 8.73301 69.0767 8.73301C69.8287 8.73301 70.5016 8.56149 71.0557 8.20525V9.28715C70.5544 9.57742 69.8815 9.70936 69.0239 9.70936V9.69616Z" fill="#495354"/>
<path d="M78.5244 9.54897V1.22363H79.6195V4.79917H84.0129V1.22363H85.108V9.54897H84.0129V5.8151H79.6195V9.54897H78.5244Z" fill="#495354"/>
<path d="M95.4928 9.69471C94.2394 9.69471 93.3159 9.45722 92.709 8.98224V7.86076C93.4742 8.4281 94.411 8.71836 95.506 8.71836C96.799 8.71836 97.4455 8.24338 97.4455 7.26703C97.4455 6.89761 97.3267 6.62054 97.1024 6.43582C96.865 6.25111 96.4296 6.07958 95.7963 5.93445L94.8859 5.72335C94.1339 5.55183 93.6061 5.28795 93.2895 4.93172C92.9728 4.57548 92.8277 4.1005 92.8277 3.51997C92.8277 1.89712 93.8041 1.0791 95.7699 1.0791C96.8518 1.0791 97.6302 1.25062 98.1052 1.59366V2.70195C97.4982 2.26655 96.733 2.05545 95.8095 2.05545C94.5561 2.05545 93.936 2.51724 93.936 3.44081C93.936 3.77066 94.0415 4.03453 94.2658 4.23244C94.4769 4.43035 94.8727 4.58867 95.4532 4.70742L96.39 4.91852C97.1684 5.09004 97.7357 5.36712 98.0656 5.73654C98.3954 6.10597 98.5669 6.60734 98.5669 7.22745C98.5669 8.86349 97.5378 9.69471 95.4928 9.69471Z" fill="#495354"/>
<path d="M109.53 9.69616C108.224 9.69616 107.261 9.33993 106.628 8.64065C105.994 7.92818 105.691 6.84628 105.691 5.39496C105.691 3.94363 106.008 2.84854 106.628 2.14926C107.248 1.43679 108.211 1.09375 109.504 1.09375C110.375 1.09375 111.048 1.23888 111.562 1.51595V2.59785C110.982 2.24162 110.309 2.0701 109.543 2.0701C108.594 2.0701 107.894 2.33398 107.459 2.86173C107.023 3.38949 106.812 4.23389 106.812 5.39496C106.812 6.55602 107.037 7.41362 107.472 7.94138C107.907 8.46913 108.607 8.73301 109.583 8.73301C110.335 8.73301 111.008 8.56149 111.562 8.20525V9.28715C111.061 9.57742 110.388 9.70936 109.53 9.70936V9.69616Z" fill="#495354"/>
<path d="M119.031 9.54897V1.22363H120.126V4.79917H124.519V1.22363H125.614V9.54897H124.519V5.8151H120.126V9.54897H119.031Z" fill="#495354"/>
<path d="M139.137 8.92886C138.636 9.44342 137.845 9.6941 136.749 9.6941C135.654 9.6941 134.863 9.44342 134.361 8.92886C133.86 8.4143 133.609 7.59628 133.609 6.4748V1.22363H134.704V6.58035C134.704 7.3192 134.863 7.86015 135.193 8.20319C135.522 8.54624 136.037 8.71776 136.763 8.71776C137.488 8.71776 138.016 8.54624 138.346 8.20319C138.676 7.86015 138.834 7.3192 138.834 6.58035V1.22363H139.89V6.4748C139.89 7.59628 139.639 8.4143 139.137 8.92886Z" fill="#495354"/>
<path d="M147.856 9.54897V1.22363H148.952V8.55943H153.121V9.54897H147.843H147.856Z" fill="#495354"/>
<path d="M160.167 9.54897V1.22363H166.118V2.19998H161.276V4.82556H165.432V5.80191H161.276V8.57262H166.197V9.54897H160.181H160.167Z" fill="#495354"/>
<path d="M39.0209 40.3451C38.7438 40.6222 38.3084 40.7673 37.7015 40.7673C37.0946 40.7673 36.646 40.6222 36.369 40.3451C36.0919 40.0681 35.9468 39.6063 35.9468 38.9862V36.0703H36.5537V39.0389C36.5537 39.4479 36.646 39.7514 36.8308 39.9361C37.0155 40.1208 37.3057 40.2132 37.7015 40.2132C38.0973 40.2132 38.4008 40.1208 38.5723 39.9361C38.757 39.7514 38.8494 39.4479 38.8494 39.0389V36.0703H39.4299V38.9862C39.4299 39.6063 39.298 40.0681 39.0209 40.3451Z" fill="#495354"/>
<path d="M41.3169 40.6877V36.0566H42.0821L44.391 39.5794V36.0566H44.9715V40.6877H44.391L41.8842 36.8747V40.6877H41.3037H41.3169Z" fill="#495354"/>
<path d="M46.8984 40.6877V36.0566H47.5053V40.6877H46.8984Z" fill="#495354"/>
<path d="M50.6311 40.6877L48.9688 36.0566H49.6152L50.961 39.8301L52.3067 36.0566H52.9268L51.2644 40.6877H50.6179H50.6311Z" fill="#495354"/>
<path d="M54.4067 40.6877V36.0566H57.7051V36.5976H55.0136V38.0489H57.3225V38.5899H55.0136V40.1336H57.7447V40.6745H54.3936L54.4067 40.6877Z" fill="#495354"/>
<path d="M59.3398 40.6877V36.0566H61.1606C61.7015 36.0566 62.0973 36.1622 62.3348 36.3733C62.5723 36.5844 62.7042 36.9274 62.7042 37.4024C62.7042 37.785 62.625 38.0753 62.4667 38.2864C62.3084 38.4975 62.0709 38.6426 61.7411 38.7086L62.9945 40.6877H62.2688L61.0418 38.7746H59.9599V40.6877H59.353H59.3398ZM59.9467 38.2204H61.121C61.464 38.2204 61.7147 38.1545 61.8598 38.0357C62.0049 37.917 62.0841 37.7059 62.0841 37.4156C62.0841 37.1253 62.0049 36.9142 61.8598 36.7955C61.7147 36.6768 61.464 36.6108 61.121 36.6108H59.9467V38.2336V38.2204Z" fill="#495354"/>
<path d="M65.8185 40.7679C65.1193 40.7679 64.6047 40.636 64.2749 40.3721V39.752C64.6971 40.0686 65.2248 40.2269 65.8317 40.2269C66.5574 40.2269 66.9136 39.9631 66.9136 39.4221C66.9136 39.2242 66.8476 39.0659 66.7157 38.9603C66.5838 38.8548 66.3463 38.7624 65.9901 38.6833L65.4755 38.5645C65.0533 38.4722 64.7631 38.327 64.5915 38.1291C64.42 37.9312 64.3277 37.6673 64.3277 37.3375C64.3277 36.4403 64.8686 35.9785 65.9637 35.9785C66.5574 35.9785 66.9928 36.0709 67.2567 36.2688V36.8889C66.9136 36.6514 66.4914 36.5327 65.9769 36.5327C65.2776 36.5327 64.9346 36.7833 64.9346 37.2979C64.9346 37.4826 65.0005 37.6277 65.1193 37.7333C65.238 37.8389 65.4623 37.9312 65.779 37.9972L66.3067 38.1159C66.7421 38.2083 67.0587 38.3666 67.2435 38.5777C67.4282 38.7888 67.5205 39.0659 67.5205 39.4089C67.5205 40.3193 66.9532 40.7811 65.8185 40.7811V40.7679Z" fill="#495354"/>
<path d="M69.1284 40.6877V36.0566H69.7353V40.6877H69.1284Z" fill="#495354"/>
<path d="M72.7057 40.6877V36.6108H71.228V36.0566H74.8035V36.6108H73.3258V40.6877H72.7189H72.7057Z" fill="#495354"/>
<path d="M77.6141 40.6877V38.7482L75.9253 36.0566H76.6509L77.9439 38.1281L79.2237 36.0566H79.9098L78.2342 38.735V40.6877H77.6273H77.6141Z" fill="#495354"/>
<path d="M87.0462 40.1874C86.7163 40.5832 86.2018 40.7811 85.5157 40.7811C84.8296 40.7811 84.3151 40.5832 83.9852 40.1874C83.6554 39.7915 83.4839 39.1978 83.4839 38.3798C83.4839 37.5618 83.6554 36.9681 83.9852 36.5722C84.3151 36.1764 84.8296 35.9785 85.5157 35.9785C86.2018 35.9785 86.7163 36.1764 87.0462 36.5722C87.376 36.9681 87.5475 37.5618 87.5475 38.3798C87.5475 39.1978 87.376 39.7915 87.0462 40.1874ZM84.447 39.7915C84.6713 40.095 85.0275 40.2401 85.5157 40.2401C86.0039 40.2401 86.3601 40.095 86.5844 39.7915C86.8087 39.4881 86.9274 39.0263 86.9274 38.393C86.9274 37.7597 86.8087 37.2847 86.5844 36.9944C86.3601 36.691 86.0039 36.5459 85.5157 36.5459C85.0275 36.5459 84.6713 36.691 84.447 36.9944C84.2227 37.2979 84.104 37.7597 84.104 38.393C84.104 39.0263 84.2227 39.5013 84.447 39.7915Z" fill="#495354"/>
<path d="M89.2515 40.6877V36.0566H92.3256V36.5976H89.8584V38.0753H92.0617V38.6163H89.8584V40.6745H89.2515V40.6877Z" fill="#495354"/>
<path d="M95.8467 40.6877L97.6806 36.0566H98.3139L100.148 40.6877H99.5013L99.0659 39.553H96.9154L96.48 40.6877H95.8599H95.8467ZM97.1133 38.9989H98.8284L97.9708 36.7691L97.1133 38.9989Z" fill="#495354"/>
<path d="M101.599 40.6877V36.0566H103.472C104.039 36.0566 104.435 36.1622 104.686 36.3865C104.937 36.6108 105.055 36.967 105.055 37.4684C105.055 37.9698 104.937 38.326 104.686 38.5371C104.435 38.7614 104.039 38.8669 103.472 38.8669H102.219V40.6877H101.612H101.599ZM102.206 38.326H103.419C103.776 38.326 104.039 38.26 104.198 38.1281C104.356 37.9961 104.422 37.7718 104.422 37.4684C104.422 37.1649 104.343 36.9274 104.198 36.7955C104.039 36.6636 103.789 36.5976 103.419 36.5976H102.206V38.3128V38.326Z" fill="#495354"/>
<path d="M106.589 40.6877V36.0566H108.462C109.03 36.0566 109.425 36.1622 109.676 36.3865C109.927 36.6108 110.046 36.967 110.046 37.4684C110.046 37.9698 109.927 38.326 109.676 38.5371C109.425 38.7614 109.03 38.8669 108.462 38.8669H107.209V40.6877H106.602H106.589ZM107.196 38.326H108.41C108.766 38.326 109.03 38.26 109.188 38.1281C109.346 37.9961 109.412 37.7718 109.412 37.4684C109.412 37.1649 109.333 36.9274 109.188 36.7955C109.03 36.6636 108.779 36.5976 108.41 36.5976H107.196V38.3128V38.326Z" fill="#495354"/>
<path d="M111.56 40.6877V36.0566H112.166V40.1336H114.489V40.6877H111.56Z" fill="#495354"/>
<path d="M115.983 40.6877V36.0566H116.59V40.6877H115.983Z" fill="#495354"/>
<path d="M118.516 40.6877V36.0566H121.815V36.5976H119.123V38.0489H121.432V38.5899H119.123V40.1336H121.854V40.6745H118.503L118.516 40.6877Z" fill="#495354"/>
<path d="M123.45 40.6877V36.0566H124.888C125.64 36.0566 126.181 36.2414 126.511 36.5976C126.84 36.9538 126.999 37.5475 126.999 38.3656C126.999 39.1836 126.84 39.7773 126.511 40.1336C126.181 40.4898 125.64 40.6745 124.888 40.6745H123.45V40.6877ZM124.057 40.1467H124.848C125.416 40.1467 125.811 40.0148 126.036 39.7509C126.26 39.4871 126.379 39.0253 126.379 38.3788C126.379 37.7323 126.26 37.2573 126.036 37.0066C125.811 36.7427 125.416 36.6108 124.848 36.6108H124.057V40.1467Z" fill="#495354"/>
<path d="M132.551 40.7679C131.852 40.7679 131.338 40.636 131.008 40.3721V39.752C131.43 40.0686 131.958 40.2269 132.565 40.2269C133.29 40.2269 133.647 39.9631 133.647 39.4221C133.647 39.2242 133.581 39.0659 133.449 38.9603C133.317 38.8548 133.079 38.7624 132.723 38.6833L132.208 38.5645C131.786 38.4722 131.496 38.327 131.324 38.1291C131.153 37.9312 131.061 37.6673 131.061 37.3375C131.061 36.4403 131.602 35.9785 132.697 35.9785C133.29 35.9785 133.726 36.0709 133.99 36.2688V36.8889C133.647 36.6514 133.224 36.5327 132.71 36.5327C132.011 36.5327 131.667 36.7833 131.667 37.2979C131.667 37.4826 131.733 37.6277 131.852 37.7333C131.971 37.8389 132.195 37.9312 132.512 37.9972L133.04 38.1159C133.475 38.2083 133.792 38.3666 133.976 38.5777C134.161 38.7888 134.253 39.0659 134.253 39.4089C134.253 40.3193 133.686 40.7811 132.551 40.7811V40.7679Z" fill="#495354"/>
<path d="M137.787 40.7674C137.061 40.7674 136.52 40.5695 136.177 40.1737C135.834 39.7779 135.649 39.1842 135.649 38.3661C135.649 37.5481 135.821 36.9544 136.164 36.5586C136.507 36.1628 137.048 35.9648 137.76 35.9648C138.235 35.9648 138.618 36.044 138.908 36.2023V36.7961C138.592 36.5982 138.209 36.5058 137.787 36.5058C137.259 36.5058 136.876 36.6509 136.626 36.9412C136.388 37.2315 136.27 37.7064 136.27 38.3397C136.27 38.9731 136.388 39.4612 136.639 39.7515C136.876 40.0418 137.272 40.2001 137.813 40.2001C138.235 40.2001 138.605 40.1077 138.908 39.9098V40.5035C138.631 40.6619 138.262 40.741 137.774 40.741L137.787 40.7674Z" fill="#495354"/>
<path d="M140.522 40.6877V36.0566H141.129V40.6877H140.522Z" fill="#495354"/>
<path d="M143.055 40.6877V36.0566H146.354V36.5976H143.662V38.0489H145.971V38.5899H143.662V40.1336H146.393V40.6745H143.042L143.055 40.6877Z" fill="#495354"/>
<path d="M147.987 40.6877V36.0566H148.752L151.061 39.5794V36.0566H151.641V40.6877H151.061L148.554 36.8747V40.6877H147.974H147.987Z" fill="#495354"/>
<path d="M155.482 40.7674C154.756 40.7674 154.216 40.5695 153.872 40.1737C153.529 39.7779 153.345 39.1842 153.345 38.3661C153.345 37.5481 153.516 36.9544 153.859 36.5586C154.202 36.1628 154.743 35.9648 155.456 35.9648C155.931 35.9648 156.313 36.044 156.604 36.2023V36.7961C156.287 36.5982 155.904 36.5058 155.482 36.5058C154.954 36.5058 154.572 36.6509 154.321 36.9412C154.084 37.2315 153.965 37.7064 153.965 38.3397C153.965 38.9731 154.084 39.4612 154.334 39.7515C154.572 40.0418 154.968 40.2001 155.508 40.2001C155.931 40.2001 156.3 40.1077 156.604 39.9098V40.5035C156.326 40.6619 155.957 40.741 155.469 40.741L155.482 40.7674Z" fill="#495354"/>
<path d="M158.201 40.6877V36.0566H161.5V36.5976H158.808V38.0489H161.117V38.5899H158.808V40.1336H161.539V40.6745H158.188L158.201 40.6877Z" fill="#495354"/>
<path d="M164.523 40.7679C163.823 40.7679 163.309 40.636 162.979 40.3721V39.752C163.401 40.0686 163.929 40.2269 164.536 40.2269C165.262 40.2269 165.618 39.9631 165.618 39.4221C165.618 39.2242 165.552 39.0659 165.42 38.9603C165.288 38.8548 165.05 38.7624 164.694 38.6833L164.18 38.5645C163.757 38.4722 163.467 38.327 163.296 38.1291C163.124 37.9312 163.032 37.6673 163.032 37.3375C163.032 36.4403 163.573 35.9785 164.668 35.9785C165.261 35.9785 165.697 36.0709 165.961 36.2688V36.8889C165.618 36.6514 165.196 36.5327 164.681 36.5327C163.982 36.5327 163.639 36.7833 163.639 37.2979C163.639 37.4826 163.705 37.6277 163.823 37.7333C163.942 37.8389 164.166 37.9312 164.483 37.9972L165.011 38.1159C165.446 38.2083 165.763 38.3666 165.948 38.5777C166.132 38.7888 166.225 39.0659 166.225 39.4089C166.225 40.3193 165.657 40.7811 164.523 40.7811V40.7679Z" fill="#495354"/>
<path d="M14.8923 21.6501C11.2509 23.1674 7.06854 21.4522 5.55128 17.8107C5.01034 16.5177 4.87841 15.1587 5.1027 13.8789H0.827975C0.630071 15.7129 0.88075 17.626 1.64598 19.4467C4.0604 25.252 10.7232 27.9964 16.5283 25.5687C18.3359 24.8166 19.8399 23.6556 20.9878 22.2306L17.9664 19.2092C17.2144 20.2647 16.1721 21.1355 14.8923 21.6633V21.6501Z" fill="#495354"/>
<path d="M11.3147 11.2133C11.8425 7.30788 15.4311 4.55036 19.3364 5.07811C20.7217 5.26283 21.9619 5.83016 22.9647 6.67457L25.1152 2.98028C23.6243 1.88519 21.8564 1.14633 19.9037 0.882456C13.6764 0.0512412 7.95035 4.43161 7.11915 10.6591C6.85528 12.5986 7.11915 14.4985 7.75245 16.2006L11.8952 15.1055C11.3675 13.9312 11.1432 12.5854 11.3279 11.2133H11.3147Z" fill="#495354"/>
<path d="M22.1224 13.3632C25.2493 15.7777 25.8166 20.2636 23.4154 23.3906C22.5578 24.4989 21.4495 25.2905 20.2225 25.7259L22.3467 29.4466C24.0355 28.7077 25.5659 27.5467 26.7665 25.9766C30.6059 21.0025 29.6823 13.8514 24.7083 10.012C23.1647 8.81135 21.3968 8.08569 19.5892 7.78223L18.4678 11.9119C19.7476 12.0438 21.0273 12.5188 22.1224 13.3632Z" fill="#495354"/>
</svg>
