<svg width="243" height="45" viewBox="0 0 243 45" fill="none" xmlns="http://www.w3.org/2000/svg">
<path d="M26.5664 1.5127L32.1572 7.11914V11.8057H43.9092V21.791H41.0332V36.7842L35.3545 42.3896H19.0039L13.3398 36.7842V32.0684H7.19336L1.57324 26.4775V7.11914L7.19336 1.5127H26.5664ZM7.42676 2.09668L2.15625 7.36719V26.2295L7.42676 31.4844H13.9229V36.5361L19.2373 41.8057H35.1211L40.4492 36.5361V21.2217H43.3398V12.4043H31.5879V7.36719L26.332 2.09668H7.42676Z" fill="#495354"/>
<path d="M8.0255 30.0389H15.3833V35.9368L19.836 40.3457H34.5224L38.9897 35.9368V19.7613H41.8802V13.8488H33.0187V34.4478H21.2813V30.0389H25.7193L30.1282 25.63V19.7613H24.2156V24.141H21.2813V13.8488H12.449V19.7613H15.3833V24.141H9.49999V9.39613H24.2156V13.8488H30.1282V7.96544L25.7193 3.54199H8.0255L3.60205 7.96544V25.63L8.0255 30.0389Z" fill="#495354"/>
<path d="M20.5514 29.3095H25.4274L29.3983 25.324V20.4918H24.9456V24.8714H20.5514V14.5792H13.1789V19.0319H16.1133V24.8714H8.77008V8.68131H24.9456V13.1194H29.3983V8.25795L25.4274 4.27246H8.33212L4.33203 8.25795V25.324L8.33212 29.3095H16.1133V35.6308L20.1426 39.6309H34.2159L38.2598 35.6308V19.0319H41.1503V14.5792H33.7487V35.1782H20.5514V29.3095Z" fill="#495354"/>
<path d="M201.814 14.895C201.319 14.895 200.884 14.9995 200.51 15.2085C200.136 15.4175 199.823 15.6925 199.57 16.0335C199.328 16.3745 199.141 16.765 199.009 17.205C198.888 17.634 198.827 18.074 198.827 18.525C198.827 18.976 198.888 19.4215 199.009 19.8615C199.141 20.2905 199.328 20.6755 199.57 21.0165C199.823 21.3575 200.136 21.6325 200.51 21.8415C200.884 22.0505 201.319 22.155 201.814 22.155C202.309 22.155 202.743 22.0505 203.117 21.8415C203.491 21.6325 203.799 21.3575 204.041 21.0165C204.294 20.6755 204.481 20.2905 204.602 19.8615C204.734 19.4215 204.8 18.976 204.8 18.525C204.8 18.074 204.734 17.634 204.602 17.205C204.481 16.765 204.294 16.3745 204.041 16.0335C203.799 15.6925 203.491 15.4175 203.117 15.2085C202.743 14.9995 202.309 14.895 201.814 14.895ZM201.814 14.0205C202.463 14.0205 203.035 14.1415 203.53 14.3835C204.036 14.6255 204.459 14.95 204.8 15.357C205.141 15.764 205.4 16.2425 205.576 16.7925C205.752 17.3315 205.84 17.909 205.84 18.525C205.84 19.141 205.752 19.724 205.576 20.274C205.4 20.813 205.141 21.286 204.8 21.693C204.459 22.1 204.036 22.4245 203.53 22.6665C203.035 22.8975 202.463 23.013 201.814 23.013C201.165 23.013 200.587 22.8975 200.081 22.6665C199.586 22.4245 199.168 22.1 198.827 21.693C198.486 21.286 198.228 20.813 198.052 20.274C197.876 19.724 197.788 19.141 197.788 18.525C197.788 17.909 197.876 17.3315 198.052 16.7925C198.228 16.2425 198.486 15.764 198.827 15.357C199.168 14.95 199.586 14.6255 200.081 14.3835C200.587 14.1415 201.165 14.0205 201.814 14.0205Z" fill="#495354"/>
<path d="M196.315 22.782H195.358V21.165H195.325C195.215 21.44 195.05 21.693 194.83 21.924C194.621 22.155 194.379 22.353 194.104 22.518C193.829 22.672 193.532 22.793 193.213 22.881C192.905 22.969 192.597 23.013 192.289 23.013C191.64 23.013 191.074 22.8975 190.59 22.6665C190.117 22.4245 189.721 22.1 189.402 21.693C189.083 21.275 188.846 20.7965 188.692 20.2575C188.538 19.7075 188.461 19.13 188.461 18.525C188.461 17.92 188.538 17.348 188.692 16.809C188.846 16.259 189.083 15.7805 189.402 15.3735C189.721 14.9555 190.117 14.6255 190.59 14.3835C191.074 14.1415 191.64 14.0205 192.289 14.0205C192.608 14.0205 192.916 14.059 193.213 14.136C193.521 14.213 193.807 14.334 194.071 14.499C194.335 14.653 194.566 14.8455 194.764 15.0765C194.973 15.3075 195.133 15.577 195.243 15.885H195.276V11.001H196.315V22.782ZM189.501 18.525C189.501 18.965 189.55 19.405 189.649 19.845C189.759 20.274 189.924 20.659 190.144 21C190.375 21.341 190.667 21.6215 191.019 21.8415C191.371 22.0505 191.794 22.155 192.289 22.155C192.839 22.155 193.301 22.0505 193.675 21.8415C194.06 21.6215 194.368 21.341 194.599 21C194.841 20.659 195.012 20.274 195.111 19.845C195.221 19.405 195.276 18.965 195.276 18.525C195.276 18.085 195.221 17.6505 195.111 17.2215C195.012 16.7815 194.841 16.391 194.599 16.05C194.368 15.709 194.06 15.434 193.675 15.225C193.301 15.005 192.839 14.895 192.289 14.895C191.794 14.895 191.371 15.005 191.019 15.225C190.667 15.434 190.375 15.709 190.144 16.05C189.924 16.391 189.759 16.7815 189.649 17.2215C189.55 17.6505 189.501 18.085 189.501 18.525Z" fill="#495354"/>
<path d="M180.252 16.875C180.285 16.38 180.389 15.951 180.565 15.588C180.741 15.225 180.978 14.928 181.275 14.697C181.583 14.466 181.94 14.2955 182.347 14.1855C182.754 14.0755 183.205 14.0205 183.7 14.0205C184.074 14.0205 184.448 14.059 184.822 14.136C185.196 14.202 185.532 14.334 185.829 14.532C186.126 14.73 186.368 15.0105 186.555 15.3735C186.742 15.7255 186.835 16.1875 186.835 16.7595V21.2805C186.835 21.6985 187.039 21.9075 187.446 21.9075C187.567 21.9075 187.677 21.8855 187.776 21.8415V22.716C187.655 22.738 187.545 22.7545 187.446 22.7655C187.358 22.7765 187.242 22.782 187.099 22.782C186.835 22.782 186.621 22.749 186.456 22.683C186.302 22.606 186.181 22.5015 186.093 22.3695C186.005 22.2375 185.944 22.0835 185.911 21.9075C185.889 21.7205 185.878 21.517 185.878 21.297H185.845C185.658 21.572 185.466 21.8195 185.268 22.0395C185.081 22.2485 184.866 22.4245 184.624 22.5675C184.393 22.7105 184.124 22.8205 183.816 22.8975C183.519 22.9745 183.161 23.013 182.743 23.013C182.347 23.013 181.973 22.9635 181.621 22.8645C181.28 22.7765 180.978 22.6335 180.714 22.4355C180.461 22.2265 180.257 21.968 180.103 21.66C179.96 21.341 179.889 20.967 179.889 20.538C179.889 19.944 180.021 19.482 180.285 19.152C180.549 18.811 180.895 18.5525 181.324 18.3765C181.764 18.2005 182.254 18.0795 182.793 18.0135C183.343 17.9365 183.898 17.865 184.459 17.799C184.679 17.777 184.872 17.7495 185.037 17.7165C185.202 17.6835 185.339 17.6285 185.449 17.5515C185.559 17.4635 185.642 17.348 185.697 17.205C185.763 17.062 185.796 16.875 185.796 16.644C185.796 16.292 185.735 16.006 185.614 15.786C185.504 15.555 185.345 15.3735 185.136 15.2415C184.938 15.1095 184.701 15.0215 184.426 14.9775C184.162 14.9225 183.876 14.895 183.568 14.895C182.908 14.895 182.369 15.0545 181.951 15.3735C181.533 15.6815 181.313 16.182 181.291 16.875H180.252ZM185.796 18.129H185.763C185.697 18.25 185.57 18.338 185.383 18.393C185.196 18.448 185.031 18.4865 184.888 18.5085C184.448 18.5855 183.992 18.657 183.519 18.723C183.057 18.778 182.633 18.866 182.248 18.987C181.863 19.108 181.544 19.284 181.291 19.515C181.049 19.735 180.928 20.054 180.928 20.472C180.928 20.736 180.978 20.9725 181.077 21.1815C181.187 21.3795 181.33 21.5555 181.506 21.7095C181.682 21.8525 181.885 21.9625 182.116 22.0395C182.347 22.1165 182.584 22.155 182.826 22.155C183.222 22.155 183.601 22.0945 183.964 21.9735C184.327 21.8525 184.641 21.6765 184.905 21.4455C185.18 21.2145 185.394 20.934 185.548 20.604C185.713 20.274 185.796 19.9 185.796 19.482V18.129Z" fill="#495354"/>
<path d="M175.229 14.268H176.186V16.2645H176.219C176.483 15.5714 176.89 15.038 177.44 14.664C178.001 14.29 178.666 14.1195 179.436 14.1525V15.192C178.963 15.17 178.534 15.236 178.149 15.39C177.764 15.533 177.429 15.742 177.143 16.017C176.868 16.292 176.653 16.622 176.499 17.007C176.345 17.381 176.268 17.7935 176.268 18.2445V22.782H175.229V14.268Z" fill="#495354"/>
<path d="M169.74 14.895C169.245 14.895 168.81 14.9995 168.436 15.2085C168.062 15.4175 167.749 15.6925 167.496 16.0335C167.254 16.3745 167.067 16.765 166.935 17.205C166.814 17.634 166.753 18.074 166.753 18.525C166.753 18.976 166.814 19.4215 166.935 19.8615C167.067 20.2905 167.254 20.6755 167.496 21.0165C167.749 21.3575 168.062 21.6325 168.436 21.8415C168.81 22.0505 169.245 22.155 169.74 22.155C170.235 22.155 170.669 22.0505 171.043 21.8415C171.417 21.6325 171.725 21.3575 171.967 21.0165C172.22 20.6755 172.407 20.2905 172.528 19.8615C172.66 19.4215 172.726 18.976 172.726 18.525C172.726 18.074 172.66 17.634 172.528 17.205C172.407 16.765 172.22 16.3745 171.967 16.0335C171.725 15.6925 171.417 15.4175 171.043 15.2085C170.669 14.9995 170.235 14.895 169.74 14.895ZM169.74 14.0205C170.389 14.0205 170.961 14.1415 171.456 14.3835C171.962 14.6255 172.385 14.95 172.726 15.357C173.067 15.764 173.326 16.2425 173.502 16.7925C173.678 17.3315 173.766 17.909 173.766 18.525C173.766 19.141 173.678 19.724 173.502 20.274C173.326 20.813 173.067 21.286 172.726 21.693C172.385 22.1 171.962 22.4245 171.456 22.6665C170.961 22.8975 170.389 23.013 169.74 23.013C169.091 23.013 168.513 22.8975 168.007 22.6665C167.512 22.4245 167.094 22.1 166.753 21.693C166.412 21.286 166.154 20.813 165.978 20.274C165.802 19.724 165.714 19.141 165.714 18.525C165.714 17.909 165.802 17.3315 165.978 16.7925C166.154 16.2425 166.412 15.764 166.753 15.357C167.094 14.95 167.512 14.6255 168.007 14.3835C168.513 14.1415 169.091 14.0205 169.74 14.0205Z" fill="#495354"/>
<path d="M163.196 11.001H164.236V22.782H163.196V11.001Z" fill="#495354"/>
<path d="M157.691 14.895C157.196 14.895 156.761 14.9995 156.387 15.2085C156.013 15.4175 155.7 15.6925 155.447 16.0335C155.205 16.3745 155.018 16.765 154.886 17.205C154.765 17.634 154.704 18.074 154.704 18.525C154.704 18.976 154.765 19.4215 154.886 19.8615C155.018 20.2905 155.205 20.6755 155.447 21.0165C155.7 21.3575 156.013 21.6325 156.387 21.8415C156.761 22.0505 157.196 22.155 157.691 22.155C158.186 22.155 158.62 22.0505 158.994 21.8415C159.368 21.6325 159.676 21.3575 159.918 21.0165C160.171 20.6755 160.358 20.2905 160.479 19.8615C160.611 19.4215 160.677 18.976 160.677 18.525C160.677 18.074 160.611 17.634 160.479 17.205C160.358 16.765 160.171 16.3745 159.918 16.0335C159.676 15.6925 159.368 15.4175 158.994 15.2085C158.62 14.9995 158.186 14.895 157.691 14.895ZM157.691 14.0205C158.34 14.0205 158.912 14.1415 159.407 14.3835C159.913 14.6255 160.336 14.95 160.677 15.357C161.018 15.764 161.277 16.2425 161.453 16.7925C161.629 17.3315 161.717 17.909 161.717 18.525C161.717 19.141 161.629 19.724 161.453 20.274C161.277 20.813 161.018 21.286 160.677 21.693C160.336 22.1 159.913 22.4245 159.407 22.6665C158.912 22.8975 158.34 23.013 157.691 23.013C157.042 23.013 156.464 22.8975 155.958 22.6665C155.463 22.4245 155.045 22.1 154.704 21.693C154.363 21.286 154.105 20.813 153.929 20.274C153.753 19.724 153.665 19.141 153.665 18.525C153.665 17.909 153.753 17.3315 153.929 16.7925C154.105 16.2425 154.363 15.764 154.704 15.357C155.045 14.95 155.463 14.6255 155.958 14.3835C156.464 14.1415 157.042 14.0205 157.691 14.0205Z" fill="#495354"/>
<path d="M151.37 14.5644C151.271 14.1134 151.106 13.7119 150.875 13.3599C150.655 12.9969 150.38 12.6944 150.05 12.4524C149.731 12.2104 149.373 12.0289 148.977 11.9079C148.592 11.7759 148.185 11.7099 147.756 11.7099C146.975 11.7099 146.304 11.8584 145.743 12.1554C145.182 12.4524 144.72 12.8484 144.357 13.3434C144.005 13.8274 143.741 14.3774 143.565 14.9934C143.4 15.6094 143.318 16.2419 143.318 16.8909C143.318 17.5289 143.4 18.1614 143.565 18.7884C143.741 19.4044 144.005 19.9599 144.357 20.4549C144.72 20.9389 145.182 21.3294 145.743 21.6264C146.304 21.9234 146.975 22.0719 147.756 22.0719C148.306 22.0719 148.801 21.9729 149.241 21.7749C149.681 21.5769 150.061 21.3074 150.38 20.9664C150.699 20.6254 150.957 20.2294 151.155 19.7784C151.353 19.3164 151.48 18.8214 151.535 18.2934H152.657C152.58 19.0194 152.409 19.6739 152.145 20.2569C151.881 20.8399 151.54 21.3349 151.122 21.7419C150.704 22.1489 150.209 22.4624 149.637 22.6824C149.076 22.9024 148.449 23.0124 147.756 23.0124C146.832 23.0124 146.018 22.8474 145.314 22.5174C144.621 22.1764 144.044 21.7254 143.582 21.1644C143.12 20.6034 142.773 19.9544 142.542 19.2174C142.311 18.4804 142.196 17.7049 142.196 16.8909C142.196 16.0769 142.311 15.3014 142.542 14.5644C142.773 13.8274 143.12 13.1784 143.582 12.6174C144.044 12.0454 144.621 11.5944 145.314 11.2644C146.018 10.9234 146.832 10.7529 147.756 10.7529C148.317 10.7529 148.862 10.8354 149.39 11.0004C149.929 11.1654 150.413 11.4129 150.842 11.7429C151.282 12.0619 151.645 12.4579 151.931 12.9309C152.228 13.4039 152.415 13.9484 152.492 14.5644H151.37Z" fill="#495354"/>
<path d="M137.145 15.1425H135.462V22.782H134.422V15.1425H132.97V14.268H134.422V13.4925C134.422 13.1295 134.45 12.794 134.505 12.486C134.56 12.178 134.664 11.914 134.818 11.694C134.972 11.474 135.181 11.3035 135.445 11.1825C135.72 11.0615 136.067 11.001 136.485 11.001C136.639 11.001 136.782 11.0065 136.914 11.0175C137.046 11.0285 137.194 11.045 137.359 11.067V11.958C137.216 11.936 137.084 11.9195 136.963 11.9085C136.842 11.8865 136.721 11.8755 136.6 11.8755C136.314 11.8755 136.094 11.9195 135.94 12.0075C135.786 12.0955 135.671 12.2165 135.594 12.3705C135.528 12.5135 135.489 12.684 135.478 12.882C135.467 13.08 135.462 13.2945 135.462 13.5255V14.268H137.145V15.1425Z" fill="#495354"/>
<path d="M128.372 14.895C127.877 14.895 127.443 14.9995 127.069 15.2085C126.695 15.4175 126.381 15.6925 126.128 16.0335C125.886 16.3745 125.699 16.765 125.567 17.205C125.446 17.634 125.386 18.074 125.386 18.525C125.386 18.976 125.446 19.4215 125.567 19.8615C125.699 20.2905 125.886 20.6755 126.128 21.0165C126.381 21.3575 126.695 21.6325 127.069 21.8415C127.443 22.0505 127.877 22.155 128.372 22.155C128.867 22.155 129.302 22.0505 129.676 21.8415C130.05 21.6325 130.358 21.3575 130.6 21.0165C130.853 20.6755 131.04 20.2905 131.161 19.8615C131.293 19.4215 131.359 18.976 131.359 18.525C131.359 18.074 131.293 17.634 131.161 17.205C131.04 16.765 130.853 16.3745 130.6 16.0335C130.358 15.6925 130.05 15.4175 129.676 15.2085C129.302 14.9995 128.867 14.895 128.372 14.895ZM128.372 14.0205C129.021 14.0205 129.593 14.1415 130.088 14.3835C130.594 14.6255 131.018 14.95 131.359 15.357C131.7 15.764 131.958 16.2425 132.134 16.7925C132.31 17.3315 132.398 17.909 132.398 18.525C132.398 19.141 132.31 19.724 132.134 20.274C131.958 20.813 131.7 21.286 131.359 21.693C131.018 22.1 130.594 22.4245 130.088 22.6665C129.593 22.8975 129.021 23.013 128.372 23.013C127.723 23.013 127.146 22.8975 126.64 22.6665C126.145 22.4245 125.727 22.1 125.386 21.693C125.045 21.286 124.786 20.813 124.61 20.274C124.434 19.724 124.346 19.141 124.346 18.525C124.346 17.909 124.434 17.3315 124.61 16.7925C124.786 16.2425 125.045 15.764 125.386 15.357C125.727 14.95 126.145 14.6255 126.64 14.3835C127.146 14.1415 127.723 14.0205 128.372 14.0205Z" fill="#495354"/>
<path d="M111.753 14.2676H112.859L115.664 21.5276L118.287 14.2676H119.327L115.631 24.0686C115.477 24.4316 115.334 24.7286 115.202 24.9596C115.07 25.2016 114.921 25.3886 114.756 25.5206C114.602 25.6636 114.415 25.7626 114.195 25.8176C113.986 25.8836 113.717 25.9166 113.387 25.9166C113.178 25.9056 113.013 25.8946 112.892 25.8836C112.782 25.8836 112.683 25.8671 112.595 25.8341V24.9596C112.716 24.9816 112.831 24.9981 112.941 25.0091C113.062 25.0311 113.183 25.0421 113.304 25.0421C113.535 25.0421 113.722 25.0091 113.865 24.9431C114.019 24.8771 114.151 24.7836 114.261 24.6626C114.371 24.5526 114.465 24.4151 114.542 24.2501C114.619 24.0851 114.701 23.9036 114.789 23.7056L115.152 22.7486L111.753 14.2676Z" fill="#495354"/>
<path d="M109.561 14.2675H111.293V15.142H109.561V20.884C109.561 21.225 109.605 21.4945 109.693 21.6925C109.792 21.8795 110.028 21.984 110.402 22.006C110.699 22.006 110.996 21.9895 111.293 21.9565V22.831C111.139 22.831 110.985 22.8365 110.831 22.8475C110.677 22.8585 110.523 22.864 110.369 22.864C109.676 22.864 109.192 22.732 108.917 22.468C108.642 22.193 108.51 21.6925 108.521 20.9665V15.142H107.036V14.2675H108.521V11.71H109.561V14.2675Z" fill="#495354"/>
<path d="M104.964 11.001H106.004V12.6675H104.964V11.001ZM104.964 14.268H106.004V22.782H104.964V14.268Z" fill="#495354"/>
<path d="M102.185 16.7595C102.174 16.4405 102.108 16.1655 101.987 15.9345C101.866 15.6925 101.701 15.4945 101.492 15.3405C101.294 15.1865 101.063 15.0765 100.799 15.0105C100.535 14.9335 100.254 14.895 99.9574 14.895C99.7264 14.895 99.4899 14.9225 99.2479 14.9775C99.0169 15.0215 98.8024 15.104 98.6044 15.225C98.4064 15.335 98.2469 15.4835 98.1259 15.6705C98.0049 15.8575 97.9444 16.0885 97.9444 16.3635C97.9444 16.5945 97.9994 16.7925 98.1094 16.9575C98.2304 17.1115 98.3789 17.2435 98.5549 17.3535C98.7309 17.4635 98.9234 17.557 99.1324 17.634C99.3414 17.7 99.5339 17.755 99.7099 17.799L101.096 18.1125C101.393 18.1565 101.684 18.239 101.97 18.36C102.267 18.47 102.526 18.6185 102.746 18.8055C102.977 18.9925 103.164 19.2235 103.307 19.4985C103.45 19.7735 103.521 20.098 103.521 20.472C103.521 20.934 103.417 21.33 103.208 21.66C102.999 21.979 102.729 22.243 102.399 22.452C102.08 22.65 101.717 22.793 101.31 22.881C100.903 22.969 100.502 23.013 100.106 23.013C99.1049 23.013 98.2909 22.7765 97.6639 22.3035C97.0479 21.8305 96.6959 21.0715 96.6079 20.0265H97.6474C97.6914 20.7305 97.9444 21.264 98.4064 21.627C98.8794 21.979 99.4624 22.155 100.155 22.155C100.408 22.155 100.667 22.1275 100.931 22.0725C101.206 22.0175 101.459 21.924 101.69 21.792C101.921 21.66 102.108 21.495 102.251 21.297C102.405 21.088 102.482 20.835 102.482 20.538C102.482 20.285 102.427 20.076 102.317 19.911C102.218 19.735 102.08 19.592 101.904 19.482C101.728 19.361 101.525 19.262 101.294 19.185C101.074 19.108 100.848 19.042 100.617 18.987L99.2809 18.69C98.9399 18.602 98.6264 18.503 98.3404 18.393C98.0544 18.272 97.8014 18.129 97.5814 17.964C97.3724 17.788 97.2074 17.579 97.0864 17.337C96.9654 17.084 96.9049 16.776 96.9049 16.413C96.9049 15.984 96.9984 15.6155 97.1854 15.3075C97.3834 14.9995 97.6364 14.752 97.9444 14.565C98.2524 14.378 98.5934 14.2405 98.9674 14.1525C99.3524 14.0645 99.7319 14.0205 100.106 14.0205C100.535 14.0205 100.931 14.0755 101.294 14.1855C101.668 14.2955 101.992 14.466 102.267 14.697C102.553 14.928 102.779 15.214 102.944 15.555C103.109 15.896 103.202 16.2975 103.224 16.7595H102.185Z" fill="#495354"/>
<path d="M91.9644 14.268H92.9214V16.2645H92.9544C93.2184 15.5714 93.6254 15.038 94.1754 14.664C94.7364 14.29 95.4019 14.1195 96.1719 14.1525V15.192C95.6989 15.17 95.2699 15.236 94.8849 15.39C94.4999 15.533 94.1644 15.742 93.8784 16.017C93.6034 16.292 93.3889 16.622 93.2349 17.007C93.0809 17.381 93.0039 17.7935 93.0039 18.2445V22.782H91.9644V14.268Z" fill="#495354"/>
<path d="M89.612 17.931C89.601 17.535 89.5295 17.1555 89.3975 16.7925C89.2765 16.4295 89.1005 16.1105 88.8695 15.8355C88.6385 15.5495 88.358 15.324 88.028 15.159C87.698 14.983 87.324 14.895 86.906 14.895C86.477 14.895 86.0975 14.983 85.7675 15.159C85.4375 15.324 85.157 15.5495 84.926 15.8355C84.695 16.1105 84.508 16.435 84.365 16.809C84.233 17.172 84.145 17.546 84.101 17.931H89.612ZM84.101 18.8055C84.101 19.1795 84.1505 19.57 84.2495 19.977C84.3595 20.373 84.53 20.7305 84.761 21.0495C84.992 21.3685 85.2835 21.6325 85.6355 21.8415C85.9875 22.0505 86.411 22.155 86.906 22.155C87.665 22.155 88.259 21.957 88.688 21.561C89.117 21.165 89.414 20.637 89.579 19.977H90.6185C90.3985 20.945 89.9915 21.693 89.3975 22.221C88.8145 22.749 87.984 23.013 86.906 23.013C86.235 23.013 85.652 22.8975 85.157 22.6665C84.673 22.4245 84.277 22.1 83.969 21.693C83.661 21.275 83.43 20.7965 83.276 20.2575C83.133 19.7075 83.0615 19.13 83.0615 18.525C83.0615 17.964 83.133 17.414 83.276 16.875C83.43 16.336 83.661 15.8575 83.969 15.4395C84.277 15.0105 84.673 14.6695 85.157 14.4165C85.652 14.1525 86.235 14.0205 86.906 14.0205C87.588 14.0205 88.171 14.158 88.655 14.433C89.139 14.708 89.5295 15.071 89.8265 15.522C90.1345 15.962 90.3545 16.4735 90.4865 17.0565C90.6185 17.6285 90.6735 18.2115 90.6515 18.8055H84.101Z" fill="#495354"/>
<path d="M74.9785 14.2676H76.1335L78.8065 21.7421H78.8395L81.4795 14.2676H82.552L79.3675 22.7816H78.262L74.9785 14.2676Z" fill="#495354"/>
<path d="M72.9888 11.001H74.0283V12.6675H72.9888V11.001ZM72.9888 14.268H74.0283V22.782H72.9888V14.268Z" fill="#495354"/>
<path d="M64.1763 14.268H65.2158V15.7365H65.2488C65.4468 15.2195 65.7988 14.807 66.3048 14.499C66.8108 14.18 67.3663 14.0205 67.9713 14.0205C68.5653 14.0205 69.0603 14.0975 69.4563 14.2515C69.8633 14.4055 70.1878 14.6255 70.4298 14.9115C70.6718 15.1865 70.8423 15.5275 70.9413 15.9345C71.0403 16.3415 71.0898 16.798 71.0898 17.304V22.782H70.0503V17.469C70.0503 17.106 70.0173 16.7705 69.9513 16.4625C69.8853 16.1435 69.7698 15.8685 69.6048 15.6375C69.4398 15.4065 69.2143 15.225 68.9283 15.093C68.6533 14.961 68.3068 14.895 67.8888 14.895C67.4708 14.895 67.0968 14.972 66.7668 15.126C66.4478 15.269 66.1728 15.4725 65.9418 15.7365C65.7218 15.9895 65.5458 16.2975 65.4138 16.6605C65.2928 17.0125 65.2268 17.3975 65.2158 17.8155V22.782H64.1763V14.268Z" fill="#495354"/>
<path d="M53.062 11.001H54.184V18.294C54.184 18.976 54.261 19.559 54.415 20.043C54.569 20.516 54.7945 20.9065 55.0915 21.2145C55.3885 21.5115 55.7515 21.7315 56.1805 21.8745C56.6095 22.0065 57.0935 22.0725 57.6325 22.0725C58.1825 22.0725 58.672 22.0065 59.101 21.8745C59.53 21.7315 59.893 21.5115 60.19 21.2145C60.487 20.9065 60.7125 20.516 60.8665 20.043C61.0205 19.559 61.0975 18.976 61.0975 18.294V11.001H62.2195V18.5415C62.2195 19.1465 62.1315 19.724 61.9555 20.274C61.7905 20.813 61.521 21.286 61.147 21.693C60.784 22.1 60.311 22.4245 59.728 22.6665C59.156 22.8975 58.4575 23.013 57.6325 23.013C56.8185 23.013 56.12 22.8975 55.537 22.6665C54.965 22.4245 54.492 22.1 54.118 21.693C53.755 21.286 53.4855 20.813 53.3095 20.274C53.1445 19.724 53.062 19.1465 53.062 18.5415V11.001Z" fill="#495354"/>
<path d="M240.303 34.2585C240.292 33.9395 240.226 33.6645 240.105 33.4335C239.984 33.1915 239.819 32.9935 239.61 32.8395C239.412 32.6855 239.181 32.5755 238.917 32.5095C238.653 32.4325 238.373 32.394 238.076 32.394C237.845 32.394 237.608 32.4215 237.366 32.4765C237.135 32.5205 236.921 32.603 236.723 32.724C236.525 32.834 236.365 32.9825 236.244 33.1695C236.123 33.3565 236.063 33.5875 236.063 33.8625C236.063 34.0935 236.118 34.2915 236.228 34.4565C236.349 34.6105 236.497 34.7425 236.673 34.8525C236.849 34.9625 237.042 35.056 237.251 35.133C237.46 35.199 237.652 35.254 237.828 35.298L239.214 35.6115C239.511 35.6555 239.803 35.738 240.089 35.859C240.386 35.969 240.644 36.1175 240.864 36.3045C241.095 36.4915 241.282 36.7225 241.425 36.9975C241.568 37.2725 241.64 37.597 241.64 37.971C241.64 38.433 241.535 38.829 241.326 39.159C241.117 39.478 240.848 39.742 240.518 39.951C240.199 40.149 239.836 40.292 239.429 40.38C239.022 40.468 238.62 40.512 238.224 40.512C237.223 40.512 236.409 40.2755 235.782 39.8025C235.166 39.3295 234.814 38.5705 234.726 37.5255H235.766C235.81 38.2295 236.063 38.763 236.525 39.126C236.998 39.478 237.581 39.654 238.274 39.654C238.527 39.654 238.785 39.6265 239.049 39.5715C239.324 39.5165 239.577 39.423 239.808 39.291C240.039 39.159 240.226 38.994 240.369 38.796C240.523 38.587 240.6 38.334 240.6 38.037C240.6 37.784 240.545 37.575 240.435 37.41C240.336 37.234 240.199 37.091 240.023 36.981C239.847 36.86 239.643 36.761 239.412 36.684C239.192 36.607 238.967 36.541 238.736 36.486L237.399 36.189C237.058 36.101 236.745 36.002 236.459 35.892C236.173 35.771 235.92 35.628 235.7 35.463C235.491 35.287 235.326 35.078 235.205 34.836C235.084 34.583 235.023 34.275 235.023 33.912C235.023 33.483 235.117 33.1145 235.304 32.8065C235.502 32.4985 235.755 32.251 236.063 32.064C236.371 31.877 236.712 31.7395 237.086 31.6515C237.471 31.5635 237.85 31.5195 238.224 31.5195C238.653 31.5195 239.049 31.5745 239.412 31.6845C239.786 31.7945 240.111 31.965 240.386 32.196C240.672 32.427 240.897 32.713 241.062 33.054C241.227 33.395 241.321 33.7965 241.343 34.2585H240.303Z" fill="#495354"/>
<path d="M233.239 40.2806H232.282V38.7461H232.249C231.974 39.3181 231.573 39.7581 231.045 40.0661C230.528 40.3631 229.95 40.5116 229.312 40.5116C228.773 40.5116 228.311 40.4346 227.926 40.2806C227.552 40.1376 227.244 39.9286 227.002 39.6536C226.771 39.3786 226.601 39.0431 226.491 38.6471C226.381 38.2511 226.326 37.8001 226.326 37.2941V31.7666H227.365V37.3106C227.387 38.0806 227.563 38.6636 227.893 39.0596C228.234 39.4556 228.817 39.6536 229.642 39.6536C230.093 39.6536 230.478 39.5601 230.797 39.3731C231.116 39.1751 231.38 38.9166 231.589 38.5976C231.798 38.2786 231.952 37.9156 232.051 37.5086C232.15 37.0906 232.2 36.6671 232.2 36.2381V31.7666H233.239V40.2806Z" fill="#495354"/>
<path d="M216.868 31.767H217.825V33.384H217.858C218.1 32.79 218.49 32.3335 219.029 32.0145C219.579 31.6845 220.201 31.5195 220.894 31.5195C221.543 31.5195 222.104 31.6405 222.577 31.8825C223.061 32.1245 223.462 32.4545 223.781 32.8725C224.1 33.2795 224.337 33.758 224.491 34.308C224.645 34.847 224.722 35.419 224.722 36.024C224.722 36.629 224.645 37.2065 224.491 37.7565C224.337 38.2955 224.1 38.774 223.781 39.192C223.462 39.599 223.061 39.9235 222.577 40.1655C222.104 40.3965 221.543 40.512 220.894 40.512C220.586 40.512 220.278 40.4735 219.97 40.3965C219.662 40.3195 219.376 40.204 219.112 40.05C218.848 39.896 218.611 39.7035 218.402 39.4725C218.204 39.2415 218.05 38.972 217.94 38.664H217.907V43.416H216.868V31.767ZM223.682 36.024C223.682 35.584 223.627 35.1495 223.517 34.7205C223.418 34.2805 223.253 33.89 223.022 33.549C222.802 33.208 222.516 32.933 222.164 32.724C221.812 32.504 221.389 32.394 220.894 32.394C220.322 32.394 219.843 32.493 219.458 32.691C219.073 32.889 218.765 33.153 218.534 33.483C218.303 33.813 218.138 34.198 218.039 34.638C217.951 35.078 217.907 35.54 217.907 36.024C217.907 36.464 217.957 36.904 218.056 37.344C218.166 37.773 218.336 38.158 218.567 38.499C218.809 38.84 219.117 39.1205 219.491 39.3405C219.876 39.5495 220.344 39.654 220.894 39.654C221.389 39.654 221.812 39.5495 222.164 39.3405C222.516 39.1205 222.802 38.84 223.022 38.499C223.253 38.158 223.418 37.773 223.517 37.344C223.627 36.904 223.682 36.464 223.682 36.024Z" fill="#495354"/>
<path d="M203.123 31.767H204.08V33.2025H204.13C204.405 32.6745 204.762 32.262 205.202 31.965C205.653 31.668 206.225 31.5195 206.918 31.5195C207.479 31.5195 207.985 31.657 208.436 31.932C208.898 32.207 209.206 32.625 209.36 33.186C209.613 32.625 209.987 32.207 210.482 31.932C210.977 31.657 211.505 31.5195 212.066 31.5195C213.947 31.5195 214.888 32.515 214.888 34.506V40.281H213.848V34.5555C213.848 33.8515 213.7 33.318 213.403 32.955C213.106 32.581 212.583 32.394 211.835 32.394C211.384 32.394 211.01 32.482 210.713 32.658C210.416 32.823 210.18 33.0485 210.004 33.3345C209.828 33.6205 209.701 33.9505 209.624 34.3245C209.558 34.6875 209.525 35.067 209.525 35.463V40.281H208.486V34.506C208.486 34.22 208.453 33.9505 208.387 33.6975C208.332 33.4335 208.233 33.208 208.09 33.021C207.958 32.823 207.776 32.669 207.545 32.559C207.314 32.449 207.034 32.394 206.704 32.394C206.264 32.394 205.879 32.4765 205.549 32.6415C205.23 32.7955 204.966 33.0155 204.757 33.3015C204.559 33.5765 204.41 33.9065 204.311 34.2915C204.212 34.6655 204.163 35.078 204.163 35.529V40.281H203.123V31.767Z" fill="#495354"/>
<path d="M194.468 34.374C194.501 33.879 194.605 33.45 194.781 33.087C194.957 32.724 195.194 32.427 195.491 32.196C195.799 31.965 196.156 31.7945 196.563 31.6845C196.97 31.5745 197.421 31.5195 197.916 31.5195C198.29 31.5195 198.664 31.558 199.038 31.635C199.412 31.701 199.748 31.833 200.045 32.031C200.342 32.229 200.584 32.5095 200.771 32.8725C200.958 33.2245 201.051 33.6865 201.051 34.2585V38.7795C201.051 39.1975 201.255 39.4065 201.662 39.4065C201.783 39.4065 201.893 39.3845 201.992 39.3405V40.215C201.871 40.237 201.761 40.2535 201.662 40.2645C201.574 40.2755 201.458 40.281 201.315 40.281C201.051 40.281 200.837 40.248 200.672 40.182C200.518 40.105 200.397 40.0005 200.309 39.8685C200.221 39.7365 200.16 39.5825 200.127 39.4065C200.105 39.2195 200.094 39.016 200.094 38.796H200.061C199.874 39.071 199.682 39.3185 199.484 39.5385C199.297 39.7475 199.082 39.9235 198.84 40.0665C198.609 40.2095 198.34 40.3195 198.032 40.3965C197.735 40.4735 197.377 40.512 196.959 40.512C196.563 40.512 196.189 40.4625 195.837 40.3635C195.496 40.2755 195.194 40.1325 194.93 39.9345C194.677 39.7255 194.473 39.467 194.319 39.159C194.176 38.84 194.105 38.466 194.105 38.037C194.105 37.443 194.237 36.981 194.501 36.651C194.765 36.31 195.111 36.0515 195.54 35.8755C195.98 35.6995 196.47 35.5785 197.009 35.5125C197.559 35.4355 198.114 35.364 198.675 35.298C198.895 35.276 199.088 35.2485 199.253 35.2155C199.418 35.1825 199.555 35.1275 199.665 35.0505C199.775 34.9625 199.858 34.847 199.913 34.704C199.979 34.561 200.012 34.374 200.012 34.143C200.012 33.791 199.951 33.505 199.83 33.285C199.72 33.054 199.561 32.8725 199.352 32.7405C199.154 32.6085 198.917 32.5205 198.642 32.4765C198.378 32.4215 198.092 32.394 197.784 32.394C197.124 32.394 196.585 32.5535 196.167 32.8725C195.749 33.1805 195.529 33.681 195.507 34.374H194.468ZM200.012 35.628H199.979C199.913 35.749 199.786 35.837 199.599 35.892C199.412 35.947 199.247 35.9855 199.104 36.0075C198.664 36.0845 198.208 36.156 197.735 36.222C197.273 36.277 196.849 36.365 196.464 36.486C196.079 36.607 195.76 36.783 195.507 37.014C195.265 37.234 195.144 37.553 195.144 37.971C195.144 38.235 195.194 38.4715 195.293 38.6805C195.403 38.8785 195.546 39.0545 195.722 39.2085C195.898 39.3515 196.101 39.4615 196.332 39.5385C196.563 39.6155 196.8 39.654 197.042 39.654C197.438 39.654 197.817 39.5935 198.18 39.4725C198.543 39.3515 198.857 39.1755 199.121 38.9445C199.396 38.7135 199.61 38.433 199.764 38.103C199.929 37.773 200.012 37.399 200.012 36.981V35.628Z" fill="#495354"/>
<path d="M191.76 32.0635C191.661 31.6125 191.496 31.211 191.265 30.859C191.045 30.496 190.77 30.1935 190.44 29.9515C190.121 29.7095 189.764 29.528 189.368 29.407C188.983 29.275 188.576 29.209 188.147 29.209C187.366 29.209 186.695 29.3575 186.134 29.6545C185.573 29.9515 185.111 30.3475 184.748 30.8425C184.396 31.3265 184.132 31.8765 183.956 32.4925C183.791 33.1085 183.708 33.741 183.708 34.39C183.708 35.028 183.791 35.6605 183.956 36.2875C184.132 36.9035 184.396 37.459 184.748 37.954C185.111 38.438 185.573 38.8285 186.134 39.1255C186.695 39.4225 187.366 39.571 188.147 39.571C188.697 39.571 189.192 39.472 189.632 39.274C190.072 39.076 190.451 38.8065 190.77 38.4655C191.089 38.1245 191.348 37.7285 191.546 37.2775C191.744 36.8155 191.87 36.3205 191.925 35.7925H193.047C192.97 36.5185 192.8 37.173 192.536 37.756C192.272 38.339 191.931 38.834 191.513 39.241C191.095 39.648 190.6 39.9615 190.028 40.1815C189.467 40.4015 188.84 40.5115 188.147 40.5115C187.223 40.5115 186.409 40.3465 185.705 40.0165C185.012 39.6755 184.434 39.2245 183.972 38.6635C183.51 38.1025 183.164 37.4535 182.933 36.7165C182.702 35.9795 182.586 35.204 182.586 34.39C182.586 33.576 182.702 32.8005 182.933 32.0635C183.164 31.3265 183.51 30.6775 183.972 30.1165C184.434 29.5445 185.012 29.0935 185.705 28.7635C186.409 28.4225 187.223 28.252 188.147 28.252C188.708 28.252 189.252 28.3345 189.78 28.4995C190.319 28.6645 190.803 28.912 191.232 29.242C191.672 29.561 192.035 29.957 192.321 30.43C192.618 30.903 192.805 31.4475 192.882 32.0635H191.76Z" fill="#495354"/>
<path d="M175.328 28.5H176.368V40.281H175.328V28.5Z" fill="#495354"/>
<path d="M166.656 34.374C166.689 33.879 166.794 33.45 166.97 33.087C167.146 32.724 167.382 32.427 167.679 32.196C167.987 31.965 168.345 31.7945 168.752 31.6845C169.159 31.5745 169.61 31.5195 170.105 31.5195C170.479 31.5195 170.853 31.558 171.227 31.635C171.601 31.701 171.936 31.833 172.233 32.031C172.53 32.229 172.772 32.5095 172.959 32.8725C173.146 33.2245 173.24 33.6865 173.24 34.2585V38.7795C173.24 39.1975 173.443 39.4065 173.85 39.4065C173.971 39.4065 174.081 39.3845 174.18 39.3405V40.215C174.059 40.237 173.949 40.2535 173.85 40.2645C173.762 40.2755 173.647 40.281 173.504 40.281C173.24 40.281 173.025 40.248 172.86 40.182C172.706 40.105 172.585 40.0005 172.497 39.8685C172.409 39.7365 172.349 39.5825 172.316 39.4065C172.294 39.2195 172.283 39.016 172.283 38.796H172.25C172.063 39.071 171.87 39.3185 171.672 39.5385C171.485 39.7475 171.271 39.9235 171.029 40.0665C170.798 40.2095 170.528 40.3195 170.22 40.3965C169.923 40.4735 169.566 40.512 169.148 40.512C168.752 40.512 168.378 40.4625 168.026 40.3635C167.685 40.2755 167.382 40.1325 167.118 39.9345C166.865 39.7255 166.662 39.467 166.508 39.159C166.365 38.84 166.293 38.466 166.293 38.037C166.293 37.443 166.425 36.981 166.689 36.651C166.953 36.31 167.3 36.0515 167.729 35.8755C168.169 35.6995 168.658 35.5785 169.197 35.5125C169.747 35.4355 170.303 35.364 170.864 35.298C171.084 35.276 171.276 35.2485 171.441 35.2155C171.606 35.1825 171.744 35.1275 171.854 35.0505C171.964 34.9625 172.046 34.847 172.101 34.704C172.167 34.561 172.2 34.374 172.2 34.143C172.2 33.791 172.14 33.505 172.019 33.285C171.909 33.054 171.749 32.8725 171.54 32.7405C171.342 32.6085 171.106 32.5205 170.831 32.4765C170.567 32.4215 170.281 32.394 169.973 32.394C169.313 32.394 168.774 32.5535 168.356 32.8725C167.938 33.1805 167.718 33.681 167.696 34.374H166.656ZM172.2 35.628H172.167C172.101 35.749 171.975 35.837 171.788 35.892C171.601 35.947 171.436 35.9855 171.293 36.0075C170.853 36.0845 170.396 36.156 169.923 36.222C169.461 36.277 169.038 36.365 168.653 36.486C168.268 36.607 167.949 36.783 167.696 37.014C167.454 37.234 167.333 37.553 167.333 37.971C167.333 38.235 167.382 38.4715 167.481 38.6805C167.591 38.8785 167.734 39.0545 167.91 39.2085C168.086 39.3515 168.29 39.4615 168.521 39.5385C168.752 39.6155 168.988 39.654 169.23 39.654C169.626 39.654 170.006 39.5935 170.369 39.4725C170.732 39.3515 171.045 39.1755 171.309 38.9445C171.584 38.7135 171.799 38.433 171.953 38.103C172.118 37.773 172.2 37.399 172.2 36.981V35.628Z" fill="#495354"/>
<path d="M164.206 34.44C164.063 33.802 163.799 33.3015 163.414 32.9385C163.029 32.5755 162.49 32.394 161.797 32.394C161.302 32.394 160.867 32.4985 160.493 32.7075C160.119 32.9165 159.806 33.1915 159.553 33.5325C159.311 33.8735 159.124 34.264 158.992 34.704C158.871 35.133 158.81 35.573 158.81 36.024C158.81 36.475 158.871 36.9205 158.992 37.3605C159.124 37.7895 159.311 38.1745 159.553 38.5155C159.806 38.8565 160.119 39.1315 160.493 39.3405C160.867 39.5495 161.302 39.654 161.797 39.654C162.116 39.654 162.418 39.5935 162.704 39.4725C162.99 39.3515 163.243 39.1865 163.463 38.9775C163.683 38.7575 163.865 38.499 164.008 38.202C164.151 37.905 164.239 37.5805 164.272 37.2285H165.311C165.168 38.2625 164.789 39.071 164.173 39.654C163.557 40.226 162.765 40.512 161.797 40.512C161.148 40.512 160.57 40.3965 160.064 40.1655C159.569 39.9235 159.151 39.599 158.81 39.192C158.469 38.785 158.211 38.312 158.035 37.773C157.859 37.223 157.771 36.64 157.771 36.024C157.771 35.408 157.859 34.8305 158.035 34.2915C158.211 33.7415 158.469 33.263 158.81 32.856C159.151 32.449 159.569 32.1245 160.064 31.8825C160.57 31.6405 161.148 31.5195 161.797 31.5195C162.71 31.5195 163.48 31.7615 164.107 32.2455C164.745 32.7295 165.124 33.461 165.245 34.44H164.206Z" fill="#495354"/>
<path d="M155.17 28.5H156.21V30.1665H155.17V28.5ZM155.17 31.767H156.21V40.281H155.17V31.767Z" fill="#495354"/>
<path d="M153.17 40.281H152.213V38.664H152.18C152.07 38.939 151.905 39.192 151.685 39.423C151.476 39.654 151.234 39.852 150.959 40.017C150.684 40.171 150.387 40.292 150.068 40.38C149.76 40.468 149.452 40.512 149.144 40.512C148.495 40.512 147.929 40.3965 147.445 40.1655C146.972 39.9235 146.576 39.599 146.257 39.192C145.938 38.774 145.701 38.2955 145.547 37.7565C145.393 37.2065 145.316 36.629 145.316 36.024C145.316 35.419 145.393 34.847 145.547 34.308C145.701 33.758 145.938 33.2795 146.257 32.8725C146.576 32.4545 146.972 32.1245 147.445 31.8825C147.929 31.6405 148.495 31.5195 149.144 31.5195C149.463 31.5195 149.771 31.558 150.068 31.635C150.376 31.712 150.662 31.833 150.926 31.998C151.19 32.152 151.421 32.3445 151.619 32.5755C151.828 32.8065 151.988 33.076 152.098 33.384H152.131V28.5H153.17V40.281ZM146.356 36.024C146.356 36.464 146.405 36.904 146.504 37.344C146.614 37.773 146.779 38.158 146.999 38.499C147.23 38.84 147.522 39.1205 147.874 39.3405C148.226 39.5495 148.649 39.654 149.144 39.654C149.694 39.654 150.156 39.5495 150.53 39.3405C150.915 39.1205 151.223 38.84 151.454 38.499C151.696 38.158 151.867 37.773 151.966 37.344C152.076 36.904 152.131 36.464 152.131 36.024C152.131 35.584 152.076 35.1495 151.966 34.7205C151.867 34.2805 151.696 33.89 151.454 33.549C151.223 33.208 150.915 32.933 150.53 32.724C150.156 32.504 149.694 32.394 149.144 32.394C148.649 32.394 148.226 32.504 147.874 32.724C147.522 32.933 147.23 33.208 146.999 33.549C146.779 33.89 146.614 34.2805 146.504 34.7205C146.405 35.1495 146.356 35.584 146.356 36.024Z" fill="#495354"/>
<path d="M143.245 35.43C143.234 35.034 143.162 34.6545 143.03 34.2915C142.909 33.9285 142.733 33.6095 142.502 33.3345C142.271 33.0485 141.991 32.823 141.661 32.658C141.331 32.482 140.957 32.394 140.539 32.394C140.11 32.394 139.73 32.482 139.4 32.658C139.07 32.823 138.79 33.0485 138.559 33.3345C138.328 33.6095 138.141 33.934 137.998 34.308C137.866 34.671 137.778 35.045 137.734 35.43H143.245ZM137.734 36.3045C137.734 36.6785 137.783 37.069 137.882 37.476C137.992 37.872 138.163 38.2295 138.394 38.5485C138.625 38.8675 138.916 39.1315 139.268 39.3405C139.62 39.5495 140.044 39.654 140.539 39.654C141.298 39.654 141.892 39.456 142.321 39.06C142.75 38.664 143.047 38.136 143.212 37.476H144.251C144.031 38.444 143.624 39.192 143.03 39.72C142.447 40.248 141.617 40.512 140.539 40.512C139.868 40.512 139.285 40.3965 138.79 40.1655C138.306 39.9235 137.91 39.599 137.602 39.192C137.294 38.774 137.063 38.2955 136.909 37.7565C136.766 37.2065 136.694 36.629 136.694 36.024C136.694 35.463 136.766 34.913 136.909 34.374C137.063 33.835 137.294 33.3565 137.602 32.9385C137.91 32.5095 138.306 32.1685 138.79 31.9155C139.285 31.6515 139.868 31.5195 140.539 31.5195C141.221 31.5195 141.804 31.657 142.288 31.932C142.772 32.207 143.162 32.57 143.459 33.021C143.767 33.461 143.987 33.9725 144.119 34.5555C144.251 35.1275 144.306 35.7105 144.284 36.3045H137.734Z" fill="#495354"/>
<path d="M125.387 28.5L129.297 38.829L133.356 28.5H135.006V40.281H133.884V30.1005H133.851L129.825 40.281H128.769L124.892 30.1005H124.859V40.281H123.737V28.5H125.387Z" fill="#495354"/>
<path d="M111.854 39.4061H117.711V40.2806H110.6V39.4391L116.16 32.6411H110.979V31.7666H117.48V32.5091L111.854 39.4061Z" fill="#495354"/>
<path d="M108.109 31.7665H109.842V32.641H108.109V38.383C108.109 38.724 108.153 38.9935 108.241 39.1915C108.34 39.3785 108.577 39.483 108.951 39.505C109.248 39.505 109.545 39.4885 109.842 39.4555V40.33C109.688 40.33 109.534 40.3355 109.38 40.3465C109.226 40.3575 109.072 40.363 108.918 40.363C108.225 40.363 107.741 40.231 107.466 39.967C107.191 39.692 107.059 39.1915 107.07 38.4655V32.641H105.585V31.7665H107.07V29.209H108.109V31.7665Z" fill="#495354"/>
<path d="M104.494 40.2806H103.537V38.7461H103.504C103.229 39.3181 102.828 39.7581 102.3 40.0661C101.783 40.3631 101.205 40.5116 100.567 40.5116C100.028 40.5116 99.5661 40.4346 99.1811 40.2806C98.8071 40.1376 98.4991 39.9286 98.2571 39.6536C98.0261 39.3786 97.8556 39.0431 97.7456 38.6471C97.6356 38.2511 97.5806 37.8001 97.5806 37.2941V31.7666H98.6201V37.3106C98.6421 38.0806 98.8181 38.6636 99.1481 39.0596C99.4891 39.4556 100.072 39.6536 100.897 39.6536C101.348 39.6536 101.733 39.5601 102.052 39.3731C102.371 39.1751 102.635 38.9166 102.844 38.5976C103.053 38.2786 103.207 37.9156 103.306 37.5086C103.405 37.0906 103.455 36.6671 103.455 36.2381V31.7666H104.494V40.2806Z" fill="#495354"/>
<path d="M88.7183 28.5H89.7578V33.2355H89.7908C89.9888 32.7185 90.3408 32.306 90.8468 31.998C91.3528 31.679 91.9083 31.5195 92.5133 31.5195C93.1073 31.5195 93.6023 31.5965 93.9983 31.7505C94.4053 31.9045 94.7298 32.1245 94.9718 32.4105C95.2138 32.6855 95.3843 33.0265 95.4833 33.4335C95.5823 33.8405 95.6318 34.297 95.6318 34.803V40.281H94.5923V34.968C94.5923 34.605 94.5593 34.2695 94.4933 33.9615C94.4273 33.6425 94.3118 33.3675 94.1468 33.1365C93.9818 32.9055 93.7563 32.724 93.4703 32.592C93.1953 32.46 92.8488 32.394 92.4308 32.394C92.0128 32.394 91.6388 32.471 91.3088 32.625C90.9898 32.768 90.7148 32.9715 90.4838 33.2355C90.2638 33.4885 90.0878 33.7965 89.9558 34.1595C89.8348 34.5115 89.7688 34.8965 89.7578 35.3145V40.281H88.7183V28.5Z" fill="#495354"/>
<path d="M86.185 34.44C86.042 33.802 85.778 33.3015 85.393 32.9385C85.008 32.5755 84.469 32.394 83.776 32.394C83.281 32.394 82.8465 32.4985 82.4725 32.7075C82.0985 32.9165 81.785 33.1915 81.532 33.5325C81.29 33.8735 81.103 34.264 80.971 34.704C80.85 35.133 80.7895 35.573 80.7895 36.024C80.7895 36.475 80.85 36.9205 80.971 37.3605C81.103 37.7895 81.29 38.1745 81.532 38.5155C81.785 38.8565 82.0985 39.1315 82.4725 39.3405C82.8465 39.5495 83.281 39.654 83.776 39.654C84.095 39.654 84.3975 39.5935 84.6835 39.4725C84.9695 39.3515 85.2225 39.1865 85.4425 38.9775C85.6625 38.7575 85.844 38.499 85.987 38.202C86.13 37.905 86.218 37.5805 86.251 37.2285H87.2905C87.1475 38.2625 86.768 39.071 86.152 39.654C85.536 40.226 84.744 40.512 83.776 40.512C83.127 40.512 82.5495 40.3965 82.0435 40.1655C81.5485 39.9235 81.1305 39.599 80.7895 39.192C80.4485 38.785 80.19 38.312 80.014 37.773C79.838 37.223 79.75 36.64 79.75 36.024C79.75 35.408 79.838 34.8305 80.014 34.2915C80.19 33.7415 80.4485 33.263 80.7895 32.856C81.1305 32.449 81.5485 32.1245 82.0435 31.8825C82.5495 31.6405 83.127 31.5195 83.776 31.5195C84.689 31.5195 85.459 31.7615 86.086 32.2455C86.724 32.7295 87.1035 33.461 87.2245 34.44H86.185Z" fill="#495354"/>
<path d="M77.3333 34.2585C77.3223 33.9395 77.2563 33.6645 77.1353 33.4335C77.0143 33.1915 76.8493 32.9935 76.6403 32.8395C76.4423 32.6855 76.2113 32.5755 75.9473 32.5095C75.6833 32.4325 75.4028 32.394 75.1058 32.394C74.8748 32.394 74.6383 32.4215 74.3963 32.4765C74.1653 32.5205 73.9508 32.603 73.7528 32.724C73.5548 32.834 73.3953 32.9825 73.2743 33.1695C73.1533 33.3565 73.0928 33.5875 73.0928 33.8625C73.0928 34.0935 73.1478 34.2915 73.2578 34.4565C73.3788 34.6105 73.5273 34.7425 73.7033 34.8525C73.8793 34.9625 74.0718 35.056 74.2808 35.133C74.4898 35.199 74.6823 35.254 74.8583 35.298L76.2443 35.6115C76.5413 35.6555 76.8328 35.738 77.1188 35.859C77.4158 35.969 77.6743 36.1175 77.8943 36.3045C78.1253 36.4915 78.3123 36.7225 78.4553 36.9975C78.5983 37.2725 78.6698 37.597 78.6698 37.971C78.6698 38.433 78.5653 38.829 78.3563 39.159C78.1473 39.478 77.8778 39.742 77.5478 39.951C77.2288 40.149 76.8658 40.292 76.4588 40.38C76.0518 40.468 75.6503 40.512 75.2543 40.512C74.2533 40.512 73.4393 40.2755 72.8123 39.8025C72.1963 39.3295 71.8443 38.5705 71.7563 37.5255H72.7958C72.8398 38.2295 73.0928 38.763 73.5548 39.126C74.0278 39.478 74.6108 39.654 75.3038 39.654C75.5568 39.654 75.8153 39.6265 76.0793 39.5715C76.3543 39.5165 76.6073 39.423 76.8383 39.291C77.0693 39.159 77.2563 38.994 77.3993 38.796C77.5533 38.587 77.6303 38.334 77.6303 38.037C77.6303 37.784 77.5753 37.575 77.4653 37.41C77.3663 37.234 77.2288 37.091 77.0528 36.981C76.8768 36.86 76.6733 36.761 76.4423 36.684C76.2223 36.607 75.9968 36.541 75.7658 36.486L74.4293 36.189C74.0883 36.101 73.7748 36.002 73.4888 35.892C73.2028 35.771 72.9498 35.628 72.7298 35.463C72.5208 35.287 72.3558 35.078 72.2348 34.836C72.1138 34.583 72.0533 34.275 72.0533 33.912C72.0533 33.483 72.1468 33.1145 72.3338 32.8065C72.5318 32.4985 72.7848 32.251 73.0928 32.064C73.4008 31.877 73.7418 31.7395 74.1158 31.6515C74.5008 31.5635 74.8803 31.5195 75.2543 31.5195C75.6833 31.5195 76.0793 31.5745 76.4423 31.6845C76.8163 31.7945 77.1408 31.965 77.4158 32.196C77.7018 32.427 77.9273 32.713 78.0923 33.054C78.2573 33.395 78.3508 33.7965 78.3728 34.2585H77.3333Z" fill="#495354"/>
<path d="M63.356 31.767H64.3955V33.2355H64.4285C64.6265 32.7185 64.9785 32.306 65.4845 31.998C65.9905 31.679 66.546 31.5195 67.151 31.5195C67.745 31.5195 68.24 31.5965 68.636 31.7505C69.043 31.9045 69.3675 32.1245 69.6095 32.4105C69.8515 32.6855 70.022 33.0265 70.121 33.4335C70.22 33.8405 70.2695 34.297 70.2695 34.803V40.281H69.23V34.968C69.23 34.605 69.197 34.2695 69.131 33.9615C69.065 33.6425 68.9495 33.3675 68.7845 33.1365C68.6195 32.9055 68.394 32.724 68.108 32.592C67.833 32.46 67.4865 32.394 67.0685 32.394C66.6505 32.394 66.2765 32.471 65.9465 32.625C65.6275 32.768 65.3525 32.9715 65.1215 33.2355C64.9015 33.4885 64.7255 33.7965 64.5935 34.1595C64.4725 34.5115 64.4065 34.8965 64.3955 35.3145V40.281H63.356V31.767Z" fill="#495354"/>
<path d="M54.8441 35.661H59.4806L57.2036 29.622L54.8441 35.661ZM56.6261 28.5H57.8801L62.5001 40.281H61.2956L59.8601 36.618H54.4976L53.0786 40.281H51.8906L56.6261 28.5Z" fill="#495354"/>
</svg>
