<svg xmlns="http://www.w3.org/2000/svg" viewBox="0 0 32 32"><g fill-rule="nonzero" fill="none"><rect fill="#09F" width="32" height="32" rx="4"/><path d="M21.425 24a.944.944 0 00.548-.164c.351-.21.527-.61.527-1.007 0-.211-.044-.422-.154-.61l-4.716-8.386s1.602-1.653 3.231-3.346l.239-.248.237-.248c.22-.21.33-.515.33-.82 0-.328-.132-.656-.352-.866A.99.99 0 0020.57 8c-.285 0-.57.117-.767.328l-6.955 7.239V9.265c0-.68-.504-1.265-1.162-1.265-.658 0-1.185.586-1.185 1.265v13.47c0 .703.527 1.265 1.185 1.265s1.162-.586 1.162-1.265v-3.912c.264-.281 1.602-1.687 3.16-3.303l4.475 7.894c.197.375.57.586.943.586z" fill="#FFF"/></g></svg>